<?xml version="1.0" encoding="utf-8" standalone="no"?>
<!DOCTYPE svg PUBLIC "-//W3C//DTD SVG 1.1//EN"
  "http://www.w3.org/Graphics/SVG/1.1/DTD/svg11.dtd">
<svg xmlns:xlink="http://www.w3.org/1999/xlink" width="864pt" height="288pt" viewBox="0 0 864 288" xmlns="http://www.w3.org/2000/svg" version="1.1">
 <metadata>
  <rdf:RDF xmlns:dc="http://purl.org/dc/elements/1.1/" xmlns:cc="http://creativecommons.org/ns#" xmlns:rdf="http://www.w3.org/1999/02/22-rdf-syntax-ns#">
   <cc:Work>
    <dc:type rdf:resource="http://purl.org/dc/dcmitype/StillImage"/>
    <dc:date>2024-01-15T22:02:37.657517</dc:date>
    <dc:format>image/svg+xml</dc:format>
    <dc:creator>
     <cc:Agent>
      <dc:title>Matplotlib v3.5.3, https://matplotlib.org/</dc:title>
     </cc:Agent>
    </dc:creator>
   </cc:Work>
  </rdf:RDF>
 </metadata>
 <defs>
  <style type="text/css">*{stroke-linejoin: round; stroke-linecap: butt}</style>
 </defs>
 <g id="figure_1">
  <g id="patch_1">
   <path d="M 0 288 
L 864 288 
L 864 0 
L 0 0 
L 0 288 
z
" style="fill: none"/>
  </g>
  <g id="axes_1">
   <g id="patch_2">
    <path d="M 108 256.32 
L 777.6 256.32 
L 777.6 34.56 
L 108 34.56 
L 108 256.32 
z
" style="fill: none"/>
   </g>
   <g id="PathCollection_1">
    <defs>
     <path id="m8c1230c1ca" d="M 0 1.118034 
C 0.296506 1.118034 0.580908 1.000231 0.790569 0.790569 
C 1.000231 0.580908 1.118034 0.296506 1.118034 0 
C 1.118034 -0.296506 1.000231 -0.580908 0.790569 -0.790569 
C 0.580908 -1.000231 0.296506 -1.118034 0 -1.118034 
C -0.296506 -1.118034 -0.580908 -1.000231 -0.790569 -0.790569 
C -1.000231 -0.580908 -1.118034 -0.296506 -1.118034 0 
C -1.118034 0.296506 -1.000231 0.580908 -0.790569 0.790569 
C -0.580908 1.000231 -0.296506 1.118034 0 1.118034 
z
" style="stroke: #ff0000"/>
    </defs>
    <g clip-path="url(#p4a0beef84d)">
     <use xlink:href="#m8c1230c1ca" x="138.436364" y="241.41456" style="fill: #ff0000; stroke: #ff0000"/>
     <use xlink:href="#m8c1230c1ca" x="144.523636" y="241.275185" style="fill: #ff0000; stroke: #ff0000"/>
     <use xlink:href="#m8c1230c1ca" x="150.610909" y="241.38675" style="fill: #ff0000; stroke: #ff0000"/>
     <use xlink:href="#m8c1230c1ca" x="156.698182" y="241.276671" style="fill: #ff0000; stroke: #ff0000"/>
     <use xlink:href="#m8c1230c1ca" x="162.785455" y="241.491413" style="fill: #ff0000; stroke: #ff0000"/>
     <use xlink:href="#m8c1230c1ca" x="168.872727" y="238.25442" style="fill: #ff0000; stroke: #ff0000"/>
     <use xlink:href="#m8c1230c1ca" x="174.96" y="241.413877" style="fill: #ff0000; stroke: #ff0000"/>
     <use xlink:href="#m8c1230c1ca" x="181.047273" y="237.420578" style="fill: #ff0000; stroke: #ff0000"/>
     <use xlink:href="#m8c1230c1ca" x="187.134545" y="241.47044" style="fill: #ff0000; stroke: #ff0000"/>
     <use xlink:href="#m8c1230c1ca" x="193.221818" y="241.430197" style="fill: #ff0000; stroke: #ff0000"/>
     <use xlink:href="#m8c1230c1ca" x="199.309091" y="241.340091" style="fill: #ff0000; stroke: #ff0000"/>
     <use xlink:href="#m8c1230c1ca" x="205.396364" y="241.368252" style="fill: #ff0000; stroke: #ff0000"/>
     <use xlink:href="#m8c1230c1ca" x="211.483636" y="241.261156" style="fill: #ff0000; stroke: #ff0000"/>
     <use xlink:href="#m8c1230c1ca" x="217.570909" y="234.977241" style="fill: #ff0000; stroke: #ff0000"/>
     <use xlink:href="#m8c1230c1ca" x="223.658182" y="241.2635" style="fill: #ff0000; stroke: #ff0000"/>
     <use xlink:href="#m8c1230c1ca" x="229.745455" y="241.262004" style="fill: #ff0000; stroke: #ff0000"/>
     <use xlink:href="#m8c1230c1ca" x="235.832727" y="240.906149" style="fill: #ff0000; stroke: #ff0000"/>
     <use xlink:href="#m8c1230c1ca" x="241.92" y="241.436598" style="fill: #ff0000; stroke: #ff0000"/>
     <use xlink:href="#m8c1230c1ca" x="248.007273" y="241.382737" style="fill: #ff0000; stroke: #ff0000"/>
     <use xlink:href="#m8c1230c1ca" x="254.094545" y="241.459477" style="fill: #ff0000; stroke: #ff0000"/>
     <use xlink:href="#m8c1230c1ca" x="260.181818" y="241.491413" style="fill: #ff0000; stroke: #ff0000"/>
     <use xlink:href="#m8c1230c1ca" x="266.269091" y="241.459499" style="fill: #ff0000; stroke: #ff0000"/>
     <use xlink:href="#m8c1230c1ca" x="272.356364" y="241.405509" style="fill: #ff0000; stroke: #ff0000"/>
     <use xlink:href="#m8c1230c1ca" x="278.443636" y="241.066092" style="fill: #ff0000; stroke: #ff0000"/>
     <use xlink:href="#m8c1230c1ca" x="284.530909" y="241.247389" style="fill: #ff0000; stroke: #ff0000"/>
     <use xlink:href="#m8c1230c1ca" x="290.618182" y="241.491413" style="fill: #ff0000; stroke: #ff0000"/>
     <use xlink:href="#m8c1230c1ca" x="296.705455" y="241.491413" style="fill: #ff0000; stroke: #ff0000"/>
     <use xlink:href="#m8c1230c1ca" x="302.792727" y="214.661752" style="fill: #ff0000; stroke: #ff0000"/>
     <use xlink:href="#m8c1230c1ca" x="308.88" y="227.813681" style="fill: #ff0000; stroke: #ff0000"/>
     <use xlink:href="#m8c1230c1ca" x="314.967273" y="241.477351" style="fill: #ff0000; stroke: #ff0000"/>
     <use xlink:href="#m8c1230c1ca" x="321.054545" y="241.491413" style="fill: #ff0000; stroke: #ff0000"/>
     <use xlink:href="#m8c1230c1ca" x="327.141818" y="241.407124" style="fill: #ff0000; stroke: #ff0000"/>
     <use xlink:href="#m8c1230c1ca" x="333.229091" y="241.491413" style="fill: #ff0000; stroke: #ff0000"/>
     <use xlink:href="#m8c1230c1ca" x="339.316364" y="241.491413" style="fill: #ff0000; stroke: #ff0000"/>
     <use xlink:href="#m8c1230c1ca" x="345.403636" y="217.058199" style="fill: #ff0000; stroke: #ff0000"/>
     <use xlink:href="#m8c1230c1ca" x="351.490909" y="241.450687" style="fill: #ff0000; stroke: #ff0000"/>
     <use xlink:href="#m8c1230c1ca" x="357.578182" y="241.491413" style="fill: #ff0000; stroke: #ff0000"/>
     <use xlink:href="#m8c1230c1ca" x="363.665455" y="241.491413" style="fill: #ff0000; stroke: #ff0000"/>
     <use xlink:href="#m8c1230c1ca" x="369.752727" y="241.491413" style="fill: #ff0000; stroke: #ff0000"/>
     <use xlink:href="#m8c1230c1ca" x="375.84" y="234.239284" style="fill: #ff0000; stroke: #ff0000"/>
     <use xlink:href="#m8c1230c1ca" x="381.927273" y="241.491413" style="fill: #ff0000; stroke: #ff0000"/>
     <use xlink:href="#m8c1230c1ca" x="388.014545" y="241.491413" style="fill: #ff0000; stroke: #ff0000"/>
     <use xlink:href="#m8c1230c1ca" x="394.101818" y="241.491413" style="fill: #ff0000; stroke: #ff0000"/>
     <use xlink:href="#m8c1230c1ca" x="400.189091" y="215.238253" style="fill: #ff0000; stroke: #ff0000"/>
     <use xlink:href="#m8c1230c1ca" x="406.276364" y="232.185892" style="fill: #ff0000; stroke: #ff0000"/>
     <use xlink:href="#m8c1230c1ca" x="412.363636" y="165.431247" style="fill: #ff0000; stroke: #ff0000"/>
     <use xlink:href="#m8c1230c1ca" x="418.450909" y="163.381102" style="fill: #ff0000; stroke: #ff0000"/>
     <use xlink:href="#m8c1230c1ca" x="424.538182" y="144.187588" style="fill: #ff0000; stroke: #ff0000"/>
     <use xlink:href="#m8c1230c1ca" x="430.625455" y="182.293312" style="fill: #ff0000; stroke: #ff0000"/>
     <use xlink:href="#m8c1230c1ca" x="436.712727" y="137.420892" style="fill: #ff0000; stroke: #ff0000"/>
     <use xlink:href="#m8c1230c1ca" x="442.8" y="169.929781" style="fill: #ff0000; stroke: #ff0000"/>
     <use xlink:href="#m8c1230c1ca" x="448.887273" y="121.860823" style="fill: #ff0000; stroke: #ff0000"/>
     <use xlink:href="#m8c1230c1ca" x="454.974545" y="99.536274" style="fill: #ff0000; stroke: #ff0000"/>
     <use xlink:href="#m8c1230c1ca" x="461.061818" y="148.903877" style="fill: #ff0000; stroke: #ff0000"/>
     <use xlink:href="#m8c1230c1ca" x="467.149091" y="163.628591" style="fill: #ff0000; stroke: #ff0000"/>
     <use xlink:href="#m8c1230c1ca" x="473.236364" y="241.291258" style="fill: #ff0000; stroke: #ff0000"/>
     <use xlink:href="#m8c1230c1ca" x="479.323636" y="239.671826" style="fill: #ff0000; stroke: #ff0000"/>
     <use xlink:href="#m8c1230c1ca" x="485.410909" y="132.713899" style="fill: #ff0000; stroke: #ff0000"/>
     <use xlink:href="#m8c1230c1ca" x="491.498182" y="154.778815" style="fill: #ff0000; stroke: #ff0000"/>
     <use xlink:href="#m8c1230c1ca" x="497.585455" y="118.983499" style="fill: #ff0000; stroke: #ff0000"/>
     <use xlink:href="#m8c1230c1ca" x="503.672727" y="214.479745" style="fill: #ff0000; stroke: #ff0000"/>
     <use xlink:href="#m8c1230c1ca" x="509.76" y="147.428544" style="fill: #ff0000; stroke: #ff0000"/>
     <use xlink:href="#m8c1230c1ca" x="515.847273" y="160.91419" style="fill: #ff0000; stroke: #ff0000"/>
     <use xlink:href="#m8c1230c1ca" x="521.934545" y="160.337401" style="fill: #ff0000; stroke: #ff0000"/>
     <use xlink:href="#m8c1230c1ca" x="528.021818" y="235.495602" style="fill: #ff0000; stroke: #ff0000"/>
     <use xlink:href="#m8c1230c1ca" x="534.109091" y="176.060174" style="fill: #ff0000; stroke: #ff0000"/>
     <use xlink:href="#m8c1230c1ca" x="540.196364" y="150.916148" style="fill: #ff0000; stroke: #ff0000"/>
     <use xlink:href="#m8c1230c1ca" x="546.283636" y="182.875308" style="fill: #ff0000; stroke: #ff0000"/>
     <use xlink:href="#m8c1230c1ca" x="552.370909" y="103.486905" style="fill: #ff0000; stroke: #ff0000"/>
     <use xlink:href="#m8c1230c1ca" x="558.458182" y="60.147566" style="fill: #ff0000; stroke: #ff0000"/>
     <use xlink:href="#m8c1230c1ca" x="564.545455" y="170.398812" style="fill: #ff0000; stroke: #ff0000"/>
     <use xlink:href="#m8c1230c1ca" x="570.632727" y="190.469416" style="fill: #ff0000; stroke: #ff0000"/>
     <use xlink:href="#m8c1230c1ca" x="576.72" y="107.543129" style="fill: #ff0000; stroke: #ff0000"/>
     <use xlink:href="#m8c1230c1ca" x="582.807273" y="101.779465" style="fill: #ff0000; stroke: #ff0000"/>
     <use xlink:href="#m8c1230c1ca" x="588.894545" y="103.07161" style="fill: #ff0000; stroke: #ff0000"/>
     <use xlink:href="#m8c1230c1ca" x="594.981818" y="238.872062" style="fill: #ff0000; stroke: #ff0000"/>
     <use xlink:href="#m8c1230c1ca" x="601.069091" y="134.716687" style="fill: #ff0000; stroke: #ff0000"/>
     <use xlink:href="#m8c1230c1ca" x="607.156364" y="155.855203" style="fill: #ff0000; stroke: #ff0000"/>
     <use xlink:href="#m8c1230c1ca" x="613.243636" y="130.714048" style="fill: #ff0000; stroke: #ff0000"/>
     <use xlink:href="#m8c1230c1ca" x="619.330909" y="137.196119" style="fill: #ff0000; stroke: #ff0000"/>
     <use xlink:href="#m8c1230c1ca" x="625.418182" y="162.757093" style="fill: #ff0000; stroke: #ff0000"/>
     <use xlink:href="#m8c1230c1ca" x="631.505455" y="135.885466" style="fill: #ff0000; stroke: #ff0000"/>
     <use xlink:href="#m8c1230c1ca" x="637.592727" y="154.655765" style="fill: #ff0000; stroke: #ff0000"/>
     <use xlink:href="#m8c1230c1ca" x="643.68" y="191.746355" style="fill: #ff0000; stroke: #ff0000"/>
     <use xlink:href="#m8c1230c1ca" x="649.767273" y="182.388445" style="fill: #ff0000; stroke: #ff0000"/>
     <use xlink:href="#m8c1230c1ca" x="655.854545" y="206.252549" style="fill: #ff0000; stroke: #ff0000"/>
     <use xlink:href="#m8c1230c1ca" x="661.941818" y="114.942364" style="fill: #ff0000; stroke: #ff0000"/>
     <use xlink:href="#m8c1230c1ca" x="668.029091" y="99.541895" style="fill: #ff0000; stroke: #ff0000"/>
     <use xlink:href="#m8c1230c1ca" x="674.116364" y="134.445572" style="fill: #ff0000; stroke: #ff0000"/>
     <use xlink:href="#m8c1230c1ca" x="680.203636" y="105.779451" style="fill: #ff0000; stroke: #ff0000"/>
     <use xlink:href="#m8c1230c1ca" x="686.290909" y="220.722745" style="fill: #ff0000; stroke: #ff0000"/>
     <use xlink:href="#m8c1230c1ca" x="692.378182" y="117.270199" style="fill: #ff0000; stroke: #ff0000"/>
     <use xlink:href="#m8c1230c1ca" x="698.465455" y="178.044537" style="fill: #ff0000; stroke: #ff0000"/>
     <use xlink:href="#m8c1230c1ca" x="704.552727" y="110.52806" style="fill: #ff0000; stroke: #ff0000"/>
     <use xlink:href="#m8c1230c1ca" x="710.64" y="235.062769" style="fill: #ff0000; stroke: #ff0000"/>
     <use xlink:href="#m8c1230c1ca" x="716.727273" y="210.306885" style="fill: #ff0000; stroke: #ff0000"/>
     <use xlink:href="#m8c1230c1ca" x="722.814545" y="95.712262" style="fill: #ff0000; stroke: #ff0000"/>
     <use xlink:href="#m8c1230c1ca" x="728.901818" y="186.352336" style="fill: #ff0000; stroke: #ff0000"/>
     <use xlink:href="#m8c1230c1ca" x="734.989091" y="44.64" style="fill: #ff0000; stroke: #ff0000"/>
     <use xlink:href="#m8c1230c1ca" x="741.076364" y="144.255677" style="fill: #ff0000; stroke: #ff0000"/>
     <use xlink:href="#m8c1230c1ca" x="747.163636" y="195.661119" style="fill: #ff0000; stroke: #ff0000"/>
    </g>
   </g>
   <g id="matplotlib.axis_1">
    <g id="xtick_1">
     <g id="line2d_1">
      <defs>
       <path id="mc03281ecaf" d="M 0 0 
L 0 3.5 
" style="stroke: #000000; stroke-width: 0.8"/>
      </defs>
      <g>
       <use xlink:href="#mc03281ecaf" x="138.436364" y="256.32" style="stroke: #000000; stroke-width: 0.8"/>
      </g>
     </g>
     <g id="text_1">
      <!-- 0 -->
      <g transform="translate(135.255114 270.918437)scale(0.1 -0.1)">
       <defs>
        <path id="DejaVuSans-30" d="M 2034 4250 
Q 1547 4250 1301 3770 
Q 1056 3291 1056 2328 
Q 1056 1369 1301 889 
Q 1547 409 2034 409 
Q 2525 409 2770 889 
Q 3016 1369 3016 2328 
Q 3016 3291 2770 3770 
Q 2525 4250 2034 4250 
z
M 2034 4750 
Q 2819 4750 3233 4129 
Q 3647 3509 3647 2328 
Q 3647 1150 3233 529 
Q 2819 -91 2034 -91 
Q 1250 -91 836 529 
Q 422 1150 422 2328 
Q 422 3509 836 4129 
Q 1250 4750 2034 4750 
z
" transform="scale(0.015625)"/>
       </defs>
       <use xlink:href="#DejaVuSans-30"/>
      </g>
     </g>
    </g>
    <g id="xtick_2">
     <g id="line2d_2">
      <g>
       <use xlink:href="#mc03281ecaf" x="260.181818" y="256.32" style="stroke: #000000; stroke-width: 0.8"/>
      </g>
     </g>
     <g id="text_2">
      <!-- 20 -->
      <g transform="translate(253.819318 270.918437)scale(0.1 -0.1)">
       <defs>
        <path id="DejaVuSans-32" d="M 1228 531 
L 3431 531 
L 3431 0 
L 469 0 
L 469 531 
Q 828 903 1448 1529 
Q 2069 2156 2228 2338 
Q 2531 2678 2651 2914 
Q 2772 3150 2772 3378 
Q 2772 3750 2511 3984 
Q 2250 4219 1831 4219 
Q 1534 4219 1204 4116 
Q 875 4013 500 3803 
L 500 4441 
Q 881 4594 1212 4672 
Q 1544 4750 1819 4750 
Q 2544 4750 2975 4387 
Q 3406 4025 3406 3419 
Q 3406 3131 3298 2873 
Q 3191 2616 2906 2266 
Q 2828 2175 2409 1742 
Q 1991 1309 1228 531 
z
" transform="scale(0.015625)"/>
       </defs>
       <use xlink:href="#DejaVuSans-32"/>
       <use xlink:href="#DejaVuSans-30" x="63.623047"/>
      </g>
     </g>
    </g>
    <g id="xtick_3">
     <g id="line2d_3">
      <g>
       <use xlink:href="#mc03281ecaf" x="381.927273" y="256.32" style="stroke: #000000; stroke-width: 0.8"/>
      </g>
     </g>
     <g id="text_3">
      <!-- 40 -->
      <g transform="translate(375.564773 270.918437)scale(0.1 -0.1)">
       <defs>
        <path id="DejaVuSans-34" d="M 2419 4116 
L 825 1625 
L 2419 1625 
L 2419 4116 
z
M 2253 4666 
L 3047 4666 
L 3047 1625 
L 3713 1625 
L 3713 1100 
L 3047 1100 
L 3047 0 
L 2419 0 
L 2419 1100 
L 313 1100 
L 313 1709 
L 2253 4666 
z
" transform="scale(0.015625)"/>
       </defs>
       <use xlink:href="#DejaVuSans-34"/>
       <use xlink:href="#DejaVuSans-30" x="63.623047"/>
      </g>
     </g>
    </g>
    <g id="xtick_4">
     <g id="line2d_4">
      <g>
       <use xlink:href="#mc03281ecaf" x="503.672727" y="256.32" style="stroke: #000000; stroke-width: 0.8"/>
      </g>
     </g>
     <g id="text_4">
      <!-- 60 -->
      <g transform="translate(497.310227 270.918437)scale(0.1 -0.1)">
       <defs>
        <path id="DejaVuSans-36" d="M 2113 2584 
Q 1688 2584 1439 2293 
Q 1191 2003 1191 1497 
Q 1191 994 1439 701 
Q 1688 409 2113 409 
Q 2538 409 2786 701 
Q 3034 994 3034 1497 
Q 3034 2003 2786 2293 
Q 2538 2584 2113 2584 
z
M 3366 4563 
L 3366 3988 
Q 3128 4100 2886 4159 
Q 2644 4219 2406 4219 
Q 1781 4219 1451 3797 
Q 1122 3375 1075 2522 
Q 1259 2794 1537 2939 
Q 1816 3084 2150 3084 
Q 2853 3084 3261 2657 
Q 3669 2231 3669 1497 
Q 3669 778 3244 343 
Q 2819 -91 2113 -91 
Q 1303 -91 875 529 
Q 447 1150 447 2328 
Q 447 3434 972 4092 
Q 1497 4750 2381 4750 
Q 2619 4750 2861 4703 
Q 3103 4656 3366 4563 
z
" transform="scale(0.015625)"/>
       </defs>
       <use xlink:href="#DejaVuSans-36"/>
       <use xlink:href="#DejaVuSans-30" x="63.623047"/>
      </g>
     </g>
    </g>
    <g id="xtick_5">
     <g id="line2d_5">
      <g>
       <use xlink:href="#mc03281ecaf" x="625.418182" y="256.32" style="stroke: #000000; stroke-width: 0.8"/>
      </g>
     </g>
     <g id="text_5">
      <!-- 80 -->
      <g transform="translate(619.055682 270.918437)scale(0.1 -0.1)">
       <defs>
        <path id="DejaVuSans-38" d="M 2034 2216 
Q 1584 2216 1326 1975 
Q 1069 1734 1069 1313 
Q 1069 891 1326 650 
Q 1584 409 2034 409 
Q 2484 409 2743 651 
Q 3003 894 3003 1313 
Q 3003 1734 2745 1975 
Q 2488 2216 2034 2216 
z
M 1403 2484 
Q 997 2584 770 2862 
Q 544 3141 544 3541 
Q 544 4100 942 4425 
Q 1341 4750 2034 4750 
Q 2731 4750 3128 4425 
Q 3525 4100 3525 3541 
Q 3525 3141 3298 2862 
Q 3072 2584 2669 2484 
Q 3125 2378 3379 2068 
Q 3634 1759 3634 1313 
Q 3634 634 3220 271 
Q 2806 -91 2034 -91 
Q 1263 -91 848 271 
Q 434 634 434 1313 
Q 434 1759 690 2068 
Q 947 2378 1403 2484 
z
M 1172 3481 
Q 1172 3119 1398 2916 
Q 1625 2713 2034 2713 
Q 2441 2713 2670 2916 
Q 2900 3119 2900 3481 
Q 2900 3844 2670 4047 
Q 2441 4250 2034 4250 
Q 1625 4250 1398 4047 
Q 1172 3844 1172 3481 
z
" transform="scale(0.015625)"/>
       </defs>
       <use xlink:href="#DejaVuSans-38"/>
       <use xlink:href="#DejaVuSans-30" x="63.623047"/>
      </g>
     </g>
    </g>
    <g id="xtick_6">
     <g id="line2d_6">
      <g>
       <use xlink:href="#mc03281ecaf" x="747.163636" y="256.32" style="stroke: #000000; stroke-width: 0.8"/>
      </g>
     </g>
     <g id="text_6">
      <!-- 100 -->
      <g transform="translate(737.619886 270.918437)scale(0.1 -0.1)">
       <defs>
        <path id="DejaVuSans-31" d="M 794 531 
L 1825 531 
L 1825 4091 
L 703 3866 
L 703 4441 
L 1819 4666 
L 2450 4666 
L 2450 531 
L 3481 531 
L 3481 0 
L 794 0 
L 794 531 
z
" transform="scale(0.015625)"/>
       </defs>
       <use xlink:href="#DejaVuSans-31"/>
       <use xlink:href="#DejaVuSans-30" x="63.623047"/>
       <use xlink:href="#DejaVuSans-30" x="127.246094"/>
      </g>
     </g>
    </g>
   </g>
   <g id="matplotlib.axis_2">
    <g id="ytick_1">
     <g id="line2d_7">
      <defs>
       <path id="m88aaf6d410" d="M 0 0 
L -3.5 0 
" style="stroke: #000000; stroke-width: 0.8"/>
      </defs>
      <g>
       <use xlink:href="#m88aaf6d410" x="108" y="241.491413" style="stroke: #000000; stroke-width: 0.8"/>
      </g>
     </g>
     <g id="text_7">
      <!-- 0.0 -->
      <g transform="translate(85.096875 245.290632)scale(0.1 -0.1)">
       <defs>
        <path id="DejaVuSans-2e" d="M 684 794 
L 1344 794 
L 1344 0 
L 684 0 
L 684 794 
z
" transform="scale(0.015625)"/>
       </defs>
       <use xlink:href="#DejaVuSans-30"/>
       <use xlink:href="#DejaVuSans-2e" x="63.623047"/>
       <use xlink:href="#DejaVuSans-30" x="95.410156"/>
      </g>
     </g>
    </g>
    <g id="ytick_2">
     <g id="line2d_8">
      <g>
       <use xlink:href="#m88aaf6d410" x="108" y="209.973413" style="stroke: #000000; stroke-width: 0.8"/>
      </g>
     </g>
     <g id="text_8">
      <!-- 0.5 -->
      <g transform="translate(85.096875 213.772632)scale(0.1 -0.1)">
       <defs>
        <path id="DejaVuSans-35" d="M 691 4666 
L 3169 4666 
L 3169 4134 
L 1269 4134 
L 1269 2991 
Q 1406 3038 1543 3061 
Q 1681 3084 1819 3084 
Q 2600 3084 3056 2656 
Q 3513 2228 3513 1497 
Q 3513 744 3044 326 
Q 2575 -91 1722 -91 
Q 1428 -91 1123 -41 
Q 819 9 494 109 
L 494 744 
Q 775 591 1075 516 
Q 1375 441 1709 441 
Q 2250 441 2565 725 
Q 2881 1009 2881 1497 
Q 2881 1984 2565 2268 
Q 2250 2553 1709 2553 
Q 1456 2553 1204 2497 
Q 953 2441 691 2322 
L 691 4666 
z
" transform="scale(0.015625)"/>
       </defs>
       <use xlink:href="#DejaVuSans-30"/>
       <use xlink:href="#DejaVuSans-2e" x="63.623047"/>
       <use xlink:href="#DejaVuSans-35" x="95.410156"/>
      </g>
     </g>
    </g>
    <g id="ytick_3">
     <g id="line2d_9">
      <g>
       <use xlink:href="#m88aaf6d410" x="108" y="178.455413" style="stroke: #000000; stroke-width: 0.8"/>
      </g>
     </g>
     <g id="text_9">
      <!-- 1.0 -->
      <g transform="translate(85.096875 182.254632)scale(0.1 -0.1)">
       <use xlink:href="#DejaVuSans-31"/>
       <use xlink:href="#DejaVuSans-2e" x="63.623047"/>
       <use xlink:href="#DejaVuSans-30" x="95.410156"/>
      </g>
     </g>
    </g>
    <g id="ytick_4">
     <g id="line2d_10">
      <g>
       <use xlink:href="#m88aaf6d410" x="108" y="146.937413" style="stroke: #000000; stroke-width: 0.8"/>
      </g>
     </g>
     <g id="text_10">
      <!-- 1.5 -->
      <g transform="translate(85.096875 150.736632)scale(0.1 -0.1)">
       <use xlink:href="#DejaVuSans-31"/>
       <use xlink:href="#DejaVuSans-2e" x="63.623047"/>
       <use xlink:href="#DejaVuSans-35" x="95.410156"/>
      </g>
     </g>
    </g>
    <g id="ytick_5">
     <g id="line2d_11">
      <g>
       <use xlink:href="#m88aaf6d410" x="108" y="115.419413" style="stroke: #000000; stroke-width: 0.8"/>
      </g>
     </g>
     <g id="text_11">
      <!-- 2.0 -->
      <g transform="translate(85.096875 119.218632)scale(0.1 -0.1)">
       <use xlink:href="#DejaVuSans-32"/>
       <use xlink:href="#DejaVuSans-2e" x="63.623047"/>
       <use xlink:href="#DejaVuSans-30" x="95.410156"/>
      </g>
     </g>
    </g>
    <g id="ytick_6">
     <g id="line2d_12">
      <g>
       <use xlink:href="#m88aaf6d410" x="108" y="83.901413" style="stroke: #000000; stroke-width: 0.8"/>
      </g>
     </g>
     <g id="text_12">
      <!-- 2.5 -->
      <g transform="translate(85.096875 87.700632)scale(0.1 -0.1)">
       <use xlink:href="#DejaVuSans-32"/>
       <use xlink:href="#DejaVuSans-2e" x="63.623047"/>
       <use xlink:href="#DejaVuSans-35" x="95.410156"/>
      </g>
     </g>
    </g>
    <g id="ytick_7">
     <g id="line2d_13">
      <g>
       <use xlink:href="#m88aaf6d410" x="108" y="52.383413" style="stroke: #000000; stroke-width: 0.8"/>
      </g>
     </g>
     <g id="text_13">
      <!-- 3.0 -->
      <g transform="translate(85.096875 56.182632)scale(0.1 -0.1)">
       <defs>
        <path id="DejaVuSans-33" d="M 2597 2516 
Q 3050 2419 3304 2112 
Q 3559 1806 3559 1356 
Q 3559 666 3084 287 
Q 2609 -91 1734 -91 
Q 1441 -91 1130 -33 
Q 819 25 488 141 
L 488 750 
Q 750 597 1062 519 
Q 1375 441 1716 441 
Q 2309 441 2620 675 
Q 2931 909 2931 1356 
Q 2931 1769 2642 2001 
Q 2353 2234 1838 2234 
L 1294 2234 
L 1294 2753 
L 1863 2753 
Q 2328 2753 2575 2939 
Q 2822 3125 2822 3475 
Q 2822 3834 2567 4026 
Q 2313 4219 1838 4219 
Q 1578 4219 1281 4162 
Q 984 4106 628 3988 
L 628 4550 
Q 988 4650 1302 4700 
Q 1616 4750 1894 4750 
Q 2613 4750 3031 4423 
Q 3450 4097 3450 3541 
Q 3450 3153 3228 2886 
Q 3006 2619 2597 2516 
z
" transform="scale(0.015625)"/>
       </defs>
       <use xlink:href="#DejaVuSans-33"/>
       <use xlink:href="#DejaVuSans-2e" x="63.623047"/>
       <use xlink:href="#DejaVuSans-30" x="95.410156"/>
      </g>
     </g>
    </g>
   </g>
   <g id="line2d_14">
    <path d="M 138.436364 234.536881 
L 144.523636 236.403565 
L 150.610909 238.095294 
L 156.698182 239.615853 
L 162.785455 240.969028 
L 168.872727 242.158606 
L 174.96 243.188372 
L 181.047273 244.062111 
L 187.134545 244.78361 
L 193.221818 245.356654 
L 199.309091 245.785029 
L 205.396364 246.072522 
L 211.483636 246.222917 
L 217.570909 246.24 
L 223.658182 246.127558 
L 229.745455 245.889376 
L 235.832727 245.529239 
L 241.92 245.050935 
L 248.007273 244.458248 
L 254.094545 243.754964 
L 260.181818 242.94487 
L 266.269091 242.03175 
L 272.356364 241.019392 
L 278.443636 239.911579 
L 284.530909 238.712099 
L 290.618182 237.424737 
L 296.705455 236.053279 
L 302.792727 234.601511 
L 308.88 233.073219 
L 314.967273 231.472187 
L 321.054545 229.802203 
L 327.141818 228.067052 
L 333.229091 226.270519 
L 339.316364 224.416391 
L 345.403636 222.508454 
L 351.490909 220.550492 
L 357.578182 218.546293 
L 363.665455 216.499641 
L 369.752727 214.414323 
L 375.84 212.294124 
L 381.927273 210.14283 
L 388.014545 207.964227 
L 394.101818 205.762101 
L 400.189091 203.540237 
L 406.276364 201.302422 
L 412.363636 199.052441 
L 418.450909 196.79408 
L 424.538182 194.531125 
L 430.625455 192.267361 
L 436.712727 190.006574 
L 442.8 187.752551 
L 448.887273 185.509077 
L 454.974545 183.279937 
L 461.061818 181.068918 
L 467.149091 178.879805 
L 473.236364 176.716385 
L 479.323636 174.582442 
L 485.410909 172.481763 
L 491.498182 170.418134 
L 497.585455 168.39534 
L 503.672727 166.417167 
L 509.76 164.487402 
L 515.847273 162.609829 
L 521.934545 160.788234 
L 528.021818 159.026404 
L 534.109091 157.328124 
L 540.196364 155.69718 
L 546.283636 154.137358 
L 552.370909 152.652443 
L 558.458182 151.246222 
L 564.545455 149.92248 
L 570.632727 148.685003 
L 576.72 147.537576 
L 582.807273 146.483986 
L 588.894545 145.528019 
L 594.981818 144.67346 
L 601.069091 143.924094 
L 607.156364 143.283709 
L 613.243636 142.756089 
L 619.330909 142.34502 
L 625.418182 142.054289 
L 631.505455 141.887681 
L 637.592727 141.848981 
L 643.68 141.941976 
L 649.767273 142.170451 
L 655.854545 142.538193 
L 661.941818 143.048986 
L 668.029091 143.706618 
L 674.116364 144.514873 
L 680.203636 145.477537 
L 686.290909 146.598396 
L 692.378182 147.881237 
L 698.465455 149.329844 
L 704.552727 150.948004 
L 710.64 152.739502 
L 716.727273 154.708124 
L 722.814545 156.857657 
L 728.901818 159.191885 
L 734.989091 161.714595 
L 741.076364 164.429572 
L 747.163636 167.340602 
" clip-path="url(#p4a0beef84d)" style="fill: none; stroke: #000000; stroke-width: 3; stroke-linecap: square"/>
   </g>
   <g id="patch_3">
    <path d="M 108 256.32 
L 108 34.56 
" style="fill: none; stroke: #000000; stroke-width: 0.8; stroke-linejoin: miter; stroke-linecap: square"/>
   </g>
   <g id="patch_4">
    <path d="M 777.6 256.32 
L 777.6 34.56 
" style="fill: none; stroke: #000000; stroke-width: 0.8; stroke-linejoin: miter; stroke-linecap: square"/>
   </g>
   <g id="patch_5">
    <path d="M 108 256.32 
L 777.6 256.32 
" style="fill: none; stroke: #000000; stroke-width: 0.8; stroke-linejoin: miter; stroke-linecap: square"/>
   </g>
   <g id="patch_6">
    <path d="M 108 34.56 
L 777.6 34.56 
" style="fill: none; stroke: #000000; stroke-width: 0.8; stroke-linejoin: miter; stroke-linecap: square"/>
   </g>
   <g id="text_14">
    <!-- Scd1 -->
    <g transform="translate(790.992 160.616562)scale(0.55 -0.55)">
     <defs>
      <path id="DejaVuSans-53" d="M 3425 4513 
L 3425 3897 
Q 3066 4069 2747 4153 
Q 2428 4238 2131 4238 
Q 1616 4238 1336 4038 
Q 1056 3838 1056 3469 
Q 1056 3159 1242 3001 
Q 1428 2844 1947 2747 
L 2328 2669 
Q 3034 2534 3370 2195 
Q 3706 1856 3706 1288 
Q 3706 609 3251 259 
Q 2797 -91 1919 -91 
Q 1588 -91 1214 -16 
Q 841 59 441 206 
L 441 856 
Q 825 641 1194 531 
Q 1563 422 1919 422 
Q 2459 422 2753 634 
Q 3047 847 3047 1241 
Q 3047 1584 2836 1778 
Q 2625 1972 2144 2069 
L 1759 2144 
Q 1053 2284 737 2584 
Q 422 2884 422 3419 
Q 422 4038 858 4394 
Q 1294 4750 2059 4750 
Q 2388 4750 2728 4690 
Q 3069 4631 3425 4513 
z
" transform="scale(0.015625)"/>
      <path id="DejaVuSans-63" d="M 3122 3366 
L 3122 2828 
Q 2878 2963 2633 3030 
Q 2388 3097 2138 3097 
Q 1578 3097 1268 2742 
Q 959 2388 959 1747 
Q 959 1106 1268 751 
Q 1578 397 2138 397 
Q 2388 397 2633 464 
Q 2878 531 3122 666 
L 3122 134 
Q 2881 22 2623 -34 
Q 2366 -91 2075 -91 
Q 1284 -91 818 406 
Q 353 903 353 1747 
Q 353 2603 823 3093 
Q 1294 3584 2113 3584 
Q 2378 3584 2631 3529 
Q 2884 3475 3122 3366 
z
" transform="scale(0.015625)"/>
      <path id="DejaVuSans-64" d="M 2906 2969 
L 2906 4863 
L 3481 4863 
L 3481 0 
L 2906 0 
L 2906 525 
Q 2725 213 2448 61 
Q 2172 -91 1784 -91 
Q 1150 -91 751 415 
Q 353 922 353 1747 
Q 353 2572 751 3078 
Q 1150 3584 1784 3584 
Q 2172 3584 2448 3432 
Q 2725 3281 2906 2969 
z
M 947 1747 
Q 947 1113 1208 752 
Q 1469 391 1925 391 
Q 2381 391 2643 752 
Q 2906 1113 2906 1747 
Q 2906 2381 2643 2742 
Q 2381 3103 1925 3103 
Q 1469 3103 1208 2742 
Q 947 2381 947 1747 
z
" transform="scale(0.015625)"/>
     </defs>
     <use xlink:href="#DejaVuSans-53"/>
     <use xlink:href="#DejaVuSans-63" x="63.476562"/>
     <use xlink:href="#DejaVuSans-64" x="118.457031"/>
     <use xlink:href="#DejaVuSans-31" x="181.933594"/>
    </g>
   </g>
  </g>
 </g>
 <defs>
  <clipPath id="p4a0beef84d">
   <rect x="108" y="34.56" width="669.6" height="221.76"/>
  </clipPath>
 </defs>
</svg>
