<?xml version="1.0" encoding="utf-8" standalone="no"?>
<!DOCTYPE svg PUBLIC "-//W3C//DTD SVG 1.1//EN"
  "http://www.w3.org/Graphics/SVG/1.1/DTD/svg11.dtd">
<svg xmlns:xlink="http://www.w3.org/1999/xlink" width="864pt" height="288pt" viewBox="0 0 864 288" xmlns="http://www.w3.org/2000/svg" version="1.1">
 <metadata>
  <rdf:RDF xmlns:dc="http://purl.org/dc/elements/1.1/" xmlns:cc="http://creativecommons.org/ns#" xmlns:rdf="http://www.w3.org/1999/02/22-rdf-syntax-ns#">
   <cc:Work>
    <dc:type rdf:resource="http://purl.org/dc/dcmitype/StillImage"/>
    <dc:date>2024-01-15T22:02:36.823860</dc:date>
    <dc:format>image/svg+xml</dc:format>
    <dc:creator>
     <cc:Agent>
      <dc:title>Matplotlib v3.5.3, https://matplotlib.org/</dc:title>
     </cc:Agent>
    </dc:creator>
   </cc:Work>
  </rdf:RDF>
 </metadata>
 <defs>
  <style type="text/css">*{stroke-linejoin: round; stroke-linecap: butt}</style>
 </defs>
 <g id="figure_1">
  <g id="patch_1">
   <path d="M 0 288 
L 864 288 
L 864 0 
L 0 0 
L 0 288 
z
" style="fill: none"/>
  </g>
  <g id="axes_1">
   <g id="patch_2">
    <path d="M 108 256.32 
L 777.6 256.32 
L 777.6 34.56 
L 108 34.56 
L 108 256.32 
z
" style="fill: none"/>
   </g>
   <g id="PathCollection_1">
    <defs>
     <path id="maf3247baa0" d="M 0 1.118034 
C 0.296506 1.118034 0.580908 1.000231 0.790569 0.790569 
C 1.000231 0.580908 1.118034 0.296506 1.118034 0 
C 1.118034 -0.296506 1.000231 -0.580908 0.790569 -0.790569 
C 0.580908 -1.000231 0.296506 -1.118034 0 -1.118034 
C -0.296506 -1.118034 -0.580908 -1.000231 -0.790569 -0.790569 
C -1.000231 -0.580908 -1.118034 -0.296506 -1.118034 0 
C -1.118034 0.296506 -1.000231 0.580908 -0.790569 0.790569 
C -0.580908 1.000231 -0.296506 1.118034 0 1.118034 
z
" style="stroke: #ff0000"/>
    </defs>
    <g clip-path="url(#p7733b0c7d8)">
     <use xlink:href="#maf3247baa0" x="138.436364" y="237.600463" style="fill: #ff0000; stroke: #ff0000"/>
     <use xlink:href="#maf3247baa0" x="144.523636" y="242.565196" style="fill: #ff0000; stroke: #ff0000"/>
     <use xlink:href="#maf3247baa0" x="150.610909" y="246.24" style="fill: #ff0000; stroke: #ff0000"/>
     <use xlink:href="#maf3247baa0" x="156.698182" y="222.246549" style="fill: #ff0000; stroke: #ff0000"/>
     <use xlink:href="#maf3247baa0" x="162.785455" y="239.871101" style="fill: #ff0000; stroke: #ff0000"/>
     <use xlink:href="#maf3247baa0" x="168.872727" y="246.24" style="fill: #ff0000; stroke: #ff0000"/>
     <use xlink:href="#maf3247baa0" x="174.96" y="246.24" style="fill: #ff0000; stroke: #ff0000"/>
     <use xlink:href="#maf3247baa0" x="181.047273" y="244.350785" style="fill: #ff0000; stroke: #ff0000"/>
     <use xlink:href="#maf3247baa0" x="187.134545" y="242.381274" style="fill: #ff0000; stroke: #ff0000"/>
     <use xlink:href="#maf3247baa0" x="193.221818" y="238.325227" style="fill: #ff0000; stroke: #ff0000"/>
     <use xlink:href="#maf3247baa0" x="199.309091" y="240.07247" style="fill: #ff0000; stroke: #ff0000"/>
     <use xlink:href="#maf3247baa0" x="205.396364" y="230.661027" style="fill: #ff0000; stroke: #ff0000"/>
     <use xlink:href="#maf3247baa0" x="211.483636" y="243.899264" style="fill: #ff0000; stroke: #ff0000"/>
     <use xlink:href="#maf3247baa0" x="217.570909" y="191.364842" style="fill: #ff0000; stroke: #ff0000"/>
     <use xlink:href="#maf3247baa0" x="223.658182" y="242.667234" style="fill: #ff0000; stroke: #ff0000"/>
     <use xlink:href="#maf3247baa0" x="229.745455" y="245.303227" style="fill: #ff0000; stroke: #ff0000"/>
     <use xlink:href="#maf3247baa0" x="235.832727" y="245.998456" style="fill: #ff0000; stroke: #ff0000"/>
     <use xlink:href="#maf3247baa0" x="241.92" y="245.921622" style="fill: #ff0000; stroke: #ff0000"/>
     <use xlink:href="#maf3247baa0" x="248.007273" y="246.074834" style="fill: #ff0000; stroke: #ff0000"/>
     <use xlink:href="#maf3247baa0" x="254.094545" y="245.594596" style="fill: #ff0000; stroke: #ff0000"/>
     <use xlink:href="#maf3247baa0" x="260.181818" y="246.24" style="fill: #ff0000; stroke: #ff0000"/>
     <use xlink:href="#maf3247baa0" x="266.269091" y="245.553628" style="fill: #ff0000; stroke: #ff0000"/>
     <use xlink:href="#maf3247baa0" x="272.356364" y="234.150368" style="fill: #ff0000; stroke: #ff0000"/>
     <use xlink:href="#maf3247baa0" x="278.443636" y="245.3081" style="fill: #ff0000; stroke: #ff0000"/>
     <use xlink:href="#maf3247baa0" x="284.530909" y="246.24" style="fill: #ff0000; stroke: #ff0000"/>
     <use xlink:href="#maf3247baa0" x="290.618182" y="246.24" style="fill: #ff0000; stroke: #ff0000"/>
     <use xlink:href="#maf3247baa0" x="296.705455" y="245.153687" style="fill: #ff0000; stroke: #ff0000"/>
     <use xlink:href="#maf3247baa0" x="302.792727" y="246.24" style="fill: #ff0000; stroke: #ff0000"/>
     <use xlink:href="#maf3247baa0" x="308.88" y="244.790422" style="fill: #ff0000; stroke: #ff0000"/>
     <use xlink:href="#maf3247baa0" x="314.967273" y="246.24" style="fill: #ff0000; stroke: #ff0000"/>
     <use xlink:href="#maf3247baa0" x="321.054545" y="239.321017" style="fill: #ff0000; stroke: #ff0000"/>
     <use xlink:href="#maf3247baa0" x="327.141818" y="238.152655" style="fill: #ff0000; stroke: #ff0000"/>
     <use xlink:href="#maf3247baa0" x="333.229091" y="232.099161" style="fill: #ff0000; stroke: #ff0000"/>
     <use xlink:href="#maf3247baa0" x="339.316364" y="237.246783" style="fill: #ff0000; stroke: #ff0000"/>
     <use xlink:href="#maf3247baa0" x="345.403636" y="221.041397" style="fill: #ff0000; stroke: #ff0000"/>
     <use xlink:href="#maf3247baa0" x="351.490909" y="245.250507" style="fill: #ff0000; stroke: #ff0000"/>
     <use xlink:href="#maf3247baa0" x="357.578182" y="188.900299" style="fill: #ff0000; stroke: #ff0000"/>
     <use xlink:href="#maf3247baa0" x="363.665455" y="240.086254" style="fill: #ff0000; stroke: #ff0000"/>
     <use xlink:href="#maf3247baa0" x="369.752727" y="246.24" style="fill: #ff0000; stroke: #ff0000"/>
     <use xlink:href="#maf3247baa0" x="375.84" y="241.801138" style="fill: #ff0000; stroke: #ff0000"/>
     <use xlink:href="#maf3247baa0" x="381.927273" y="231.171233" style="fill: #ff0000; stroke: #ff0000"/>
     <use xlink:href="#maf3247baa0" x="388.014545" y="239.046857" style="fill: #ff0000; stroke: #ff0000"/>
     <use xlink:href="#maf3247baa0" x="394.101818" y="245.03361" style="fill: #ff0000; stroke: #ff0000"/>
     <use xlink:href="#maf3247baa0" x="400.189091" y="162.833747" style="fill: #ff0000; stroke: #ff0000"/>
     <use xlink:href="#maf3247baa0" x="406.276364" y="206.984658" style="fill: #ff0000; stroke: #ff0000"/>
     <use xlink:href="#maf3247baa0" x="412.363636" y="222.452032" style="fill: #ff0000; stroke: #ff0000"/>
     <use xlink:href="#maf3247baa0" x="418.450909" y="109.082819" style="fill: #ff0000; stroke: #ff0000"/>
     <use xlink:href="#maf3247baa0" x="424.538182" y="221.068781" style="fill: #ff0000; stroke: #ff0000"/>
     <use xlink:href="#maf3247baa0" x="430.625455" y="182.767976" style="fill: #ff0000; stroke: #ff0000"/>
     <use xlink:href="#maf3247baa0" x="436.712727" y="194.807332" style="fill: #ff0000; stroke: #ff0000"/>
     <use xlink:href="#maf3247baa0" x="442.8" y="222.723972" style="fill: #ff0000; stroke: #ff0000"/>
     <use xlink:href="#maf3247baa0" x="448.887273" y="44.64" style="fill: #ff0000; stroke: #ff0000"/>
     <use xlink:href="#maf3247baa0" x="454.974545" y="206.239448" style="fill: #ff0000; stroke: #ff0000"/>
     <use xlink:href="#maf3247baa0" x="461.061818" y="201.484106" style="fill: #ff0000; stroke: #ff0000"/>
     <use xlink:href="#maf3247baa0" x="467.149091" y="182.358338" style="fill: #ff0000; stroke: #ff0000"/>
     <use xlink:href="#maf3247baa0" x="473.236364" y="174.466276" style="fill: #ff0000; stroke: #ff0000"/>
     <use xlink:href="#maf3247baa0" x="479.323636" y="188.452035" style="fill: #ff0000; stroke: #ff0000"/>
     <use xlink:href="#maf3247baa0" x="485.410909" y="207.732684" style="fill: #ff0000; stroke: #ff0000"/>
     <use xlink:href="#maf3247baa0" x="491.498182" y="189.479777" style="fill: #ff0000; stroke: #ff0000"/>
     <use xlink:href="#maf3247baa0" x="497.585455" y="190.269481" style="fill: #ff0000; stroke: #ff0000"/>
     <use xlink:href="#maf3247baa0" x="503.672727" y="136.153479" style="fill: #ff0000; stroke: #ff0000"/>
     <use xlink:href="#maf3247baa0" x="509.76" y="135.743866" style="fill: #ff0000; stroke: #ff0000"/>
     <use xlink:href="#maf3247baa0" x="515.847273" y="204.264379" style="fill: #ff0000; stroke: #ff0000"/>
     <use xlink:href="#maf3247baa0" x="521.934545" y="190.638905" style="fill: #ff0000; stroke: #ff0000"/>
     <use xlink:href="#maf3247baa0" x="528.021818" y="183.248587" style="fill: #ff0000; stroke: #ff0000"/>
     <use xlink:href="#maf3247baa0" x="534.109091" y="183.799963" style="fill: #ff0000; stroke: #ff0000"/>
     <use xlink:href="#maf3247baa0" x="540.196364" y="195.891851" style="fill: #ff0000; stroke: #ff0000"/>
     <use xlink:href="#maf3247baa0" x="546.283636" y="216.28554" style="fill: #ff0000; stroke: #ff0000"/>
     <use xlink:href="#maf3247baa0" x="552.370909" y="201.093915" style="fill: #ff0000; stroke: #ff0000"/>
     <use xlink:href="#maf3247baa0" x="558.458182" y="199.645383" style="fill: #ff0000; stroke: #ff0000"/>
     <use xlink:href="#maf3247baa0" x="564.545455" y="189.032387" style="fill: #ff0000; stroke: #ff0000"/>
     <use xlink:href="#maf3247baa0" x="570.632727" y="119.523844" style="fill: #ff0000; stroke: #ff0000"/>
     <use xlink:href="#maf3247baa0" x="576.72" y="216.846363" style="fill: #ff0000; stroke: #ff0000"/>
     <use xlink:href="#maf3247baa0" x="582.807273" y="133.045332" style="fill: #ff0000; stroke: #ff0000"/>
     <use xlink:href="#maf3247baa0" x="588.894545" y="177.483527" style="fill: #ff0000; stroke: #ff0000"/>
     <use xlink:href="#maf3247baa0" x="594.981818" y="167.768674" style="fill: #ff0000; stroke: #ff0000"/>
     <use xlink:href="#maf3247baa0" x="601.069091" y="187.141612" style="fill: #ff0000; stroke: #ff0000"/>
     <use xlink:href="#maf3247baa0" x="607.156364" y="216.907576" style="fill: #ff0000; stroke: #ff0000"/>
     <use xlink:href="#maf3247baa0" x="613.243636" y="223.228036" style="fill: #ff0000; stroke: #ff0000"/>
     <use xlink:href="#maf3247baa0" x="619.330909" y="131.784629" style="fill: #ff0000; stroke: #ff0000"/>
     <use xlink:href="#maf3247baa0" x="625.418182" y="225.241215" style="fill: #ff0000; stroke: #ff0000"/>
     <use xlink:href="#maf3247baa0" x="631.505455" y="195.627339" style="fill: #ff0000; stroke: #ff0000"/>
     <use xlink:href="#maf3247baa0" x="637.592727" y="155.811765" style="fill: #ff0000; stroke: #ff0000"/>
     <use xlink:href="#maf3247baa0" x="643.68" y="173.859765" style="fill: #ff0000; stroke: #ff0000"/>
     <use xlink:href="#maf3247baa0" x="649.767273" y="173.491633" style="fill: #ff0000; stroke: #ff0000"/>
     <use xlink:href="#maf3247baa0" x="655.854545" y="219.485342" style="fill: #ff0000; stroke: #ff0000"/>
     <use xlink:href="#maf3247baa0" x="661.941818" y="218.156112" style="fill: #ff0000; stroke: #ff0000"/>
     <use xlink:href="#maf3247baa0" x="668.029091" y="153.263811" style="fill: #ff0000; stroke: #ff0000"/>
     <use xlink:href="#maf3247baa0" x="674.116364" y="226.609956" style="fill: #ff0000; stroke: #ff0000"/>
     <use xlink:href="#maf3247baa0" x="680.203636" y="195.919036" style="fill: #ff0000; stroke: #ff0000"/>
     <use xlink:href="#maf3247baa0" x="686.290909" y="216.891551" style="fill: #ff0000; stroke: #ff0000"/>
     <use xlink:href="#maf3247baa0" x="692.378182" y="228.374454" style="fill: #ff0000; stroke: #ff0000"/>
     <use xlink:href="#maf3247baa0" x="698.465455" y="220.886141" style="fill: #ff0000; stroke: #ff0000"/>
     <use xlink:href="#maf3247baa0" x="704.552727" y="155.909075" style="fill: #ff0000; stroke: #ff0000"/>
     <use xlink:href="#maf3247baa0" x="710.64" y="170.985544" style="fill: #ff0000; stroke: #ff0000"/>
     <use xlink:href="#maf3247baa0" x="716.727273" y="200.10251" style="fill: #ff0000; stroke: #ff0000"/>
     <use xlink:href="#maf3247baa0" x="722.814545" y="140.279058" style="fill: #ff0000; stroke: #ff0000"/>
     <use xlink:href="#maf3247baa0" x="728.901818" y="199.434498" style="fill: #ff0000; stroke: #ff0000"/>
     <use xlink:href="#maf3247baa0" x="734.989091" y="128.154654" style="fill: #ff0000; stroke: #ff0000"/>
     <use xlink:href="#maf3247baa0" x="741.076364" y="196.909987" style="fill: #ff0000; stroke: #ff0000"/>
     <use xlink:href="#maf3247baa0" x="747.163636" y="177.336038" style="fill: #ff0000; stroke: #ff0000"/>
    </g>
   </g>
   <g id="matplotlib.axis_1">
    <g id="xtick_1">
     <g id="line2d_1">
      <defs>
       <path id="m64898bdd77" d="M 0 0 
L 0 3.5 
" style="stroke: #000000; stroke-width: 0.8"/>
      </defs>
      <g>
       <use xlink:href="#m64898bdd77" x="138.436364" y="256.32" style="stroke: #000000; stroke-width: 0.8"/>
      </g>
     </g>
     <g id="text_1">
      <!-- 0 -->
      <g transform="translate(135.255114 270.918437)scale(0.1 -0.1)">
       <defs>
        <path id="DejaVuSans-30" d="M 2034 4250 
Q 1547 4250 1301 3770 
Q 1056 3291 1056 2328 
Q 1056 1369 1301 889 
Q 1547 409 2034 409 
Q 2525 409 2770 889 
Q 3016 1369 3016 2328 
Q 3016 3291 2770 3770 
Q 2525 4250 2034 4250 
z
M 2034 4750 
Q 2819 4750 3233 4129 
Q 3647 3509 3647 2328 
Q 3647 1150 3233 529 
Q 2819 -91 2034 -91 
Q 1250 -91 836 529 
Q 422 1150 422 2328 
Q 422 3509 836 4129 
Q 1250 4750 2034 4750 
z
" transform="scale(0.015625)"/>
       </defs>
       <use xlink:href="#DejaVuSans-30"/>
      </g>
     </g>
    </g>
    <g id="xtick_2">
     <g id="line2d_2">
      <g>
       <use xlink:href="#m64898bdd77" x="260.181818" y="256.32" style="stroke: #000000; stroke-width: 0.8"/>
      </g>
     </g>
     <g id="text_2">
      <!-- 20 -->
      <g transform="translate(253.819318 270.918437)scale(0.1 -0.1)">
       <defs>
        <path id="DejaVuSans-32" d="M 1228 531 
L 3431 531 
L 3431 0 
L 469 0 
L 469 531 
Q 828 903 1448 1529 
Q 2069 2156 2228 2338 
Q 2531 2678 2651 2914 
Q 2772 3150 2772 3378 
Q 2772 3750 2511 3984 
Q 2250 4219 1831 4219 
Q 1534 4219 1204 4116 
Q 875 4013 500 3803 
L 500 4441 
Q 881 4594 1212 4672 
Q 1544 4750 1819 4750 
Q 2544 4750 2975 4387 
Q 3406 4025 3406 3419 
Q 3406 3131 3298 2873 
Q 3191 2616 2906 2266 
Q 2828 2175 2409 1742 
Q 1991 1309 1228 531 
z
" transform="scale(0.015625)"/>
       </defs>
       <use xlink:href="#DejaVuSans-32"/>
       <use xlink:href="#DejaVuSans-30" x="63.623047"/>
      </g>
     </g>
    </g>
    <g id="xtick_3">
     <g id="line2d_3">
      <g>
       <use xlink:href="#m64898bdd77" x="381.927273" y="256.32" style="stroke: #000000; stroke-width: 0.8"/>
      </g>
     </g>
     <g id="text_3">
      <!-- 40 -->
      <g transform="translate(375.564773 270.918437)scale(0.1 -0.1)">
       <defs>
        <path id="DejaVuSans-34" d="M 2419 4116 
L 825 1625 
L 2419 1625 
L 2419 4116 
z
M 2253 4666 
L 3047 4666 
L 3047 1625 
L 3713 1625 
L 3713 1100 
L 3047 1100 
L 3047 0 
L 2419 0 
L 2419 1100 
L 313 1100 
L 313 1709 
L 2253 4666 
z
" transform="scale(0.015625)"/>
       </defs>
       <use xlink:href="#DejaVuSans-34"/>
       <use xlink:href="#DejaVuSans-30" x="63.623047"/>
      </g>
     </g>
    </g>
    <g id="xtick_4">
     <g id="line2d_4">
      <g>
       <use xlink:href="#m64898bdd77" x="503.672727" y="256.32" style="stroke: #000000; stroke-width: 0.8"/>
      </g>
     </g>
     <g id="text_4">
      <!-- 60 -->
      <g transform="translate(497.310227 270.918437)scale(0.1 -0.1)">
       <defs>
        <path id="DejaVuSans-36" d="M 2113 2584 
Q 1688 2584 1439 2293 
Q 1191 2003 1191 1497 
Q 1191 994 1439 701 
Q 1688 409 2113 409 
Q 2538 409 2786 701 
Q 3034 994 3034 1497 
Q 3034 2003 2786 2293 
Q 2538 2584 2113 2584 
z
M 3366 4563 
L 3366 3988 
Q 3128 4100 2886 4159 
Q 2644 4219 2406 4219 
Q 1781 4219 1451 3797 
Q 1122 3375 1075 2522 
Q 1259 2794 1537 2939 
Q 1816 3084 2150 3084 
Q 2853 3084 3261 2657 
Q 3669 2231 3669 1497 
Q 3669 778 3244 343 
Q 2819 -91 2113 -91 
Q 1303 -91 875 529 
Q 447 1150 447 2328 
Q 447 3434 972 4092 
Q 1497 4750 2381 4750 
Q 2619 4750 2861 4703 
Q 3103 4656 3366 4563 
z
" transform="scale(0.015625)"/>
       </defs>
       <use xlink:href="#DejaVuSans-36"/>
       <use xlink:href="#DejaVuSans-30" x="63.623047"/>
      </g>
     </g>
    </g>
    <g id="xtick_5">
     <g id="line2d_5">
      <g>
       <use xlink:href="#m64898bdd77" x="625.418182" y="256.32" style="stroke: #000000; stroke-width: 0.8"/>
      </g>
     </g>
     <g id="text_5">
      <!-- 80 -->
      <g transform="translate(619.055682 270.918437)scale(0.1 -0.1)">
       <defs>
        <path id="DejaVuSans-38" d="M 2034 2216 
Q 1584 2216 1326 1975 
Q 1069 1734 1069 1313 
Q 1069 891 1326 650 
Q 1584 409 2034 409 
Q 2484 409 2743 651 
Q 3003 894 3003 1313 
Q 3003 1734 2745 1975 
Q 2488 2216 2034 2216 
z
M 1403 2484 
Q 997 2584 770 2862 
Q 544 3141 544 3541 
Q 544 4100 942 4425 
Q 1341 4750 2034 4750 
Q 2731 4750 3128 4425 
Q 3525 4100 3525 3541 
Q 3525 3141 3298 2862 
Q 3072 2584 2669 2484 
Q 3125 2378 3379 2068 
Q 3634 1759 3634 1313 
Q 3634 634 3220 271 
Q 2806 -91 2034 -91 
Q 1263 -91 848 271 
Q 434 634 434 1313 
Q 434 1759 690 2068 
Q 947 2378 1403 2484 
z
M 1172 3481 
Q 1172 3119 1398 2916 
Q 1625 2713 2034 2713 
Q 2441 2713 2670 2916 
Q 2900 3119 2900 3481 
Q 2900 3844 2670 4047 
Q 2441 4250 2034 4250 
Q 1625 4250 1398 4047 
Q 1172 3844 1172 3481 
z
" transform="scale(0.015625)"/>
       </defs>
       <use xlink:href="#DejaVuSans-38"/>
       <use xlink:href="#DejaVuSans-30" x="63.623047"/>
      </g>
     </g>
    </g>
    <g id="xtick_6">
     <g id="line2d_6">
      <g>
       <use xlink:href="#m64898bdd77" x="747.163636" y="256.32" style="stroke: #000000; stroke-width: 0.8"/>
      </g>
     </g>
     <g id="text_6">
      <!-- 100 -->
      <g transform="translate(737.619886 270.918437)scale(0.1 -0.1)">
       <defs>
        <path id="DejaVuSans-31" d="M 794 531 
L 1825 531 
L 1825 4091 
L 703 3866 
L 703 4441 
L 1819 4666 
L 2450 4666 
L 2450 531 
L 3481 531 
L 3481 0 
L 794 0 
L 794 531 
z
" transform="scale(0.015625)"/>
       </defs>
       <use xlink:href="#DejaVuSans-31"/>
       <use xlink:href="#DejaVuSans-30" x="63.623047"/>
       <use xlink:href="#DejaVuSans-30" x="127.246094"/>
      </g>
     </g>
    </g>
   </g>
   <g id="matplotlib.axis_2">
    <g id="ytick_1">
     <g id="line2d_7">
      <defs>
       <path id="m38c3878911" d="M 0 0 
L -3.5 0 
" style="stroke: #000000; stroke-width: 0.8"/>
      </defs>
      <g>
       <use xlink:href="#m38c3878911" x="108" y="246.24" style="stroke: #000000; stroke-width: 0.8"/>
      </g>
     </g>
     <g id="text_7">
      <!-- 0.0 -->
      <g transform="translate(85.096875 250.039219)scale(0.1 -0.1)">
       <defs>
        <path id="DejaVuSans-2e" d="M 684 794 
L 1344 794 
L 1344 0 
L 684 0 
L 684 794 
z
" transform="scale(0.015625)"/>
       </defs>
       <use xlink:href="#DejaVuSans-30"/>
       <use xlink:href="#DejaVuSans-2e" x="63.623047"/>
       <use xlink:href="#DejaVuSans-30" x="95.410156"/>
      </g>
     </g>
    </g>
    <g id="ytick_2">
     <g id="line2d_8">
      <g>
       <use xlink:href="#m38c3878911" x="108" y="209.611945" style="stroke: #000000; stroke-width: 0.8"/>
      </g>
     </g>
     <g id="text_8">
      <!-- 0.5 -->
      <g transform="translate(85.096875 213.411164)scale(0.1 -0.1)">
       <defs>
        <path id="DejaVuSans-35" d="M 691 4666 
L 3169 4666 
L 3169 4134 
L 1269 4134 
L 1269 2991 
Q 1406 3038 1543 3061 
Q 1681 3084 1819 3084 
Q 2600 3084 3056 2656 
Q 3513 2228 3513 1497 
Q 3513 744 3044 326 
Q 2575 -91 1722 -91 
Q 1428 -91 1123 -41 
Q 819 9 494 109 
L 494 744 
Q 775 591 1075 516 
Q 1375 441 1709 441 
Q 2250 441 2565 725 
Q 2881 1009 2881 1497 
Q 2881 1984 2565 2268 
Q 2250 2553 1709 2553 
Q 1456 2553 1204 2497 
Q 953 2441 691 2322 
L 691 4666 
z
" transform="scale(0.015625)"/>
       </defs>
       <use xlink:href="#DejaVuSans-30"/>
       <use xlink:href="#DejaVuSans-2e" x="63.623047"/>
       <use xlink:href="#DejaVuSans-35" x="95.410156"/>
      </g>
     </g>
    </g>
    <g id="ytick_3">
     <g id="line2d_9">
      <g>
       <use xlink:href="#m38c3878911" x="108" y="172.98389" style="stroke: #000000; stroke-width: 0.8"/>
      </g>
     </g>
     <g id="text_9">
      <!-- 1.0 -->
      <g transform="translate(85.096875 176.783109)scale(0.1 -0.1)">
       <use xlink:href="#DejaVuSans-31"/>
       <use xlink:href="#DejaVuSans-2e" x="63.623047"/>
       <use xlink:href="#DejaVuSans-30" x="95.410156"/>
      </g>
     </g>
    </g>
    <g id="ytick_4">
     <g id="line2d_10">
      <g>
       <use xlink:href="#m38c3878911" x="108" y="136.355835" style="stroke: #000000; stroke-width: 0.8"/>
      </g>
     </g>
     <g id="text_10">
      <!-- 1.5 -->
      <g transform="translate(85.096875 140.155054)scale(0.1 -0.1)">
       <use xlink:href="#DejaVuSans-31"/>
       <use xlink:href="#DejaVuSans-2e" x="63.623047"/>
       <use xlink:href="#DejaVuSans-35" x="95.410156"/>
      </g>
     </g>
    </g>
    <g id="ytick_5">
     <g id="line2d_11">
      <g>
       <use xlink:href="#m38c3878911" x="108" y="99.72778" style="stroke: #000000; stroke-width: 0.8"/>
      </g>
     </g>
     <g id="text_11">
      <!-- 2.0 -->
      <g transform="translate(85.096875 103.526999)scale(0.1 -0.1)">
       <use xlink:href="#DejaVuSans-32"/>
       <use xlink:href="#DejaVuSans-2e" x="63.623047"/>
       <use xlink:href="#DejaVuSans-30" x="95.410156"/>
      </g>
     </g>
    </g>
    <g id="ytick_6">
     <g id="line2d_12">
      <g>
       <use xlink:href="#m38c3878911" x="108" y="63.099726" style="stroke: #000000; stroke-width: 0.8"/>
      </g>
     </g>
     <g id="text_12">
      <!-- 2.5 -->
      <g transform="translate(85.096875 66.898944)scale(0.1 -0.1)">
       <use xlink:href="#DejaVuSans-32"/>
       <use xlink:href="#DejaVuSans-2e" x="63.623047"/>
       <use xlink:href="#DejaVuSans-35" x="95.410156"/>
      </g>
     </g>
    </g>
   </g>
   <g id="line2d_13">
    <path d="M 138.436364 241.457281 
L 144.523636 241.998808 
L 150.610909 242.451735 
L 156.698182 242.818169 
L 162.785455 243.10022 
L 168.872727 243.299995 
L 174.96 243.419603 
L 181.047273 243.461153 
L 187.134545 243.426753 
L 193.221818 243.318512 
L 199.309091 243.138538 
L 205.396364 242.888939 
L 211.483636 242.571824 
L 217.570909 242.189301 
L 223.658182 241.743479 
L 229.745455 241.236467 
L 235.832727 240.670372 
L 241.92 240.047303 
L 248.007273 239.369369 
L 254.094545 238.638678 
L 260.181818 237.857339 
L 266.269091 237.02746 
L 272.356364 236.151149 
L 278.443636 235.230515 
L 284.530909 234.267666 
L 290.618182 233.264712 
L 296.705455 232.223759 
L 302.792727 231.146917 
L 308.88 230.036295 
L 314.967273 228.894 
L 321.054545 227.722141 
L 327.141818 226.522827 
L 333.229091 225.298166 
L 339.316364 224.050267 
L 345.403636 222.781237 
L 351.490909 221.493185 
L 357.578182 220.188221 
L 363.665455 218.868452 
L 369.752727 217.535986 
L 375.84 216.192933 
L 381.927273 214.841401 
L 388.014545 213.483497 
L 394.101818 212.121332 
L 400.189091 210.757012 
L 406.276364 209.392647 
L 412.363636 208.030344 
L 418.450909 206.672214 
L 424.538182 205.320363 
L 430.625455 203.9769 
L 436.712727 202.643934 
L 442.8 201.323573 
L 448.887273 200.017926 
L 454.974545 198.729101 
L 461.061818 197.459207 
L 467.149091 196.210352 
L 473.236364 194.984644 
L 479.323636 193.784193 
L 485.410909 192.611105 
L 491.498182 191.467491 
L 497.585455 190.355458 
L 503.672727 189.277115 
L 509.76 188.23457 
L 515.847273 187.229931 
L 521.934545 186.265308 
L 528.021818 185.342809 
L 534.109091 184.464541 
L 540.196364 183.632615 
L 546.283636 182.849137 
L 552.370909 182.116216 
L 558.458182 181.435962 
L 564.545455 180.810481 
L 570.632727 180.241884 
L 576.72 179.732278 
L 582.807273 179.283771 
L 588.894545 178.898473 
L 594.981818 178.578492 
L 601.069091 178.325935 
L 607.156364 178.142912 
L 613.243636 178.031531 
L 619.330909 177.993901 
L 625.418182 178.032129 
L 631.505455 178.148325 
L 637.592727 178.344597 
L 643.68 178.623052 
L 649.767273 178.985801 
L 655.854545 179.434951 
L 661.941818 179.97261 
L 668.029091 180.600888 
L 674.116364 181.321892 
L 680.203636 182.137731 
L 686.290909 183.050514 
L 692.378182 184.062349 
L 698.465455 185.175344 
L 704.552727 186.391607 
L 710.64 187.713249 
L 716.727273 189.142375 
L 722.814545 190.681097 
L 728.901818 192.33152 
L 734.989091 194.095755 
L 741.076364 195.97591 
L 747.163636 197.974092 
" clip-path="url(#p7733b0c7d8)" style="fill: none; stroke: #000000; stroke-width: 3; stroke-linecap: square"/>
   </g>
   <g id="patch_3">
    <path d="M 108 256.32 
L 108 34.56 
" style="fill: none; stroke: #000000; stroke-width: 0.8; stroke-linejoin: miter; stroke-linecap: square"/>
   </g>
   <g id="patch_4">
    <path d="M 777.6 256.32 
L 777.6 34.56 
" style="fill: none; stroke: #000000; stroke-width: 0.8; stroke-linejoin: miter; stroke-linecap: square"/>
   </g>
   <g id="patch_5">
    <path d="M 108 256.32 
L 777.6 256.32 
" style="fill: none; stroke: #000000; stroke-width: 0.8; stroke-linejoin: miter; stroke-linecap: square"/>
   </g>
   <g id="patch_6">
    <path d="M 108 34.56 
L 777.6 34.56 
" style="fill: none; stroke: #000000; stroke-width: 0.8; stroke-linejoin: miter; stroke-linecap: square"/>
   </g>
   <g id="text_13">
    <!-- Sftpb -->
    <g transform="translate(790.992 160.616562)scale(0.55 -0.55)">
     <defs>
      <path id="DejaVuSans-53" d="M 3425 4513 
L 3425 3897 
Q 3066 4069 2747 4153 
Q 2428 4238 2131 4238 
Q 1616 4238 1336 4038 
Q 1056 3838 1056 3469 
Q 1056 3159 1242 3001 
Q 1428 2844 1947 2747 
L 2328 2669 
Q 3034 2534 3370 2195 
Q 3706 1856 3706 1288 
Q 3706 609 3251 259 
Q 2797 -91 1919 -91 
Q 1588 -91 1214 -16 
Q 841 59 441 206 
L 441 856 
Q 825 641 1194 531 
Q 1563 422 1919 422 
Q 2459 422 2753 634 
Q 3047 847 3047 1241 
Q 3047 1584 2836 1778 
Q 2625 1972 2144 2069 
L 1759 2144 
Q 1053 2284 737 2584 
Q 422 2884 422 3419 
Q 422 4038 858 4394 
Q 1294 4750 2059 4750 
Q 2388 4750 2728 4690 
Q 3069 4631 3425 4513 
z
" transform="scale(0.015625)"/>
      <path id="DejaVuSans-66" d="M 2375 4863 
L 2375 4384 
L 1825 4384 
Q 1516 4384 1395 4259 
Q 1275 4134 1275 3809 
L 1275 3500 
L 2222 3500 
L 2222 3053 
L 1275 3053 
L 1275 0 
L 697 0 
L 697 3053 
L 147 3053 
L 147 3500 
L 697 3500 
L 697 3744 
Q 697 4328 969 4595 
Q 1241 4863 1831 4863 
L 2375 4863 
z
" transform="scale(0.015625)"/>
      <path id="DejaVuSans-74" d="M 1172 4494 
L 1172 3500 
L 2356 3500 
L 2356 3053 
L 1172 3053 
L 1172 1153 
Q 1172 725 1289 603 
Q 1406 481 1766 481 
L 2356 481 
L 2356 0 
L 1766 0 
Q 1100 0 847 248 
Q 594 497 594 1153 
L 594 3053 
L 172 3053 
L 172 3500 
L 594 3500 
L 594 4494 
L 1172 4494 
z
" transform="scale(0.015625)"/>
      <path id="DejaVuSans-70" d="M 1159 525 
L 1159 -1331 
L 581 -1331 
L 581 3500 
L 1159 3500 
L 1159 2969 
Q 1341 3281 1617 3432 
Q 1894 3584 2278 3584 
Q 2916 3584 3314 3078 
Q 3713 2572 3713 1747 
Q 3713 922 3314 415 
Q 2916 -91 2278 -91 
Q 1894 -91 1617 61 
Q 1341 213 1159 525 
z
M 3116 1747 
Q 3116 2381 2855 2742 
Q 2594 3103 2138 3103 
Q 1681 3103 1420 2742 
Q 1159 2381 1159 1747 
Q 1159 1113 1420 752 
Q 1681 391 2138 391 
Q 2594 391 2855 752 
Q 3116 1113 3116 1747 
z
" transform="scale(0.015625)"/>
      <path id="DejaVuSans-62" d="M 3116 1747 
Q 3116 2381 2855 2742 
Q 2594 3103 2138 3103 
Q 1681 3103 1420 2742 
Q 1159 2381 1159 1747 
Q 1159 1113 1420 752 
Q 1681 391 2138 391 
Q 2594 391 2855 752 
Q 3116 1113 3116 1747 
z
M 1159 2969 
Q 1341 3281 1617 3432 
Q 1894 3584 2278 3584 
Q 2916 3584 3314 3078 
Q 3713 2572 3713 1747 
Q 3713 922 3314 415 
Q 2916 -91 2278 -91 
Q 1894 -91 1617 61 
Q 1341 213 1159 525 
L 1159 0 
L 581 0 
L 581 4863 
L 1159 4863 
L 1159 2969 
z
" transform="scale(0.015625)"/>
     </defs>
     <use xlink:href="#DejaVuSans-53"/>
     <use xlink:href="#DejaVuSans-66" x="63.476562"/>
     <use xlink:href="#DejaVuSans-74" x="96.931641"/>
     <use xlink:href="#DejaVuSans-70" x="136.140625"/>
     <use xlink:href="#DejaVuSans-62" x="199.617188"/>
    </g>
   </g>
  </g>
 </g>
 <defs>
  <clipPath id="p7733b0c7d8">
   <rect x="108" y="34.56" width="669.6" height="221.76"/>
  </clipPath>
 </defs>
</svg>
