<?xml version="1.0" encoding="utf-8" standalone="no"?>
<!DOCTYPE svg PUBLIC "-//W3C//DTD SVG 1.1//EN"
  "http://www.w3.org/Graphics/SVG/1.1/DTD/svg11.dtd">
<svg xmlns:xlink="http://www.w3.org/1999/xlink" width="864pt" height="288pt" viewBox="0 0 864 288" xmlns="http://www.w3.org/2000/svg" version="1.1">
 <metadata>
  <rdf:RDF xmlns:dc="http://purl.org/dc/elements/1.1/" xmlns:cc="http://creativecommons.org/ns#" xmlns:rdf="http://www.w3.org/1999/02/22-rdf-syntax-ns#">
   <cc:Work>
    <dc:type rdf:resource="http://purl.org/dc/dcmitype/StillImage"/>
    <dc:date>2024-01-15T22:02:37.012818</dc:date>
    <dc:format>image/svg+xml</dc:format>
    <dc:creator>
     <cc:Agent>
      <dc:title>Matplotlib v3.5.3, https://matplotlib.org/</dc:title>
     </cc:Agent>
    </dc:creator>
   </cc:Work>
  </rdf:RDF>
 </metadata>
 <defs>
  <style type="text/css">*{stroke-linejoin: round; stroke-linecap: butt}</style>
 </defs>
 <g id="figure_1">
  <g id="patch_1">
   <path d="M 0 288 
L 864 288 
L 864 0 
L 0 0 
L 0 288 
z
" style="fill: none"/>
  </g>
  <g id="axes_1">
   <g id="patch_2">
    <path d="M 108 256.32 
L 777.6 256.32 
L 777.6 34.56 
L 108 34.56 
L 108 256.32 
z
" style="fill: none"/>
   </g>
   <g id="PathCollection_1">
    <defs>
     <path id="m6ca7a97934" d="M 0 1.118034 
C 0.296506 1.118034 0.580908 1.000231 0.790569 0.790569 
C 1.000231 0.580908 1.118034 0.296506 1.118034 0 
C 1.118034 -0.296506 1.000231 -0.580908 0.790569 -0.790569 
C 0.580908 -1.000231 0.296506 -1.118034 0 -1.118034 
C -0.296506 -1.118034 -0.580908 -1.000231 -0.790569 -0.790569 
C -1.000231 -0.580908 -1.118034 -0.296506 -1.118034 0 
C -1.118034 0.296506 -1.000231 0.580908 -0.790569 0.790569 
C -0.580908 1.000231 -0.296506 1.118034 0 1.118034 
z
" style="stroke: #ff0000"/>
    </defs>
    <g clip-path="url(#p9955562d7c)">
     <use xlink:href="#m6ca7a97934" x="138.436364" y="200.234213" style="fill: #ff0000; stroke: #ff0000"/>
     <use xlink:href="#m6ca7a97934" x="144.523636" y="148.06541" style="fill: #ff0000; stroke: #ff0000"/>
     <use xlink:href="#m6ca7a97934" x="150.610909" y="231.833278" style="fill: #ff0000; stroke: #ff0000"/>
     <use xlink:href="#m6ca7a97934" x="156.698182" y="165.760101" style="fill: #ff0000; stroke: #ff0000"/>
     <use xlink:href="#m6ca7a97934" x="162.785455" y="161.15126" style="fill: #ff0000; stroke: #ff0000"/>
     <use xlink:href="#m6ca7a97934" x="168.872727" y="156.652016" style="fill: #ff0000; stroke: #ff0000"/>
     <use xlink:href="#m6ca7a97934" x="174.96" y="197.806582" style="fill: #ff0000; stroke: #ff0000"/>
     <use xlink:href="#m6ca7a97934" x="181.047273" y="152.395388" style="fill: #ff0000; stroke: #ff0000"/>
     <use xlink:href="#m6ca7a97934" x="187.134545" y="147.476937" style="fill: #ff0000; stroke: #ff0000"/>
     <use xlink:href="#m6ca7a97934" x="193.221818" y="132.584638" style="fill: #ff0000; stroke: #ff0000"/>
     <use xlink:href="#m6ca7a97934" x="199.309091" y="156.290176" style="fill: #ff0000; stroke: #ff0000"/>
     <use xlink:href="#m6ca7a97934" x="205.396364" y="156.454496" style="fill: #ff0000; stroke: #ff0000"/>
     <use xlink:href="#m6ca7a97934" x="211.483636" y="131.234593" style="fill: #ff0000; stroke: #ff0000"/>
     <use xlink:href="#m6ca7a97934" x="217.570909" y="122.375958" style="fill: #ff0000; stroke: #ff0000"/>
     <use xlink:href="#m6ca7a97934" x="223.658182" y="128.406309" style="fill: #ff0000; stroke: #ff0000"/>
     <use xlink:href="#m6ca7a97934" x="229.745455" y="177.934795" style="fill: #ff0000; stroke: #ff0000"/>
     <use xlink:href="#m6ca7a97934" x="235.832727" y="172.836783" style="fill: #ff0000; stroke: #ff0000"/>
     <use xlink:href="#m6ca7a97934" x="241.92" y="143.017116" style="fill: #ff0000; stroke: #ff0000"/>
     <use xlink:href="#m6ca7a97934" x="248.007273" y="162.06515" style="fill: #ff0000; stroke: #ff0000"/>
     <use xlink:href="#m6ca7a97934" x="254.094545" y="207.909432" style="fill: #ff0000; stroke: #ff0000"/>
     <use xlink:href="#m6ca7a97934" x="260.181818" y="178.605414" style="fill: #ff0000; stroke: #ff0000"/>
     <use xlink:href="#m6ca7a97934" x="266.269091" y="153.139417" style="fill: #ff0000; stroke: #ff0000"/>
     <use xlink:href="#m6ca7a97934" x="272.356364" y="130.417228" style="fill: #ff0000; stroke: #ff0000"/>
     <use xlink:href="#m6ca7a97934" x="278.443636" y="200.286018" style="fill: #ff0000; stroke: #ff0000"/>
     <use xlink:href="#m6ca7a97934" x="284.530909" y="151.115337" style="fill: #ff0000; stroke: #ff0000"/>
     <use xlink:href="#m6ca7a97934" x="290.618182" y="139.432874" style="fill: #ff0000; stroke: #ff0000"/>
     <use xlink:href="#m6ca7a97934" x="296.705455" y="117.150272" style="fill: #ff0000; stroke: #ff0000"/>
     <use xlink:href="#m6ca7a97934" x="302.792727" y="135.591636" style="fill: #ff0000; stroke: #ff0000"/>
     <use xlink:href="#m6ca7a97934" x="308.88" y="132.731162" style="fill: #ff0000; stroke: #ff0000"/>
     <use xlink:href="#m6ca7a97934" x="314.967273" y="178.251819" style="fill: #ff0000; stroke: #ff0000"/>
     <use xlink:href="#m6ca7a97934" x="321.054545" y="143.555188" style="fill: #ff0000; stroke: #ff0000"/>
     <use xlink:href="#m6ca7a97934" x="327.141818" y="169.845798" style="fill: #ff0000; stroke: #ff0000"/>
     <use xlink:href="#m6ca7a97934" x="333.229091" y="111.19507" style="fill: #ff0000; stroke: #ff0000"/>
     <use xlink:href="#m6ca7a97934" x="339.316364" y="107.296108" style="fill: #ff0000; stroke: #ff0000"/>
     <use xlink:href="#m6ca7a97934" x="345.403636" y="96.128128" style="fill: #ff0000; stroke: #ff0000"/>
     <use xlink:href="#m6ca7a97934" x="351.490909" y="189.725636" style="fill: #ff0000; stroke: #ff0000"/>
     <use xlink:href="#m6ca7a97934" x="357.578182" y="132.845408" style="fill: #ff0000; stroke: #ff0000"/>
     <use xlink:href="#m6ca7a97934" x="363.665455" y="138.687642" style="fill: #ff0000; stroke: #ff0000"/>
     <use xlink:href="#m6ca7a97934" x="369.752727" y="246.24" style="fill: #ff0000; stroke: #ff0000"/>
     <use xlink:href="#m6ca7a97934" x="375.84" y="152.801152" style="fill: #ff0000; stroke: #ff0000"/>
     <use xlink:href="#m6ca7a97934" x="381.927273" y="115.245235" style="fill: #ff0000; stroke: #ff0000"/>
     <use xlink:href="#m6ca7a97934" x="388.014545" y="101.745763" style="fill: #ff0000; stroke: #ff0000"/>
     <use xlink:href="#m6ca7a97934" x="394.101818" y="139.371897" style="fill: #ff0000; stroke: #ff0000"/>
     <use xlink:href="#m6ca7a97934" x="400.189091" y="44.64" style="fill: #ff0000; stroke: #ff0000"/>
     <use xlink:href="#m6ca7a97934" x="406.276364" y="89.984215" style="fill: #ff0000; stroke: #ff0000"/>
     <use xlink:href="#m6ca7a97934" x="412.363636" y="91.165811" style="fill: #ff0000; stroke: #ff0000"/>
     <use xlink:href="#m6ca7a97934" x="418.450909" y="94.574369" style="fill: #ff0000; stroke: #ff0000"/>
     <use xlink:href="#m6ca7a97934" x="424.538182" y="78.281699" style="fill: #ff0000; stroke: #ff0000"/>
     <use xlink:href="#m6ca7a97934" x="430.625455" y="78.757977" style="fill: #ff0000; stroke: #ff0000"/>
     <use xlink:href="#m6ca7a97934" x="436.712727" y="79.347802" style="fill: #ff0000; stroke: #ff0000"/>
     <use xlink:href="#m6ca7a97934" x="442.8" y="102.825755" style="fill: #ff0000; stroke: #ff0000"/>
     <use xlink:href="#m6ca7a97934" x="448.887273" y="144.978718" style="fill: #ff0000; stroke: #ff0000"/>
     <use xlink:href="#m6ca7a97934" x="454.974545" y="117.167176" style="fill: #ff0000; stroke: #ff0000"/>
     <use xlink:href="#m6ca7a97934" x="461.061818" y="64.03649" style="fill: #ff0000; stroke: #ff0000"/>
     <use xlink:href="#m6ca7a97934" x="467.149091" y="75.21913" style="fill: #ff0000; stroke: #ff0000"/>
     <use xlink:href="#m6ca7a97934" x="473.236364" y="107.246776" style="fill: #ff0000; stroke: #ff0000"/>
     <use xlink:href="#m6ca7a97934" x="479.323636" y="118.106615" style="fill: #ff0000; stroke: #ff0000"/>
     <use xlink:href="#m6ca7a97934" x="485.410909" y="107.053282" style="fill: #ff0000; stroke: #ff0000"/>
     <use xlink:href="#m6ca7a97934" x="491.498182" y="58.49277" style="fill: #ff0000; stroke: #ff0000"/>
     <use xlink:href="#m6ca7a97934" x="497.585455" y="110.280928" style="fill: #ff0000; stroke: #ff0000"/>
     <use xlink:href="#m6ca7a97934" x="503.672727" y="80.946243" style="fill: #ff0000; stroke: #ff0000"/>
     <use xlink:href="#m6ca7a97934" x="509.76" y="87.262987" style="fill: #ff0000; stroke: #ff0000"/>
     <use xlink:href="#m6ca7a97934" x="515.847273" y="101.52308" style="fill: #ff0000; stroke: #ff0000"/>
     <use xlink:href="#m6ca7a97934" x="521.934545" y="76.749717" style="fill: #ff0000; stroke: #ff0000"/>
     <use xlink:href="#m6ca7a97934" x="528.021818" y="87.788656" style="fill: #ff0000; stroke: #ff0000"/>
     <use xlink:href="#m6ca7a97934" x="534.109091" y="111.653136" style="fill: #ff0000; stroke: #ff0000"/>
     <use xlink:href="#m6ca7a97934" x="540.196364" y="60.775362" style="fill: #ff0000; stroke: #ff0000"/>
     <use xlink:href="#m6ca7a97934" x="546.283636" y="101.384652" style="fill: #ff0000; stroke: #ff0000"/>
     <use xlink:href="#m6ca7a97934" x="552.370909" y="113.592784" style="fill: #ff0000; stroke: #ff0000"/>
     <use xlink:href="#m6ca7a97934" x="558.458182" y="104.545423" style="fill: #ff0000; stroke: #ff0000"/>
     <use xlink:href="#m6ca7a97934" x="564.545455" y="103.253444" style="fill: #ff0000; stroke: #ff0000"/>
     <use xlink:href="#m6ca7a97934" x="570.632727" y="82.538311" style="fill: #ff0000; stroke: #ff0000"/>
     <use xlink:href="#m6ca7a97934" x="576.72" y="104.611213" style="fill: #ff0000; stroke: #ff0000"/>
     <use xlink:href="#m6ca7a97934" x="582.807273" y="97.037576" style="fill: #ff0000; stroke: #ff0000"/>
     <use xlink:href="#m6ca7a97934" x="588.894545" y="96.35656" style="fill: #ff0000; stroke: #ff0000"/>
     <use xlink:href="#m6ca7a97934" x="594.981818" y="103.090535" style="fill: #ff0000; stroke: #ff0000"/>
     <use xlink:href="#m6ca7a97934" x="601.069091" y="111.575507" style="fill: #ff0000; stroke: #ff0000"/>
     <use xlink:href="#m6ca7a97934" x="607.156364" y="114.879549" style="fill: #ff0000; stroke: #ff0000"/>
     <use xlink:href="#m6ca7a97934" x="613.243636" y="100.288811" style="fill: #ff0000; stroke: #ff0000"/>
     <use xlink:href="#m6ca7a97934" x="619.330909" y="116.486234" style="fill: #ff0000; stroke: #ff0000"/>
     <use xlink:href="#m6ca7a97934" x="625.418182" y="127.097232" style="fill: #ff0000; stroke: #ff0000"/>
     <use xlink:href="#m6ca7a97934" x="631.505455" y="92.751626" style="fill: #ff0000; stroke: #ff0000"/>
     <use xlink:href="#m6ca7a97934" x="637.592727" y="114.602454" style="fill: #ff0000; stroke: #ff0000"/>
     <use xlink:href="#m6ca7a97934" x="643.68" y="108.003387" style="fill: #ff0000; stroke: #ff0000"/>
     <use xlink:href="#m6ca7a97934" x="649.767273" y="127.476228" style="fill: #ff0000; stroke: #ff0000"/>
     <use xlink:href="#m6ca7a97934" x="655.854545" y="130.301497" style="fill: #ff0000; stroke: #ff0000"/>
     <use xlink:href="#m6ca7a97934" x="661.941818" y="117.25611" style="fill: #ff0000; stroke: #ff0000"/>
     <use xlink:href="#m6ca7a97934" x="668.029091" y="126.795672" style="fill: #ff0000; stroke: #ff0000"/>
     <use xlink:href="#m6ca7a97934" x="674.116364" y="122.781098" style="fill: #ff0000; stroke: #ff0000"/>
     <use xlink:href="#m6ca7a97934" x="680.203636" y="107.848767" style="fill: #ff0000; stroke: #ff0000"/>
     <use xlink:href="#m6ca7a97934" x="686.290909" y="125.939581" style="fill: #ff0000; stroke: #ff0000"/>
     <use xlink:href="#m6ca7a97934" x="692.378182" y="101.967421" style="fill: #ff0000; stroke: #ff0000"/>
     <use xlink:href="#m6ca7a97934" x="698.465455" y="115.668988" style="fill: #ff0000; stroke: #ff0000"/>
     <use xlink:href="#m6ca7a97934" x="704.552727" y="99.133789" style="fill: #ff0000; stroke: #ff0000"/>
     <use xlink:href="#m6ca7a97934" x="710.64" y="107.115938" style="fill: #ff0000; stroke: #ff0000"/>
     <use xlink:href="#m6ca7a97934" x="716.727273" y="107.929946" style="fill: #ff0000; stroke: #ff0000"/>
     <use xlink:href="#m6ca7a97934" x="722.814545" y="81.98791" style="fill: #ff0000; stroke: #ff0000"/>
     <use xlink:href="#m6ca7a97934" x="728.901818" y="104.080836" style="fill: #ff0000; stroke: #ff0000"/>
     <use xlink:href="#m6ca7a97934" x="734.989091" y="88.141642" style="fill: #ff0000; stroke: #ff0000"/>
     <use xlink:href="#m6ca7a97934" x="741.076364" y="70.71794" style="fill: #ff0000; stroke: #ff0000"/>
     <use xlink:href="#m6ca7a97934" x="747.163636" y="145.950138" style="fill: #ff0000; stroke: #ff0000"/>
    </g>
   </g>
   <g id="matplotlib.axis_1">
    <g id="xtick_1">
     <g id="line2d_1">
      <defs>
       <path id="md12f232edf" d="M 0 0 
L 0 3.5 
" style="stroke: #000000; stroke-width: 0.8"/>
      </defs>
      <g>
       <use xlink:href="#md12f232edf" x="138.436364" y="256.32" style="stroke: #000000; stroke-width: 0.8"/>
      </g>
     </g>
     <g id="text_1">
      <!-- 0 -->
      <g transform="translate(135.255114 270.918437)scale(0.1 -0.1)">
       <defs>
        <path id="DejaVuSans-30" d="M 2034 4250 
Q 1547 4250 1301 3770 
Q 1056 3291 1056 2328 
Q 1056 1369 1301 889 
Q 1547 409 2034 409 
Q 2525 409 2770 889 
Q 3016 1369 3016 2328 
Q 3016 3291 2770 3770 
Q 2525 4250 2034 4250 
z
M 2034 4750 
Q 2819 4750 3233 4129 
Q 3647 3509 3647 2328 
Q 3647 1150 3233 529 
Q 2819 -91 2034 -91 
Q 1250 -91 836 529 
Q 422 1150 422 2328 
Q 422 3509 836 4129 
Q 1250 4750 2034 4750 
z
" transform="scale(0.015625)"/>
       </defs>
       <use xlink:href="#DejaVuSans-30"/>
      </g>
     </g>
    </g>
    <g id="xtick_2">
     <g id="line2d_2">
      <g>
       <use xlink:href="#md12f232edf" x="260.181818" y="256.32" style="stroke: #000000; stroke-width: 0.8"/>
      </g>
     </g>
     <g id="text_2">
      <!-- 20 -->
      <g transform="translate(253.819318 270.918437)scale(0.1 -0.1)">
       <defs>
        <path id="DejaVuSans-32" d="M 1228 531 
L 3431 531 
L 3431 0 
L 469 0 
L 469 531 
Q 828 903 1448 1529 
Q 2069 2156 2228 2338 
Q 2531 2678 2651 2914 
Q 2772 3150 2772 3378 
Q 2772 3750 2511 3984 
Q 2250 4219 1831 4219 
Q 1534 4219 1204 4116 
Q 875 4013 500 3803 
L 500 4441 
Q 881 4594 1212 4672 
Q 1544 4750 1819 4750 
Q 2544 4750 2975 4387 
Q 3406 4025 3406 3419 
Q 3406 3131 3298 2873 
Q 3191 2616 2906 2266 
Q 2828 2175 2409 1742 
Q 1991 1309 1228 531 
z
" transform="scale(0.015625)"/>
       </defs>
       <use xlink:href="#DejaVuSans-32"/>
       <use xlink:href="#DejaVuSans-30" x="63.623047"/>
      </g>
     </g>
    </g>
    <g id="xtick_3">
     <g id="line2d_3">
      <g>
       <use xlink:href="#md12f232edf" x="381.927273" y="256.32" style="stroke: #000000; stroke-width: 0.8"/>
      </g>
     </g>
     <g id="text_3">
      <!-- 40 -->
      <g transform="translate(375.564773 270.918437)scale(0.1 -0.1)">
       <defs>
        <path id="DejaVuSans-34" d="M 2419 4116 
L 825 1625 
L 2419 1625 
L 2419 4116 
z
M 2253 4666 
L 3047 4666 
L 3047 1625 
L 3713 1625 
L 3713 1100 
L 3047 1100 
L 3047 0 
L 2419 0 
L 2419 1100 
L 313 1100 
L 313 1709 
L 2253 4666 
z
" transform="scale(0.015625)"/>
       </defs>
       <use xlink:href="#DejaVuSans-34"/>
       <use xlink:href="#DejaVuSans-30" x="63.623047"/>
      </g>
     </g>
    </g>
    <g id="xtick_4">
     <g id="line2d_4">
      <g>
       <use xlink:href="#md12f232edf" x="503.672727" y="256.32" style="stroke: #000000; stroke-width: 0.8"/>
      </g>
     </g>
     <g id="text_4">
      <!-- 60 -->
      <g transform="translate(497.310227 270.918437)scale(0.1 -0.1)">
       <defs>
        <path id="DejaVuSans-36" d="M 2113 2584 
Q 1688 2584 1439 2293 
Q 1191 2003 1191 1497 
Q 1191 994 1439 701 
Q 1688 409 2113 409 
Q 2538 409 2786 701 
Q 3034 994 3034 1497 
Q 3034 2003 2786 2293 
Q 2538 2584 2113 2584 
z
M 3366 4563 
L 3366 3988 
Q 3128 4100 2886 4159 
Q 2644 4219 2406 4219 
Q 1781 4219 1451 3797 
Q 1122 3375 1075 2522 
Q 1259 2794 1537 2939 
Q 1816 3084 2150 3084 
Q 2853 3084 3261 2657 
Q 3669 2231 3669 1497 
Q 3669 778 3244 343 
Q 2819 -91 2113 -91 
Q 1303 -91 875 529 
Q 447 1150 447 2328 
Q 447 3434 972 4092 
Q 1497 4750 2381 4750 
Q 2619 4750 2861 4703 
Q 3103 4656 3366 4563 
z
" transform="scale(0.015625)"/>
       </defs>
       <use xlink:href="#DejaVuSans-36"/>
       <use xlink:href="#DejaVuSans-30" x="63.623047"/>
      </g>
     </g>
    </g>
    <g id="xtick_5">
     <g id="line2d_5">
      <g>
       <use xlink:href="#md12f232edf" x="625.418182" y="256.32" style="stroke: #000000; stroke-width: 0.8"/>
      </g>
     </g>
     <g id="text_5">
      <!-- 80 -->
      <g transform="translate(619.055682 270.918437)scale(0.1 -0.1)">
       <defs>
        <path id="DejaVuSans-38" d="M 2034 2216 
Q 1584 2216 1326 1975 
Q 1069 1734 1069 1313 
Q 1069 891 1326 650 
Q 1584 409 2034 409 
Q 2484 409 2743 651 
Q 3003 894 3003 1313 
Q 3003 1734 2745 1975 
Q 2488 2216 2034 2216 
z
M 1403 2484 
Q 997 2584 770 2862 
Q 544 3141 544 3541 
Q 544 4100 942 4425 
Q 1341 4750 2034 4750 
Q 2731 4750 3128 4425 
Q 3525 4100 3525 3541 
Q 3525 3141 3298 2862 
Q 3072 2584 2669 2484 
Q 3125 2378 3379 2068 
Q 3634 1759 3634 1313 
Q 3634 634 3220 271 
Q 2806 -91 2034 -91 
Q 1263 -91 848 271 
Q 434 634 434 1313 
Q 434 1759 690 2068 
Q 947 2378 1403 2484 
z
M 1172 3481 
Q 1172 3119 1398 2916 
Q 1625 2713 2034 2713 
Q 2441 2713 2670 2916 
Q 2900 3119 2900 3481 
Q 2900 3844 2670 4047 
Q 2441 4250 2034 4250 
Q 1625 4250 1398 4047 
Q 1172 3844 1172 3481 
z
" transform="scale(0.015625)"/>
       </defs>
       <use xlink:href="#DejaVuSans-38"/>
       <use xlink:href="#DejaVuSans-30" x="63.623047"/>
      </g>
     </g>
    </g>
    <g id="xtick_6">
     <g id="line2d_6">
      <g>
       <use xlink:href="#md12f232edf" x="747.163636" y="256.32" style="stroke: #000000; stroke-width: 0.8"/>
      </g>
     </g>
     <g id="text_6">
      <!-- 100 -->
      <g transform="translate(737.619886 270.918437)scale(0.1 -0.1)">
       <defs>
        <path id="DejaVuSans-31" d="M 794 531 
L 1825 531 
L 1825 4091 
L 703 3866 
L 703 4441 
L 1819 4666 
L 2450 4666 
L 2450 531 
L 3481 531 
L 3481 0 
L 794 0 
L 794 531 
z
" transform="scale(0.015625)"/>
       </defs>
       <use xlink:href="#DejaVuSans-31"/>
       <use xlink:href="#DejaVuSans-30" x="63.623047"/>
       <use xlink:href="#DejaVuSans-30" x="127.246094"/>
      </g>
     </g>
    </g>
   </g>
   <g id="matplotlib.axis_2">
    <g id="ytick_1">
     <g id="line2d_7">
      <defs>
       <path id="m6f0af05d75" d="M 0 0 
L -3.5 0 
" style="stroke: #000000; stroke-width: 0.8"/>
      </defs>
      <g>
       <use xlink:href="#m6f0af05d75" x="108" y="248.762149" style="stroke: #000000; stroke-width: 0.8"/>
      </g>
     </g>
     <g id="text_7">
      <!-- 2 -->
      <g transform="translate(94.6375 252.561368)scale(0.1 -0.1)">
       <use xlink:href="#DejaVuSans-32"/>
      </g>
     </g>
    </g>
    <g id="ytick_2">
     <g id="line2d_8">
      <g>
       <use xlink:href="#m6f0af05d75" x="108" y="217.610143" style="stroke: #000000; stroke-width: 0.8"/>
      </g>
     </g>
     <g id="text_8">
      <!-- 3 -->
      <g transform="translate(94.6375 221.409361)scale(0.1 -0.1)">
       <defs>
        <path id="DejaVuSans-33" d="M 2597 2516 
Q 3050 2419 3304 2112 
Q 3559 1806 3559 1356 
Q 3559 666 3084 287 
Q 2609 -91 1734 -91 
Q 1441 -91 1130 -33 
Q 819 25 488 141 
L 488 750 
Q 750 597 1062 519 
Q 1375 441 1716 441 
Q 2309 441 2620 675 
Q 2931 909 2931 1356 
Q 2931 1769 2642 2001 
Q 2353 2234 1838 2234 
L 1294 2234 
L 1294 2753 
L 1863 2753 
Q 2328 2753 2575 2939 
Q 2822 3125 2822 3475 
Q 2822 3834 2567 4026 
Q 2313 4219 1838 4219 
Q 1578 4219 1281 4162 
Q 984 4106 628 3988 
L 628 4550 
Q 988 4650 1302 4700 
Q 1616 4750 1894 4750 
Q 2613 4750 3031 4423 
Q 3450 4097 3450 3541 
Q 3450 3153 3228 2886 
Q 3006 2619 2597 2516 
z
" transform="scale(0.015625)"/>
       </defs>
       <use xlink:href="#DejaVuSans-33"/>
      </g>
     </g>
    </g>
    <g id="ytick_3">
     <g id="line2d_9">
      <g>
       <use xlink:href="#m6f0af05d75" x="108" y="186.458136" style="stroke: #000000; stroke-width: 0.8"/>
      </g>
     </g>
     <g id="text_9">
      <!-- 4 -->
      <g transform="translate(94.6375 190.257355)scale(0.1 -0.1)">
       <use xlink:href="#DejaVuSans-34"/>
      </g>
     </g>
    </g>
    <g id="ytick_4">
     <g id="line2d_10">
      <g>
       <use xlink:href="#m6f0af05d75" x="108" y="155.30613" style="stroke: #000000; stroke-width: 0.8"/>
      </g>
     </g>
     <g id="text_10">
      <!-- 5 -->
      <g transform="translate(94.6375 159.105348)scale(0.1 -0.1)">
       <defs>
        <path id="DejaVuSans-35" d="M 691 4666 
L 3169 4666 
L 3169 4134 
L 1269 4134 
L 1269 2991 
Q 1406 3038 1543 3061 
Q 1681 3084 1819 3084 
Q 2600 3084 3056 2656 
Q 3513 2228 3513 1497 
Q 3513 744 3044 326 
Q 2575 -91 1722 -91 
Q 1428 -91 1123 -41 
Q 819 9 494 109 
L 494 744 
Q 775 591 1075 516 
Q 1375 441 1709 441 
Q 2250 441 2565 725 
Q 2881 1009 2881 1497 
Q 2881 1984 2565 2268 
Q 2250 2553 1709 2553 
Q 1456 2553 1204 2497 
Q 953 2441 691 2322 
L 691 4666 
z
" transform="scale(0.015625)"/>
       </defs>
       <use xlink:href="#DejaVuSans-35"/>
      </g>
     </g>
    </g>
    <g id="ytick_5">
     <g id="line2d_11">
      <g>
       <use xlink:href="#m6f0af05d75" x="108" y="124.154123" style="stroke: #000000; stroke-width: 0.8"/>
      </g>
     </g>
     <g id="text_11">
      <!-- 6 -->
      <g transform="translate(94.6375 127.953342)scale(0.1 -0.1)">
       <use xlink:href="#DejaVuSans-36"/>
      </g>
     </g>
    </g>
    <g id="ytick_6">
     <g id="line2d_12">
      <g>
       <use xlink:href="#m6f0af05d75" x="108" y="93.002116" style="stroke: #000000; stroke-width: 0.8"/>
      </g>
     </g>
     <g id="text_12">
      <!-- 7 -->
      <g transform="translate(94.6375 96.801335)scale(0.1 -0.1)">
       <defs>
        <path id="DejaVuSans-37" d="M 525 4666 
L 3525 4666 
L 3525 4397 
L 1831 0 
L 1172 0 
L 2766 4134 
L 525 4134 
L 525 4666 
z
" transform="scale(0.015625)"/>
       </defs>
       <use xlink:href="#DejaVuSans-37"/>
      </g>
     </g>
    </g>
    <g id="ytick_7">
     <g id="line2d_13">
      <g>
       <use xlink:href="#m6f0af05d75" x="108" y="61.85011" style="stroke: #000000; stroke-width: 0.8"/>
      </g>
     </g>
     <g id="text_13">
      <!-- 8 -->
      <g transform="translate(94.6375 65.649329)scale(0.1 -0.1)">
       <use xlink:href="#DejaVuSans-38"/>
      </g>
     </g>
    </g>
   </g>
   <g id="line2d_14">
    <path d="M 138.436364 163.549277 
L 144.523636 165.35564 
L 150.610909 166.851239 
L 156.698182 168.051256 
L 162.785455 168.970581 
L 168.872727 169.623807 
L 174.96 170.025232 
L 181.047273 170.188857 
L 187.134545 170.128391 
L 193.221818 169.857245 
L 199.309091 169.388536 
L 205.396364 168.735085 
L 211.483636 167.909419 
L 217.570909 166.923768 
L 223.658182 165.790068 
L 229.745455 164.51996 
L 235.832727 163.124787 
L 241.92 161.615599 
L 248.007273 160.003152 
L 254.094545 158.297903 
L 260.181818 156.510018 
L 266.269091 154.649363 
L 272.356364 152.725513 
L 278.443636 150.747745 
L 284.530909 148.725042 
L 290.618182 146.666091 
L 296.705455 144.579284 
L 302.792727 142.472718 
L 308.88 140.354195 
L 314.967273 138.231219 
L 321.054545 136.111003 
L 327.141818 134.000461 
L 333.229091 131.906214 
L 339.316364 129.834588 
L 345.403636 127.79161 
L 351.490909 125.783017 
L 357.578182 123.814246 
L 363.665455 121.890442 
L 369.752727 120.016454 
L 375.84 118.196833 
L 381.927273 116.435839 
L 388.014545 114.737434 
L 394.101818 113.105285 
L 400.189091 111.542764 
L 406.276364 110.052948 
L 412.363636 108.638618 
L 418.450909 107.30226 
L 424.538182 106.046066 
L 430.625455 104.871931 
L 436.712727 103.781455 
L 442.8 102.775943 
L 448.887273 101.856404 
L 454.974545 101.023553 
L 461.061818 100.27781 
L 467.149091 99.619298 
L 473.236364 99.047844 
L 479.323636 98.562984 
L 485.410909 98.163954 
L 491.498182 97.849697 
L 497.585455 97.618861 
L 503.672727 97.469797 
L 509.76 97.400562 
L 515.847273 97.408918 
L 521.934545 97.49233 
L 528.021818 97.64797 
L 534.109091 97.872714 
L 540.196364 98.163141 
L 546.283636 98.515536 
L 552.370909 98.925889 
L 558.458182 99.389895 
L 564.545455 99.902952 
L 570.632727 100.460165 
L 576.72 101.056342 
L 582.807273 101.685996 
L 588.894545 102.343344 
L 594.981818 103.022311 
L 601.069091 103.716522 
L 607.156364 104.41931 
L 613.243636 105.123713 
L 619.330909 105.82247 
L 625.418182 106.508029 
L 631.505455 107.17254 
L 637.592727 107.807858 
L 643.68 108.405545 
L 649.767273 108.956865 
L 655.854545 109.452788 
L 661.941818 109.883988 
L 668.029091 110.240844 
L 674.116364 110.51344 
L 680.203636 110.691565 
L 686.290909 110.764712 
L 692.378182 110.722078 
L 698.465455 110.552567 
L 704.552727 110.244786 
L 710.64 109.787047 
L 716.727273 109.167366 
L 722.814545 108.373465 
L 728.901818 107.39277 
L 734.989091 106.212413 
L 741.076364 104.819228 
L 747.163636 103.199756 
" clip-path="url(#p9955562d7c)" style="fill: none; stroke: #000000; stroke-width: 3; stroke-linecap: square"/>
   </g>
   <g id="patch_3">
    <path d="M 108 256.32 
L 108 34.56 
" style="fill: none; stroke: #000000; stroke-width: 0.8; stroke-linejoin: miter; stroke-linecap: square"/>
   </g>
   <g id="patch_4">
    <path d="M 777.6 256.32 
L 777.6 34.56 
" style="fill: none; stroke: #000000; stroke-width: 0.8; stroke-linejoin: miter; stroke-linecap: square"/>
   </g>
   <g id="patch_5">
    <path d="M 108 256.32 
L 777.6 256.32 
" style="fill: none; stroke: #000000; stroke-width: 0.8; stroke-linejoin: miter; stroke-linecap: square"/>
   </g>
   <g id="patch_6">
    <path d="M 108 34.56 
L 777.6 34.56 
" style="fill: none; stroke: #000000; stroke-width: 0.8; stroke-linejoin: miter; stroke-linecap: square"/>
   </g>
   <g id="text_14">
    <!-- Sftpc -->
    <g transform="translate(790.992 160.616562)scale(0.55 -0.55)">
     <defs>
      <path id="DejaVuSans-53" d="M 3425 4513 
L 3425 3897 
Q 3066 4069 2747 4153 
Q 2428 4238 2131 4238 
Q 1616 4238 1336 4038 
Q 1056 3838 1056 3469 
Q 1056 3159 1242 3001 
Q 1428 2844 1947 2747 
L 2328 2669 
Q 3034 2534 3370 2195 
Q 3706 1856 3706 1288 
Q 3706 609 3251 259 
Q 2797 -91 1919 -91 
Q 1588 -91 1214 -16 
Q 841 59 441 206 
L 441 856 
Q 825 641 1194 531 
Q 1563 422 1919 422 
Q 2459 422 2753 634 
Q 3047 847 3047 1241 
Q 3047 1584 2836 1778 
Q 2625 1972 2144 2069 
L 1759 2144 
Q 1053 2284 737 2584 
Q 422 2884 422 3419 
Q 422 4038 858 4394 
Q 1294 4750 2059 4750 
Q 2388 4750 2728 4690 
Q 3069 4631 3425 4513 
z
" transform="scale(0.015625)"/>
      <path id="DejaVuSans-66" d="M 2375 4863 
L 2375 4384 
L 1825 4384 
Q 1516 4384 1395 4259 
Q 1275 4134 1275 3809 
L 1275 3500 
L 2222 3500 
L 2222 3053 
L 1275 3053 
L 1275 0 
L 697 0 
L 697 3053 
L 147 3053 
L 147 3500 
L 697 3500 
L 697 3744 
Q 697 4328 969 4595 
Q 1241 4863 1831 4863 
L 2375 4863 
z
" transform="scale(0.015625)"/>
      <path id="DejaVuSans-74" d="M 1172 4494 
L 1172 3500 
L 2356 3500 
L 2356 3053 
L 1172 3053 
L 1172 1153 
Q 1172 725 1289 603 
Q 1406 481 1766 481 
L 2356 481 
L 2356 0 
L 1766 0 
Q 1100 0 847 248 
Q 594 497 594 1153 
L 594 3053 
L 172 3053 
L 172 3500 
L 594 3500 
L 594 4494 
L 1172 4494 
z
" transform="scale(0.015625)"/>
      <path id="DejaVuSans-70" d="M 1159 525 
L 1159 -1331 
L 581 -1331 
L 581 3500 
L 1159 3500 
L 1159 2969 
Q 1341 3281 1617 3432 
Q 1894 3584 2278 3584 
Q 2916 3584 3314 3078 
Q 3713 2572 3713 1747 
Q 3713 922 3314 415 
Q 2916 -91 2278 -91 
Q 1894 -91 1617 61 
Q 1341 213 1159 525 
z
M 3116 1747 
Q 3116 2381 2855 2742 
Q 2594 3103 2138 3103 
Q 1681 3103 1420 2742 
Q 1159 2381 1159 1747 
Q 1159 1113 1420 752 
Q 1681 391 2138 391 
Q 2594 391 2855 752 
Q 3116 1113 3116 1747 
z
" transform="scale(0.015625)"/>
      <path id="DejaVuSans-63" d="M 3122 3366 
L 3122 2828 
Q 2878 2963 2633 3030 
Q 2388 3097 2138 3097 
Q 1578 3097 1268 2742 
Q 959 2388 959 1747 
Q 959 1106 1268 751 
Q 1578 397 2138 397 
Q 2388 397 2633 464 
Q 2878 531 3122 666 
L 3122 134 
Q 2881 22 2623 -34 
Q 2366 -91 2075 -91 
Q 1284 -91 818 406 
Q 353 903 353 1747 
Q 353 2603 823 3093 
Q 1294 3584 2113 3584 
Q 2378 3584 2631 3529 
Q 2884 3475 3122 3366 
z
" transform="scale(0.015625)"/>
     </defs>
     <use xlink:href="#DejaVuSans-53"/>
     <use xlink:href="#DejaVuSans-66" x="63.476562"/>
     <use xlink:href="#DejaVuSans-74" x="96.931641"/>
     <use xlink:href="#DejaVuSans-70" x="136.140625"/>
     <use xlink:href="#DejaVuSans-63" x="199.617188"/>
    </g>
   </g>
  </g>
 </g>
 <defs>
  <clipPath id="p9955562d7c">
   <rect x="108" y="34.56" width="669.6" height="221.76"/>
  </clipPath>
 </defs>
</svg>
