<?xml version="1.0" encoding="utf-8" standalone="no"?>
<!DOCTYPE svg PUBLIC "-//W3C//DTD SVG 1.1//EN"
  "http://www.w3.org/Graphics/SVG/1.1/DTD/svg11.dtd">
<svg xmlns:xlink="http://www.w3.org/1999/xlink" width="864pt" height="288pt" viewBox="0 0 864 288" xmlns="http://www.w3.org/2000/svg" version="1.1">
 <metadata>
  <rdf:RDF xmlns:dc="http://purl.org/dc/elements/1.1/" xmlns:cc="http://creativecommons.org/ns#" xmlns:rdf="http://www.w3.org/1999/02/22-rdf-syntax-ns#">
   <cc:Work>
    <dc:type rdf:resource="http://purl.org/dc/dcmitype/StillImage"/>
    <dc:date>2024-01-15T22:02:36.446984</dc:date>
    <dc:format>image/svg+xml</dc:format>
    <dc:creator>
     <cc:Agent>
      <dc:title>Matplotlib v3.5.3, https://matplotlib.org/</dc:title>
     </cc:Agent>
    </dc:creator>
   </cc:Work>
  </rdf:RDF>
 </metadata>
 <defs>
  <style type="text/css">*{stroke-linejoin: round; stroke-linecap: butt}</style>
 </defs>
 <g id="figure_1">
  <g id="patch_1">
   <path d="M 0 288 
L 864 288 
L 864 0 
L 0 0 
L 0 288 
z
" style="fill: none"/>
  </g>
  <g id="axes_1">
   <g id="patch_2">
    <path d="M 108 256.32 
L 777.6 256.32 
L 777.6 34.56 
L 108 34.56 
L 108 256.32 
z
" style="fill: none"/>
   </g>
   <g id="PathCollection_1">
    <defs>
     <path id="mf8b035e77d" d="M 0 1.118034 
C 0.296506 1.118034 0.580908 1.000231 0.790569 0.790569 
C 1.000231 0.580908 1.118034 0.296506 1.118034 0 
C 1.118034 -0.296506 1.000231 -0.580908 0.790569 -0.790569 
C 0.580908 -1.000231 0.296506 -1.118034 0 -1.118034 
C -0.296506 -1.118034 -0.580908 -1.000231 -0.790569 -0.790569 
C -1.000231 -0.580908 -1.118034 -0.296506 -1.118034 0 
C -1.118034 0.296506 -1.000231 0.580908 -0.790569 0.790569 
C -0.580908 1.000231 -0.296506 1.118034 0 1.118034 
z
" style="stroke: #ff0000"/>
    </defs>
    <g clip-path="url(#pbdbb8f923d)">
     <use xlink:href="#mf8b035e77d" x="138.436364" y="216.958077" style="fill: #ff0000; stroke: #ff0000"/>
     <use xlink:href="#mf8b035e77d" x="144.523636" y="140.64156" style="fill: #ff0000; stroke: #ff0000"/>
     <use xlink:href="#mf8b035e77d" x="150.610909" y="233.533839" style="fill: #ff0000; stroke: #ff0000"/>
     <use xlink:href="#mf8b035e77d" x="156.698182" y="180.413522" style="fill: #ff0000; stroke: #ff0000"/>
     <use xlink:href="#mf8b035e77d" x="162.785455" y="219.964294" style="fill: #ff0000; stroke: #ff0000"/>
     <use xlink:href="#mf8b035e77d" x="168.872727" y="156.152723" style="fill: #ff0000; stroke: #ff0000"/>
     <use xlink:href="#mf8b035e77d" x="174.96" y="211.955926" style="fill: #ff0000; stroke: #ff0000"/>
     <use xlink:href="#mf8b035e77d" x="181.047273" y="215.13674" style="fill: #ff0000; stroke: #ff0000"/>
     <use xlink:href="#mf8b035e77d" x="187.134545" y="137.404646" style="fill: #ff0000; stroke: #ff0000"/>
     <use xlink:href="#mf8b035e77d" x="193.221818" y="44.64" style="fill: #ff0000; stroke: #ff0000"/>
     <use xlink:href="#mf8b035e77d" x="199.309091" y="225.226044" style="fill: #ff0000; stroke: #ff0000"/>
     <use xlink:href="#mf8b035e77d" x="205.396364" y="142.225836" style="fill: #ff0000; stroke: #ff0000"/>
     <use xlink:href="#mf8b035e77d" x="211.483636" y="189.532414" style="fill: #ff0000; stroke: #ff0000"/>
     <use xlink:href="#mf8b035e77d" x="217.570909" y="167.397964" style="fill: #ff0000; stroke: #ff0000"/>
     <use xlink:href="#mf8b035e77d" x="223.658182" y="185.541148" style="fill: #ff0000; stroke: #ff0000"/>
     <use xlink:href="#mf8b035e77d" x="229.745455" y="220.43549" style="fill: #ff0000; stroke: #ff0000"/>
     <use xlink:href="#mf8b035e77d" x="235.832727" y="196.155457" style="fill: #ff0000; stroke: #ff0000"/>
     <use xlink:href="#mf8b035e77d" x="241.92" y="214.257124" style="fill: #ff0000; stroke: #ff0000"/>
     <use xlink:href="#mf8b035e77d" x="248.007273" y="204.674488" style="fill: #ff0000; stroke: #ff0000"/>
     <use xlink:href="#mf8b035e77d" x="254.094545" y="226.431839" style="fill: #ff0000; stroke: #ff0000"/>
     <use xlink:href="#mf8b035e77d" x="260.181818" y="232.592745" style="fill: #ff0000; stroke: #ff0000"/>
     <use xlink:href="#mf8b035e77d" x="266.269091" y="188.328747" style="fill: #ff0000; stroke: #ff0000"/>
     <use xlink:href="#mf8b035e77d" x="272.356364" y="188.02529" style="fill: #ff0000; stroke: #ff0000"/>
     <use xlink:href="#mf8b035e77d" x="278.443636" y="194.473408" style="fill: #ff0000; stroke: #ff0000"/>
     <use xlink:href="#mf8b035e77d" x="284.530909" y="221.232565" style="fill: #ff0000; stroke: #ff0000"/>
     <use xlink:href="#mf8b035e77d" x="290.618182" y="241.835664" style="fill: #ff0000; stroke: #ff0000"/>
     <use xlink:href="#mf8b035e77d" x="296.705455" y="153.931211" style="fill: #ff0000; stroke: #ff0000"/>
     <use xlink:href="#mf8b035e77d" x="302.792727" y="218.197784" style="fill: #ff0000; stroke: #ff0000"/>
     <use xlink:href="#mf8b035e77d" x="308.88" y="183.198603" style="fill: #ff0000; stroke: #ff0000"/>
     <use xlink:href="#mf8b035e77d" x="314.967273" y="233.566847" style="fill: #ff0000; stroke: #ff0000"/>
     <use xlink:href="#mf8b035e77d" x="321.054545" y="112.350558" style="fill: #ff0000; stroke: #ff0000"/>
     <use xlink:href="#mf8b035e77d" x="327.141818" y="181.931143" style="fill: #ff0000; stroke: #ff0000"/>
     <use xlink:href="#mf8b035e77d" x="333.229091" y="218.619903" style="fill: #ff0000; stroke: #ff0000"/>
     <use xlink:href="#mf8b035e77d" x="339.316364" y="237.795943" style="fill: #ff0000; stroke: #ff0000"/>
     <use xlink:href="#mf8b035e77d" x="345.403636" y="91.930415" style="fill: #ff0000; stroke: #ff0000"/>
     <use xlink:href="#mf8b035e77d" x="351.490909" y="230.986495" style="fill: #ff0000; stroke: #ff0000"/>
     <use xlink:href="#mf8b035e77d" x="357.578182" y="179.383919" style="fill: #ff0000; stroke: #ff0000"/>
     <use xlink:href="#mf8b035e77d" x="363.665455" y="145.229114" style="fill: #ff0000; stroke: #ff0000"/>
     <use xlink:href="#mf8b035e77d" x="369.752727" y="212.081824" style="fill: #ff0000; stroke: #ff0000"/>
     <use xlink:href="#mf8b035e77d" x="375.84" y="189.234343" style="fill: #ff0000; stroke: #ff0000"/>
     <use xlink:href="#mf8b035e77d" x="381.927273" y="163.15623" style="fill: #ff0000; stroke: #ff0000"/>
     <use xlink:href="#mf8b035e77d" x="388.014545" y="231.688812" style="fill: #ff0000; stroke: #ff0000"/>
     <use xlink:href="#mf8b035e77d" x="394.101818" y="177.191262" style="fill: #ff0000; stroke: #ff0000"/>
     <use xlink:href="#mf8b035e77d" x="400.189091" y="191.333339" style="fill: #ff0000; stroke: #ff0000"/>
     <use xlink:href="#mf8b035e77d" x="406.276364" y="242.573452" style="fill: #ff0000; stroke: #ff0000"/>
     <use xlink:href="#mf8b035e77d" x="412.363636" y="210.260675" style="fill: #ff0000; stroke: #ff0000"/>
     <use xlink:href="#mf8b035e77d" x="418.450909" y="242.573452" style="fill: #ff0000; stroke: #ff0000"/>
     <use xlink:href="#mf8b035e77d" x="424.538182" y="225.415326" style="fill: #ff0000; stroke: #ff0000"/>
     <use xlink:href="#mf8b035e77d" x="430.625455" y="170.84517" style="fill: #ff0000; stroke: #ff0000"/>
     <use xlink:href="#mf8b035e77d" x="436.712727" y="238.565078" style="fill: #ff0000; stroke: #ff0000"/>
     <use xlink:href="#mf8b035e77d" x="442.8" y="242.573452" style="fill: #ff0000; stroke: #ff0000"/>
     <use xlink:href="#mf8b035e77d" x="448.887273" y="242.573452" style="fill: #ff0000; stroke: #ff0000"/>
     <use xlink:href="#mf8b035e77d" x="454.974545" y="242.573452" style="fill: #ff0000; stroke: #ff0000"/>
     <use xlink:href="#mf8b035e77d" x="461.061818" y="242.573452" style="fill: #ff0000; stroke: #ff0000"/>
     <use xlink:href="#mf8b035e77d" x="467.149091" y="149.247744" style="fill: #ff0000; stroke: #ff0000"/>
     <use xlink:href="#mf8b035e77d" x="473.236364" y="229.243674" style="fill: #ff0000; stroke: #ff0000"/>
     <use xlink:href="#mf8b035e77d" x="479.323636" y="242.573452" style="fill: #ff0000; stroke: #ff0000"/>
     <use xlink:href="#mf8b035e77d" x="485.410909" y="242.573452" style="fill: #ff0000; stroke: #ff0000"/>
     <use xlink:href="#mf8b035e77d" x="491.498182" y="242.290729" style="fill: #ff0000; stroke: #ff0000"/>
     <use xlink:href="#mf8b035e77d" x="497.585455" y="242.573452" style="fill: #ff0000; stroke: #ff0000"/>
     <use xlink:href="#mf8b035e77d" x="503.672727" y="239.396262" style="fill: #ff0000; stroke: #ff0000"/>
     <use xlink:href="#mf8b035e77d" x="509.76" y="242.573452" style="fill: #ff0000; stroke: #ff0000"/>
     <use xlink:href="#mf8b035e77d" x="515.847273" y="242.573452" style="fill: #ff0000; stroke: #ff0000"/>
     <use xlink:href="#mf8b035e77d" x="521.934545" y="234.223629" style="fill: #ff0000; stroke: #ff0000"/>
     <use xlink:href="#mf8b035e77d" x="528.021818" y="242.573452" style="fill: #ff0000; stroke: #ff0000"/>
     <use xlink:href="#mf8b035e77d" x="534.109091" y="242.573452" style="fill: #ff0000; stroke: #ff0000"/>
     <use xlink:href="#mf8b035e77d" x="540.196364" y="231.691536" style="fill: #ff0000; stroke: #ff0000"/>
     <use xlink:href="#mf8b035e77d" x="546.283636" y="242.573452" style="fill: #ff0000; stroke: #ff0000"/>
     <use xlink:href="#mf8b035e77d" x="552.370909" y="242.573452" style="fill: #ff0000; stroke: #ff0000"/>
     <use xlink:href="#mf8b035e77d" x="558.458182" y="242.573452" style="fill: #ff0000; stroke: #ff0000"/>
     <use xlink:href="#mf8b035e77d" x="564.545455" y="242.573452" style="fill: #ff0000; stroke: #ff0000"/>
     <use xlink:href="#mf8b035e77d" x="570.632727" y="242.573452" style="fill: #ff0000; stroke: #ff0000"/>
     <use xlink:href="#mf8b035e77d" x="576.72" y="242.573452" style="fill: #ff0000; stroke: #ff0000"/>
     <use xlink:href="#mf8b035e77d" x="582.807273" y="242.573452" style="fill: #ff0000; stroke: #ff0000"/>
     <use xlink:href="#mf8b035e77d" x="588.894545" y="242.573452" style="fill: #ff0000; stroke: #ff0000"/>
     <use xlink:href="#mf8b035e77d" x="594.981818" y="242.573452" style="fill: #ff0000; stroke: #ff0000"/>
     <use xlink:href="#mf8b035e77d" x="601.069091" y="242.573452" style="fill: #ff0000; stroke: #ff0000"/>
     <use xlink:href="#mf8b035e77d" x="607.156364" y="242.573452" style="fill: #ff0000; stroke: #ff0000"/>
     <use xlink:href="#mf8b035e77d" x="613.243636" y="242.573452" style="fill: #ff0000; stroke: #ff0000"/>
     <use xlink:href="#mf8b035e77d" x="619.330909" y="242.573452" style="fill: #ff0000; stroke: #ff0000"/>
     <use xlink:href="#mf8b035e77d" x="625.418182" y="242.573452" style="fill: #ff0000; stroke: #ff0000"/>
     <use xlink:href="#mf8b035e77d" x="631.505455" y="242.573452" style="fill: #ff0000; stroke: #ff0000"/>
     <use xlink:href="#mf8b035e77d" x="637.592727" y="242.573452" style="fill: #ff0000; stroke: #ff0000"/>
     <use xlink:href="#mf8b035e77d" x="643.68" y="242.573452" style="fill: #ff0000; stroke: #ff0000"/>
     <use xlink:href="#mf8b035e77d" x="649.767273" y="242.573452" style="fill: #ff0000; stroke: #ff0000"/>
     <use xlink:href="#mf8b035e77d" x="655.854545" y="242.573452" style="fill: #ff0000; stroke: #ff0000"/>
     <use xlink:href="#mf8b035e77d" x="661.941818" y="242.573452" style="fill: #ff0000; stroke: #ff0000"/>
     <use xlink:href="#mf8b035e77d" x="668.029091" y="242.573452" style="fill: #ff0000; stroke: #ff0000"/>
     <use xlink:href="#mf8b035e77d" x="674.116364" y="242.573452" style="fill: #ff0000; stroke: #ff0000"/>
     <use xlink:href="#mf8b035e77d" x="680.203636" y="242.573452" style="fill: #ff0000; stroke: #ff0000"/>
     <use xlink:href="#mf8b035e77d" x="686.290909" y="242.573452" style="fill: #ff0000; stroke: #ff0000"/>
     <use xlink:href="#mf8b035e77d" x="692.378182" y="242.573452" style="fill: #ff0000; stroke: #ff0000"/>
     <use xlink:href="#mf8b035e77d" x="698.465455" y="242.573452" style="fill: #ff0000; stroke: #ff0000"/>
     <use xlink:href="#mf8b035e77d" x="704.552727" y="242.573452" style="fill: #ff0000; stroke: #ff0000"/>
     <use xlink:href="#mf8b035e77d" x="710.64" y="242.573452" style="fill: #ff0000; stroke: #ff0000"/>
     <use xlink:href="#mf8b035e77d" x="716.727273" y="242.573452" style="fill: #ff0000; stroke: #ff0000"/>
     <use xlink:href="#mf8b035e77d" x="722.814545" y="242.573452" style="fill: #ff0000; stroke: #ff0000"/>
     <use xlink:href="#mf8b035e77d" x="728.901818" y="242.573452" style="fill: #ff0000; stroke: #ff0000"/>
     <use xlink:href="#mf8b035e77d" x="734.989091" y="242.573452" style="fill: #ff0000; stroke: #ff0000"/>
     <use xlink:href="#mf8b035e77d" x="741.076364" y="242.573452" style="fill: #ff0000; stroke: #ff0000"/>
     <use xlink:href="#mf8b035e77d" x="747.163636" y="242.573452" style="fill: #ff0000; stroke: #ff0000"/>
    </g>
   </g>
   <g id="matplotlib.axis_1">
    <g id="xtick_1">
     <g id="line2d_1">
      <defs>
       <path id="mc5de1c17d0" d="M 0 0 
L 0 3.5 
" style="stroke: #000000; stroke-width: 0.8"/>
      </defs>
      <g>
       <use xlink:href="#mc5de1c17d0" x="138.436364" y="256.32" style="stroke: #000000; stroke-width: 0.8"/>
      </g>
     </g>
     <g id="text_1">
      <!-- 0 -->
      <g transform="translate(135.255114 270.918437)scale(0.1 -0.1)">
       <defs>
        <path id="DejaVuSans-30" d="M 2034 4250 
Q 1547 4250 1301 3770 
Q 1056 3291 1056 2328 
Q 1056 1369 1301 889 
Q 1547 409 2034 409 
Q 2525 409 2770 889 
Q 3016 1369 3016 2328 
Q 3016 3291 2770 3770 
Q 2525 4250 2034 4250 
z
M 2034 4750 
Q 2819 4750 3233 4129 
Q 3647 3509 3647 2328 
Q 3647 1150 3233 529 
Q 2819 -91 2034 -91 
Q 1250 -91 836 529 
Q 422 1150 422 2328 
Q 422 3509 836 4129 
Q 1250 4750 2034 4750 
z
" transform="scale(0.015625)"/>
       </defs>
       <use xlink:href="#DejaVuSans-30"/>
      </g>
     </g>
    </g>
    <g id="xtick_2">
     <g id="line2d_2">
      <g>
       <use xlink:href="#mc5de1c17d0" x="260.181818" y="256.32" style="stroke: #000000; stroke-width: 0.8"/>
      </g>
     </g>
     <g id="text_2">
      <!-- 20 -->
      <g transform="translate(253.819318 270.918437)scale(0.1 -0.1)">
       <defs>
        <path id="DejaVuSans-32" d="M 1228 531 
L 3431 531 
L 3431 0 
L 469 0 
L 469 531 
Q 828 903 1448 1529 
Q 2069 2156 2228 2338 
Q 2531 2678 2651 2914 
Q 2772 3150 2772 3378 
Q 2772 3750 2511 3984 
Q 2250 4219 1831 4219 
Q 1534 4219 1204 4116 
Q 875 4013 500 3803 
L 500 4441 
Q 881 4594 1212 4672 
Q 1544 4750 1819 4750 
Q 2544 4750 2975 4387 
Q 3406 4025 3406 3419 
Q 3406 3131 3298 2873 
Q 3191 2616 2906 2266 
Q 2828 2175 2409 1742 
Q 1991 1309 1228 531 
z
" transform="scale(0.015625)"/>
       </defs>
       <use xlink:href="#DejaVuSans-32"/>
       <use xlink:href="#DejaVuSans-30" x="63.623047"/>
      </g>
     </g>
    </g>
    <g id="xtick_3">
     <g id="line2d_3">
      <g>
       <use xlink:href="#mc5de1c17d0" x="381.927273" y="256.32" style="stroke: #000000; stroke-width: 0.8"/>
      </g>
     </g>
     <g id="text_3">
      <!-- 40 -->
      <g transform="translate(375.564773 270.918437)scale(0.1 -0.1)">
       <defs>
        <path id="DejaVuSans-34" d="M 2419 4116 
L 825 1625 
L 2419 1625 
L 2419 4116 
z
M 2253 4666 
L 3047 4666 
L 3047 1625 
L 3713 1625 
L 3713 1100 
L 3047 1100 
L 3047 0 
L 2419 0 
L 2419 1100 
L 313 1100 
L 313 1709 
L 2253 4666 
z
" transform="scale(0.015625)"/>
       </defs>
       <use xlink:href="#DejaVuSans-34"/>
       <use xlink:href="#DejaVuSans-30" x="63.623047"/>
      </g>
     </g>
    </g>
    <g id="xtick_4">
     <g id="line2d_4">
      <g>
       <use xlink:href="#mc5de1c17d0" x="503.672727" y="256.32" style="stroke: #000000; stroke-width: 0.8"/>
      </g>
     </g>
     <g id="text_4">
      <!-- 60 -->
      <g transform="translate(497.310227 270.918437)scale(0.1 -0.1)">
       <defs>
        <path id="DejaVuSans-36" d="M 2113 2584 
Q 1688 2584 1439 2293 
Q 1191 2003 1191 1497 
Q 1191 994 1439 701 
Q 1688 409 2113 409 
Q 2538 409 2786 701 
Q 3034 994 3034 1497 
Q 3034 2003 2786 2293 
Q 2538 2584 2113 2584 
z
M 3366 4563 
L 3366 3988 
Q 3128 4100 2886 4159 
Q 2644 4219 2406 4219 
Q 1781 4219 1451 3797 
Q 1122 3375 1075 2522 
Q 1259 2794 1537 2939 
Q 1816 3084 2150 3084 
Q 2853 3084 3261 2657 
Q 3669 2231 3669 1497 
Q 3669 778 3244 343 
Q 2819 -91 2113 -91 
Q 1303 -91 875 529 
Q 447 1150 447 2328 
Q 447 3434 972 4092 
Q 1497 4750 2381 4750 
Q 2619 4750 2861 4703 
Q 3103 4656 3366 4563 
z
" transform="scale(0.015625)"/>
       </defs>
       <use xlink:href="#DejaVuSans-36"/>
       <use xlink:href="#DejaVuSans-30" x="63.623047"/>
      </g>
     </g>
    </g>
    <g id="xtick_5">
     <g id="line2d_5">
      <g>
       <use xlink:href="#mc5de1c17d0" x="625.418182" y="256.32" style="stroke: #000000; stroke-width: 0.8"/>
      </g>
     </g>
     <g id="text_5">
      <!-- 80 -->
      <g transform="translate(619.055682 270.918437)scale(0.1 -0.1)">
       <defs>
        <path id="DejaVuSans-38" d="M 2034 2216 
Q 1584 2216 1326 1975 
Q 1069 1734 1069 1313 
Q 1069 891 1326 650 
Q 1584 409 2034 409 
Q 2484 409 2743 651 
Q 3003 894 3003 1313 
Q 3003 1734 2745 1975 
Q 2488 2216 2034 2216 
z
M 1403 2484 
Q 997 2584 770 2862 
Q 544 3141 544 3541 
Q 544 4100 942 4425 
Q 1341 4750 2034 4750 
Q 2731 4750 3128 4425 
Q 3525 4100 3525 3541 
Q 3525 3141 3298 2862 
Q 3072 2584 2669 2484 
Q 3125 2378 3379 2068 
Q 3634 1759 3634 1313 
Q 3634 634 3220 271 
Q 2806 -91 2034 -91 
Q 1263 -91 848 271 
Q 434 634 434 1313 
Q 434 1759 690 2068 
Q 947 2378 1403 2484 
z
M 1172 3481 
Q 1172 3119 1398 2916 
Q 1625 2713 2034 2713 
Q 2441 2713 2670 2916 
Q 2900 3119 2900 3481 
Q 2900 3844 2670 4047 
Q 2441 4250 2034 4250 
Q 1625 4250 1398 4047 
Q 1172 3844 1172 3481 
z
" transform="scale(0.015625)"/>
       </defs>
       <use xlink:href="#DejaVuSans-38"/>
       <use xlink:href="#DejaVuSans-30" x="63.623047"/>
      </g>
     </g>
    </g>
    <g id="xtick_6">
     <g id="line2d_6">
      <g>
       <use xlink:href="#mc5de1c17d0" x="747.163636" y="256.32" style="stroke: #000000; stroke-width: 0.8"/>
      </g>
     </g>
     <g id="text_6">
      <!-- 100 -->
      <g transform="translate(737.619886 270.918437)scale(0.1 -0.1)">
       <defs>
        <path id="DejaVuSans-31" d="M 794 531 
L 1825 531 
L 1825 4091 
L 703 3866 
L 703 4441 
L 1819 4666 
L 2450 4666 
L 2450 531 
L 3481 531 
L 3481 0 
L 794 0 
L 794 531 
z
" transform="scale(0.015625)"/>
       </defs>
       <use xlink:href="#DejaVuSans-31"/>
       <use xlink:href="#DejaVuSans-30" x="63.623047"/>
       <use xlink:href="#DejaVuSans-30" x="127.246094"/>
      </g>
     </g>
    </g>
   </g>
   <g id="matplotlib.axis_2">
    <g id="ytick_1">
     <g id="line2d_7">
      <defs>
       <path id="m5ff6681d6f" d="M 0 0 
L -3.5 0 
" style="stroke: #000000; stroke-width: 0.8"/>
      </defs>
      <g>
       <use xlink:href="#m5ff6681d6f" x="108" y="242.573452" style="stroke: #000000; stroke-width: 0.8"/>
      </g>
     </g>
     <g id="text_7">
      <!-- 0.00 -->
      <g transform="translate(78.734375 246.37267)scale(0.1 -0.1)">
       <defs>
        <path id="DejaVuSans-2e" d="M 684 794 
L 1344 794 
L 1344 0 
L 684 0 
L 684 794 
z
" transform="scale(0.015625)"/>
       </defs>
       <use xlink:href="#DejaVuSans-30"/>
       <use xlink:href="#DejaVuSans-2e" x="63.623047"/>
       <use xlink:href="#DejaVuSans-30" x="95.410156"/>
       <use xlink:href="#DejaVuSans-30" x="159.033203"/>
      </g>
     </g>
    </g>
    <g id="ytick_2">
     <g id="line2d_8">
      <g>
       <use xlink:href="#m5ff6681d6f" x="108" y="212.866522" style="stroke: #000000; stroke-width: 0.8"/>
      </g>
     </g>
     <g id="text_8">
      <!-- 0.25 -->
      <g transform="translate(78.734375 216.665741)scale(0.1 -0.1)">
       <defs>
        <path id="DejaVuSans-35" d="M 691 4666 
L 3169 4666 
L 3169 4134 
L 1269 4134 
L 1269 2991 
Q 1406 3038 1543 3061 
Q 1681 3084 1819 3084 
Q 2600 3084 3056 2656 
Q 3513 2228 3513 1497 
Q 3513 744 3044 326 
Q 2575 -91 1722 -91 
Q 1428 -91 1123 -41 
Q 819 9 494 109 
L 494 744 
Q 775 591 1075 516 
Q 1375 441 1709 441 
Q 2250 441 2565 725 
Q 2881 1009 2881 1497 
Q 2881 1984 2565 2268 
Q 2250 2553 1709 2553 
Q 1456 2553 1204 2497 
Q 953 2441 691 2322 
L 691 4666 
z
" transform="scale(0.015625)"/>
       </defs>
       <use xlink:href="#DejaVuSans-30"/>
       <use xlink:href="#DejaVuSans-2e" x="63.623047"/>
       <use xlink:href="#DejaVuSans-32" x="95.410156"/>
       <use xlink:href="#DejaVuSans-35" x="159.033203"/>
      </g>
     </g>
    </g>
    <g id="ytick_3">
     <g id="line2d_9">
      <g>
       <use xlink:href="#m5ff6681d6f" x="108" y="183.159592" style="stroke: #000000; stroke-width: 0.8"/>
      </g>
     </g>
     <g id="text_9">
      <!-- 0.50 -->
      <g transform="translate(78.734375 186.958811)scale(0.1 -0.1)">
       <use xlink:href="#DejaVuSans-30"/>
       <use xlink:href="#DejaVuSans-2e" x="63.623047"/>
       <use xlink:href="#DejaVuSans-35" x="95.410156"/>
       <use xlink:href="#DejaVuSans-30" x="159.033203"/>
      </g>
     </g>
    </g>
    <g id="ytick_4">
     <g id="line2d_10">
      <g>
       <use xlink:href="#m5ff6681d6f" x="108" y="153.452662" style="stroke: #000000; stroke-width: 0.8"/>
      </g>
     </g>
     <g id="text_10">
      <!-- 0.75 -->
      <g transform="translate(78.734375 157.251881)scale(0.1 -0.1)">
       <defs>
        <path id="DejaVuSans-37" d="M 525 4666 
L 3525 4666 
L 3525 4397 
L 1831 0 
L 1172 0 
L 2766 4134 
L 525 4134 
L 525 4666 
z
" transform="scale(0.015625)"/>
       </defs>
       <use xlink:href="#DejaVuSans-30"/>
       <use xlink:href="#DejaVuSans-2e" x="63.623047"/>
       <use xlink:href="#DejaVuSans-37" x="95.410156"/>
       <use xlink:href="#DejaVuSans-35" x="159.033203"/>
      </g>
     </g>
    </g>
    <g id="ytick_5">
     <g id="line2d_11">
      <g>
       <use xlink:href="#m5ff6681d6f" x="108" y="123.745732" style="stroke: #000000; stroke-width: 0.8"/>
      </g>
     </g>
     <g id="text_11">
      <!-- 1.00 -->
      <g transform="translate(78.734375 127.544951)scale(0.1 -0.1)">
       <use xlink:href="#DejaVuSans-31"/>
       <use xlink:href="#DejaVuSans-2e" x="63.623047"/>
       <use xlink:href="#DejaVuSans-30" x="95.410156"/>
       <use xlink:href="#DejaVuSans-30" x="159.033203"/>
      </g>
     </g>
    </g>
    <g id="ytick_6">
     <g id="line2d_12">
      <g>
       <use xlink:href="#m5ff6681d6f" x="108" y="94.038803" style="stroke: #000000; stroke-width: 0.8"/>
      </g>
     </g>
     <g id="text_12">
      <!-- 1.25 -->
      <g transform="translate(78.734375 97.838021)scale(0.1 -0.1)">
       <use xlink:href="#DejaVuSans-31"/>
       <use xlink:href="#DejaVuSans-2e" x="63.623047"/>
       <use xlink:href="#DejaVuSans-32" x="95.410156"/>
       <use xlink:href="#DejaVuSans-35" x="159.033203"/>
      </g>
     </g>
    </g>
    <g id="ytick_7">
     <g id="line2d_13">
      <g>
       <use xlink:href="#m5ff6681d6f" x="108" y="64.331873" style="stroke: #000000; stroke-width: 0.8"/>
      </g>
     </g>
     <g id="text_13">
      <!-- 1.50 -->
      <g transform="translate(78.734375 68.131092)scale(0.1 -0.1)">
       <use xlink:href="#DejaVuSans-31"/>
       <use xlink:href="#DejaVuSans-2e" x="63.623047"/>
       <use xlink:href="#DejaVuSans-35" x="95.410156"/>
       <use xlink:href="#DejaVuSans-30" x="159.033203"/>
      </g>
     </g>
    </g>
    <g id="ytick_8">
     <g id="line2d_14">
      <g>
       <use xlink:href="#m5ff6681d6f" x="108" y="34.624943" style="stroke: #000000; stroke-width: 0.8"/>
      </g>
     </g>
     <g id="text_14">
      <!-- 1.75 -->
      <g transform="translate(78.734375 38.424162)scale(0.1 -0.1)">
       <use xlink:href="#DejaVuSans-31"/>
       <use xlink:href="#DejaVuSans-2e" x="63.623047"/>
       <use xlink:href="#DejaVuSans-37" x="95.410156"/>
       <use xlink:href="#DejaVuSans-35" x="159.033203"/>
      </g>
     </g>
    </g>
   </g>
   <g id="line2d_15">
    <path d="M 138.436364 190.183004 
L 144.523636 189.161905 
L 150.610909 188.248183 
L 156.698182 187.439018 
L 162.785455 186.731608 
L 168.872727 186.123171 
L 174.96 185.610944 
L 181.047273 185.192182 
L 187.134545 184.864158 
L 193.221818 184.624166 
L 199.309091 184.469517 
L 205.396364 184.397541 
L 211.483636 184.405586 
L 217.570909 184.491022 
L 223.658182 184.651234 
L 229.745455 184.883628 
L 235.832727 185.185628 
L 241.92 185.554676 
L 248.007273 185.988234 
L 254.094545 186.483783 
L 260.181818 187.038821 
L 266.269091 187.650866 
L 272.356364 188.317456 
L 278.443636 189.036145 
L 284.530909 189.804508 
L 290.618182 190.620137 
L 296.705455 191.480644 
L 302.792727 192.38366 
L 308.88 193.326833 
L 314.967273 194.307833 
L 321.054545 195.324345 
L 327.141818 196.374075 
L 333.229091 197.454747 
L 339.316364 198.564105 
L 345.403636 199.699909 
L 351.490909 200.859942 
L 357.578182 202.042001 
L 363.665455 203.243905 
L 369.752727 204.463491 
L 375.84 205.698615 
L 381.927273 206.94715 
L 388.014545 208.206991 
L 394.101818 209.476048 
L 400.189091 210.752253 
L 406.276364 212.033554 
L 412.363636 213.317921 
L 418.450909 214.60334 
L 424.538182 215.887816 
L 430.625455 217.169375 
L 436.712727 218.446059 
L 442.8 219.715931 
L 448.887273 220.977071 
L 454.974545 222.227579 
L 461.061818 223.465573 
L 467.149091 224.68919 
L 473.236364 225.896585 
L 479.323636 227.085935 
L 485.410909 228.255431 
L 491.498182 229.403286 
L 497.585455 230.52773 
L 503.672727 231.627015 
L 509.76 232.699407 
L 515.847273 233.743194 
L 521.934545 234.756682 
L 528.021818 235.738195 
L 534.109091 236.686078 
L 540.196364 237.598692 
L 546.283636 238.474418 
L 552.370909 239.311655 
L 558.458182 240.108824 
L 564.545455 240.86436 
L 570.632727 241.57672 
L 576.72 242.244378 
L 582.807273 242.865829 
L 588.894545 243.439584 
L 594.981818 243.964174 
L 601.069091 244.43815 
L 607.156364 244.860079 
L 613.243636 245.22855 
L 619.330909 245.542169 
L 625.418182 245.799559 
L 631.505455 245.999366 
L 637.592727 246.140251 
L 643.68 246.220896 
L 649.767273 246.24 
L 655.854545 246.196283 
L 661.941818 246.088481 
L 668.029091 245.915351 
L 674.116364 245.675668 
L 680.203636 245.368226 
L 686.290909 244.991837 
L 692.378182 244.545333 
L 698.465455 244.027563 
L 704.552727 243.437397 
L 710.64 242.773722 
L 716.727273 242.035444 
L 722.814545 241.221489 
L 728.901818 240.3308 
L 734.989091 239.36234 
L 741.076364 238.31509 
L 747.163636 237.188051 
" clip-path="url(#pbdbb8f923d)" style="fill: none; stroke: #000000; stroke-width: 3; stroke-linecap: square"/>
   </g>
   <g id="patch_3">
    <path d="M 108 256.32 
L 108 34.56 
" style="fill: none; stroke: #000000; stroke-width: 0.8; stroke-linejoin: miter; stroke-linecap: square"/>
   </g>
   <g id="patch_4">
    <path d="M 777.6 256.32 
L 777.6 34.56 
" style="fill: none; stroke: #000000; stroke-width: 0.8; stroke-linejoin: miter; stroke-linecap: square"/>
   </g>
   <g id="patch_5">
    <path d="M 108 256.32 
L 777.6 256.32 
" style="fill: none; stroke: #000000; stroke-width: 0.8; stroke-linejoin: miter; stroke-linecap: square"/>
   </g>
   <g id="patch_6">
    <path d="M 108 34.56 
L 777.6 34.56 
" style="fill: none; stroke: #000000; stroke-width: 0.8; stroke-linejoin: miter; stroke-linecap: square"/>
   </g>
   <g id="text_15">
    <!-- Sox9 -->
    <g transform="translate(790.992 160.616562)scale(0.55 -0.55)">
     <defs>
      <path id="DejaVuSans-53" d="M 3425 4513 
L 3425 3897 
Q 3066 4069 2747 4153 
Q 2428 4238 2131 4238 
Q 1616 4238 1336 4038 
Q 1056 3838 1056 3469 
Q 1056 3159 1242 3001 
Q 1428 2844 1947 2747 
L 2328 2669 
Q 3034 2534 3370 2195 
Q 3706 1856 3706 1288 
Q 3706 609 3251 259 
Q 2797 -91 1919 -91 
Q 1588 -91 1214 -16 
Q 841 59 441 206 
L 441 856 
Q 825 641 1194 531 
Q 1563 422 1919 422 
Q 2459 422 2753 634 
Q 3047 847 3047 1241 
Q 3047 1584 2836 1778 
Q 2625 1972 2144 2069 
L 1759 2144 
Q 1053 2284 737 2584 
Q 422 2884 422 3419 
Q 422 4038 858 4394 
Q 1294 4750 2059 4750 
Q 2388 4750 2728 4690 
Q 3069 4631 3425 4513 
z
" transform="scale(0.015625)"/>
      <path id="DejaVuSans-6f" d="M 1959 3097 
Q 1497 3097 1228 2736 
Q 959 2375 959 1747 
Q 959 1119 1226 758 
Q 1494 397 1959 397 
Q 2419 397 2687 759 
Q 2956 1122 2956 1747 
Q 2956 2369 2687 2733 
Q 2419 3097 1959 3097 
z
M 1959 3584 
Q 2709 3584 3137 3096 
Q 3566 2609 3566 1747 
Q 3566 888 3137 398 
Q 2709 -91 1959 -91 
Q 1206 -91 779 398 
Q 353 888 353 1747 
Q 353 2609 779 3096 
Q 1206 3584 1959 3584 
z
" transform="scale(0.015625)"/>
      <path id="DejaVuSans-78" d="M 3513 3500 
L 2247 1797 
L 3578 0 
L 2900 0 
L 1881 1375 
L 863 0 
L 184 0 
L 1544 1831 
L 300 3500 
L 978 3500 
L 1906 2253 
L 2834 3500 
L 3513 3500 
z
" transform="scale(0.015625)"/>
      <path id="DejaVuSans-39" d="M 703 97 
L 703 672 
Q 941 559 1184 500 
Q 1428 441 1663 441 
Q 2288 441 2617 861 
Q 2947 1281 2994 2138 
Q 2813 1869 2534 1725 
Q 2256 1581 1919 1581 
Q 1219 1581 811 2004 
Q 403 2428 403 3163 
Q 403 3881 828 4315 
Q 1253 4750 1959 4750 
Q 2769 4750 3195 4129 
Q 3622 3509 3622 2328 
Q 3622 1225 3098 567 
Q 2575 -91 1691 -91 
Q 1453 -91 1209 -44 
Q 966 3 703 97 
z
M 1959 2075 
Q 2384 2075 2632 2365 
Q 2881 2656 2881 3163 
Q 2881 3666 2632 3958 
Q 2384 4250 1959 4250 
Q 1534 4250 1286 3958 
Q 1038 3666 1038 3163 
Q 1038 2656 1286 2365 
Q 1534 2075 1959 2075 
z
" transform="scale(0.015625)"/>
     </defs>
     <use xlink:href="#DejaVuSans-53"/>
     <use xlink:href="#DejaVuSans-6f" x="63.476562"/>
     <use xlink:href="#DejaVuSans-78" x="121.533203"/>
     <use xlink:href="#DejaVuSans-39" x="180.712891"/>
    </g>
   </g>
  </g>
 </g>
 <defs>
  <clipPath id="pbdbb8f923d">
   <rect x="108" y="34.56" width="669.6" height="221.76"/>
  </clipPath>
 </defs>
</svg>
