<?xml version="1.0" encoding="utf-8" standalone="no"?>
<!DOCTYPE svg PUBLIC "-//W3C//DTD SVG 1.1//EN"
  "http://www.w3.org/Graphics/SVG/1.1/DTD/svg11.dtd">
<svg xmlns:xlink="http://www.w3.org/1999/xlink" width="408.96pt" height="305.998125pt" viewBox="0 0 408.96 305.998125" xmlns="http://www.w3.org/2000/svg" version="1.1">
 <metadata>
  <rdf:RDF xmlns:dc="http://purl.org/dc/elements/1.1/" xmlns:cc="http://creativecommons.org/ns#" xmlns:rdf="http://www.w3.org/1999/02/22-rdf-syntax-ns#">
   <cc:Work>
    <dc:type rdf:resource="http://purl.org/dc/dcmitype/StillImage"/>
    <dc:date>2024-01-31T16:31:28.270812</dc:date>
    <dc:format>image/svg+xml</dc:format>
    <dc:creator>
     <cc:Agent>
      <dc:title>Matplotlib v3.5.3, https://matplotlib.org/</dc:title>
     </cc:Agent>
    </dc:creator>
   </cc:Work>
  </rdf:RDF>
 </metadata>
 <defs>
  <style type="text/css">*{stroke-linejoin: round; stroke-linecap: butt}</style>
 </defs>
 <g id="figure_1">
  <g id="patch_1">
   <path d="M 0 305.998125 
L 408.96 305.998125 
L 408.96 0 
L 0 0 
z
" style="fill: #ffffff"/>
  </g>
  <g id="axes_1">
   <g id="patch_2">
    <path d="M 7.2 298.798125 
L 401.76 298.798125 
L 401.76 22.318125 
L 7.2 22.318125 
z
" style="fill: #ffffff"/>
   </g>
   <g id="LineCollection_1">
    <path d="M 367.521322 46.310191 
L 213.059449 58.203887 
" clip-path="url(#p710fa0cc56)" style="fill: none; stroke: #000000; stroke-width: 3.511114"/>
    <path d="M 367.521322 46.310191 
L 296.248372 137.949582 
" clip-path="url(#p710fa0cc56)" style="fill: none; stroke: #000000; stroke-width: 4.564582"/>
    <path d="M 367.521322 46.310191 
L 265.082028 274.806059 
" clip-path="url(#p710fa0cc56)" style="fill: none; stroke: #000000; stroke-width: 0.365416"/>
    <path d="M 367.521322 46.310191 
L 41.438678 117.947468 
" clip-path="url(#p710fa0cc56)" style="fill: none; stroke: #000000; stroke-width: 0.093892"/>
    <path d="M 367.521322 46.310191 
L 83.021902 189.055445 
" clip-path="url(#p710fa0cc56)" style="fill: none; stroke: #000000; stroke-width: 0.195948"/>
    <path d="M 213.059449 58.203887 
L 296.248372 137.949582 
" clip-path="url(#p710fa0cc56)" style="fill: none; stroke: #000000; stroke-width: 4.80645"/>
    <path d="M 213.059449 58.203887 
L 110.030114 105.521305 
" clip-path="url(#p710fa0cc56)" style="fill: none; stroke: #000000; stroke-width: 2.225452"/>
    <path d="M 213.059449 58.203887 
L 41.438678 117.947468 
" clip-path="url(#p710fa0cc56)" style="fill: none; stroke: #000000; stroke-width: 2.567829"/>
    <path d="M 213.059449 58.203887 
L 83.021902 189.055445 
" clip-path="url(#p710fa0cc56)" style="fill: none; stroke: #000000; stroke-width: 2.34454"/>
    <path d="M 213.059449 58.203887 
L 157.301665 183.800788 
" clip-path="url(#p710fa0cc56)" style="fill: none; stroke: #000000; stroke-width: 0.366833"/>
    <path d="M 296.248372 137.949582 
L 265.082028 274.806059 
" clip-path="url(#p710fa0cc56)" style="fill: none; stroke: #000000; stroke-width: 2.984234"/>
    <path d="M 296.248372 137.949582 
L 110.030114 105.521305 
" clip-path="url(#p710fa0cc56)" style="fill: none; stroke: #000000; stroke-width: 1.132479"/>
    <path d="M 296.248372 137.949582 
L 41.438678 117.947468 
" clip-path="url(#p710fa0cc56)" style="fill: none; stroke: #000000; stroke-width: 0.3539"/>
    <path d="M 296.248372 137.949582 
L 83.021902 189.055445 
" clip-path="url(#p710fa0cc56)" style="fill: none; stroke: #000000; stroke-width: 0.246191"/>
    <path d="M 296.248372 137.949582 
L 157.301665 183.800788 
" clip-path="url(#p710fa0cc56)" style="fill: none; stroke: #000000; stroke-width: 2.42674"/>
    <path d="M 265.082028 274.806059 
L 83.021902 189.055445 
" clip-path="url(#p710fa0cc56)" style="fill: none; stroke: #000000; stroke-width: 2.075989"/>
    <path d="M 265.082028 274.806059 
L 157.301665 183.800788 
" clip-path="url(#p710fa0cc56)" style="fill: none; stroke: #000000; stroke-width: 1.989489"/>
    <path d="M 110.030114 105.521305 
L 41.438678 117.947468 
" clip-path="url(#p710fa0cc56)" style="fill: none; stroke: #000000; stroke-width: 7.5"/>
    <path d="M 110.030114 105.521305 
L 83.021902 189.055445 
" clip-path="url(#p710fa0cc56)" style="fill: none; stroke: #000000; stroke-width: 7.5"/>
    <path d="M 110.030114 105.521305 
L 157.301665 183.800788 
" clip-path="url(#p710fa0cc56)" style="fill: none; stroke: #000000; stroke-width: 7.5"/>
    <path d="M 41.438678 117.947468 
L 83.021902 189.055445 
" clip-path="url(#p710fa0cc56)" style="fill: none; stroke: #000000; stroke-width: 7.5"/>
    <path d="M 41.438678 117.947468 
L 157.301665 183.800788 
" clip-path="url(#p710fa0cc56)" style="fill: none; stroke: #000000; stroke-width: 5.477017"/>
    <path d="M 83.021902 189.055445 
L 157.301665 183.800788 
" clip-path="url(#p710fa0cc56)" style="fill: none; stroke: #000000; stroke-width: 2.286059"/>
   </g>
   <g id="PathCollection_1">
    <path d="M 367.521322 53.175912 
C 369.342133 53.175912 371.088612 52.452496 372.37612 51.164989 
C 373.663627 49.877481 374.387043 48.131001 374.387043 46.310191 
C 374.387043 44.489381 373.663627 42.742901 372.37612 41.455394 
C 371.088612 40.167886 369.342133 39.444471 367.521322 39.444471 
C 365.700512 39.444471 363.954032 40.167886 362.666525 41.455394 
C 361.379018 42.742901 360.655602 44.489381 360.655602 46.310191 
C 360.655602 48.131001 361.379018 49.877481 362.666525 51.164989 
C 363.954032 52.452496 365.700512 53.175912 367.521322 53.175912 
z
" clip-path="url(#p710fa0cc56)" style="fill: #1f77b4; stroke: #1f77b4"/>
    <path d="M 213.059449 64.849028 
C 214.821761 64.849028 216.51213 64.148854 217.758273 62.902711 
C 219.004416 61.656568 219.70459 59.966199 219.70459 58.203887 
C 219.70459 56.441574 219.004416 54.751205 217.758273 53.505062 
C 216.51213 52.258919 214.821761 51.558745 213.059449 51.558745 
C 211.297137 51.558745 209.606767 52.258919 208.360625 53.505062 
C 207.114482 54.751205 206.414308 56.441574 206.414308 58.203887 
C 206.414308 59.966199 207.114482 61.656568 208.360625 62.902711 
C 209.606767 64.148854 211.297137 64.849028 213.059449 64.849028 
z
" clip-path="url(#p710fa0cc56)" style="fill: #ff7f0e; stroke: #ff7f0e"/>
    <path d="M 296.248372 144.434481 
C 297.968187 144.434481 299.617795 143.751191 300.833888 142.535098 
C 302.049981 141.319005 302.733271 139.669397 302.733271 137.949582 
C 302.733271 136.229766 302.049981 134.580159 300.833888 133.364065 
C 299.617795 132.147972 297.968187 131.464682 296.248372 131.464682 
C 294.528556 131.464682 292.878949 132.147972 291.662855 133.364065 
C 290.446762 134.580159 289.763472 136.229766 289.763472 137.949582 
C 289.763472 139.669397 290.446762 141.319005 291.662855 142.535098 
C 292.878949 143.751191 294.528556 144.434481 296.248372 144.434481 
z
" clip-path="url(#p710fa0cc56)" style="fill: #2ca02c; stroke: #2ca02c"/>
    <path d="M 265.082028 281.20617 
C 266.779357 281.20617 268.407397 280.531814 269.60759 279.331621 
C 270.807783 278.131428 271.482139 276.503388 271.482139 274.806059 
C 271.482139 273.10873 270.807783 271.48069 269.60759 270.280497 
C 268.407397 269.080304 266.779357 268.405948 265.082028 268.405948 
C 263.384699 268.405948 261.756659 269.080304 260.556466 270.280497 
C 259.356273 271.48069 258.681917 273.10873 258.681917 274.806059 
C 258.681917 276.503388 259.356273 278.131428 260.556466 279.331621 
C 261.756659 280.531814 263.384699 281.20617 265.082028 281.20617 
z
" clip-path="url(#p710fa0cc56)" style="fill: #d62728; stroke: #d62728"/>
    <path d="M 110.030114 111.594503 
C 111.640745 111.594503 113.185625 110.954592 114.324513 109.815704 
C 115.463401 108.676816 116.103311 107.131936 116.103311 105.521305 
C 116.103311 103.910674 115.463401 102.365794 114.324513 101.226906 
C 113.185625 100.088018 111.640745 99.448107 110.030114 99.448107 
C 108.419483 99.448107 106.874603 100.088018 105.735715 101.226906 
C 104.596827 102.365794 103.956916 103.910674 103.956916 105.521305 
C 103.956916 107.131936 104.596827 108.676816 105.735715 109.815704 
C 106.874603 110.954592 108.419483 111.594503 110.030114 111.594503 
z
" clip-path="url(#p710fa0cc56)" style="fill: #9467bd; stroke: #9467bd"/>
    <path d="M 41.438678 123.691144 
C 42.961918 123.691144 44.422976 123.085954 45.50007 122.00886 
C 46.577163 120.931766 47.182353 119.470709 47.182353 117.947468 
C 47.182353 116.424227 46.577163 114.96317 45.50007 113.886076 
C 44.422976 112.808982 42.961918 112.203792 41.438678 112.203792 
C 39.915437 112.203792 38.454379 112.808982 37.377286 113.886076 
C 36.300192 114.96317 35.695002 116.424227 35.695002 117.947468 
C 35.695002 119.470709 36.300192 120.931766 37.377286 122.00886 
C 38.454379 123.085954 39.915437 123.691144 41.438678 123.691144 
z
" clip-path="url(#p710fa0cc56)" style="fill: #8c564b; stroke: #8c564b"/>
    <path d="M 83.021902 194.738333 
C 84.529021 194.738333 85.974616 194.139548 87.04031 193.073854 
C 88.106005 192.008159 88.704789 190.562565 88.704789 189.055445 
C 88.704789 187.548326 88.106005 186.102731 87.04031 185.037037 
C 85.974616 183.971343 84.529021 183.372558 83.021902 183.372558 
C 81.514783 183.372558 80.069188 183.971343 79.003494 185.037037 
C 77.937799 186.102731 77.339015 187.548326 77.339015 189.055445 
C 77.339015 190.562565 77.937799 192.008159 79.003494 193.073854 
C 80.069188 194.139548 81.514783 194.738333 83.021902 194.738333 
z
" clip-path="url(#p710fa0cc56)" style="fill: #e377c2; stroke: #e377c2"/>
    <path d="M 157.301665 189.355888 
C 158.774895 189.355888 160.187984 188.770568 161.229714 187.728837 
C 162.271445 186.687106 162.856766 185.274018 162.856766 183.800788 
C 162.856766 182.327558 162.271445 180.914469 161.229714 179.872739 
C 160.187984 178.831008 158.774895 178.245687 157.301665 178.245687 
C 155.828435 178.245687 154.415347 178.831008 153.373616 179.872739 
C 152.331885 180.914469 151.746565 182.327558 151.746565 183.800788 
C 151.746565 185.274018 152.331885 186.687106 153.373616 187.728837 
C 154.415347 188.770568 155.828435 189.355888 157.301665 189.355888 
z
" clip-path="url(#p710fa0cc56)" style="fill: #7f7f7f; stroke: #7f7f7f"/>
   </g>
   <g id="matplotlib.axis_1"/>
   <g id="matplotlib.axis_2"/>
   <g id="patch_3">
    <path d="M 7.2 298.798125 
L 7.2 22.318125 
" style="fill: none; stroke: #000000; stroke-width: 0.8; stroke-linejoin: miter; stroke-linecap: square"/>
   </g>
   <g id="patch_4">
    <path d="M 401.76 298.798125 
L 401.76 22.318125 
" style="fill: none; stroke: #000000; stroke-width: 0.8; stroke-linejoin: miter; stroke-linecap: square"/>
   </g>
   <g id="patch_5">
    <path d="M 7.2 298.798125 
L 401.76 298.798125 
" style="fill: none; stroke: #000000; stroke-width: 0.8; stroke-linejoin: miter; stroke-linecap: square"/>
   </g>
   <g id="patch_6">
    <path d="M 7.2 22.318125 
L 401.76 22.318125 
" style="fill: none; stroke: #000000; stroke-width: 0.8; stroke-linejoin: miter; stroke-linecap: square"/>
   </g>
   <g id="text_1">
    <!-- 0 -->
    <g transform="translate(364.042416 49.069566)scale(0.1 -0.1)">
     <defs>
      <path id="DejaVuSans-Bold-30" d="M 2944 2338 
Q 2944 3213 2780 3570 
Q 2616 3928 2228 3928 
Q 1841 3928 1675 3570 
Q 1509 3213 1509 2338 
Q 1509 1453 1675 1090 
Q 1841 728 2228 728 
Q 2613 728 2778 1090 
Q 2944 1453 2944 2338 
z
M 4147 2328 
Q 4147 1169 3647 539 
Q 3147 -91 2228 -91 
Q 1306 -91 806 539 
Q 306 1169 306 2328 
Q 306 3491 806 4120 
Q 1306 4750 2228 4750 
Q 3147 4750 3647 4120 
Q 4147 3491 4147 2328 
z
" transform="scale(0.015625)"/>
     </defs>
     <use xlink:href="#DejaVuSans-Bold-30"/>
    </g>
   </g>
   <g id="text_2">
    <!-- 1 -->
    <g transform="translate(209.580543 60.963262)scale(0.1 -0.1)">
     <defs>
      <path id="DejaVuSans-Bold-31" d="M 750 831 
L 1813 831 
L 1813 3847 
L 722 3622 
L 722 4441 
L 1806 4666 
L 2950 4666 
L 2950 831 
L 4013 831 
L 4013 0 
L 750 0 
L 750 831 
z
" transform="scale(0.015625)"/>
     </defs>
     <use xlink:href="#DejaVuSans-Bold-31"/>
    </g>
   </g>
   <g id="text_3">
    <!-- 2 -->
    <g transform="translate(292.769465 140.708957)scale(0.1 -0.1)">
     <defs>
      <path id="DejaVuSans-Bold-32" d="M 1844 884 
L 3897 884 
L 3897 0 
L 506 0 
L 506 884 
L 2209 2388 
Q 2438 2594 2547 2791 
Q 2656 2988 2656 3200 
Q 2656 3528 2436 3728 
Q 2216 3928 1850 3928 
Q 1569 3928 1234 3808 
Q 900 3688 519 3450 
L 519 4475 
Q 925 4609 1322 4679 
Q 1719 4750 2100 4750 
Q 2938 4750 3402 4381 
Q 3866 4013 3866 3353 
Q 3866 2972 3669 2642 
Q 3472 2313 2841 1759 
L 1844 884 
z
" transform="scale(0.015625)"/>
     </defs>
     <use xlink:href="#DejaVuSans-Bold-32"/>
    </g>
   </g>
   <g id="text_4">
    <!-- 3 -->
    <g transform="translate(261.603122 277.565434)scale(0.1 -0.1)">
     <defs>
      <path id="DejaVuSans-Bold-33" d="M 2981 2516 
Q 3453 2394 3698 2092 
Q 3944 1791 3944 1325 
Q 3944 631 3412 270 
Q 2881 -91 1863 -91 
Q 1503 -91 1142 -33 
Q 781 25 428 141 
L 428 1069 
Q 766 900 1098 814 
Q 1431 728 1753 728 
Q 2231 728 2486 893 
Q 2741 1059 2741 1369 
Q 2741 1688 2480 1852 
Q 2219 2016 1709 2016 
L 1228 2016 
L 1228 2791 
L 1734 2791 
Q 2188 2791 2409 2933 
Q 2631 3075 2631 3366 
Q 2631 3634 2415 3781 
Q 2200 3928 1806 3928 
Q 1516 3928 1219 3862 
Q 922 3797 628 3669 
L 628 4550 
Q 984 4650 1334 4700 
Q 1684 4750 2022 4750 
Q 2931 4750 3382 4451 
Q 3834 4153 3834 3553 
Q 3834 3144 3618 2883 
Q 3403 2622 2981 2516 
z
" transform="scale(0.015625)"/>
     </defs>
     <use xlink:href="#DejaVuSans-Bold-33"/>
    </g>
   </g>
   <g id="text_5">
    <!-- 4 -->
    <g transform="translate(106.551208 108.28068)scale(0.1 -0.1)">
     <defs>
      <path id="DejaVuSans-Bold-34" d="M 2356 3675 
L 1038 1722 
L 2356 1722 
L 2356 3675 
z
M 2156 4666 
L 3494 4666 
L 3494 1722 
L 4159 1722 
L 4159 850 
L 3494 850 
L 3494 0 
L 2356 0 
L 2356 850 
L 288 850 
L 288 1881 
L 2156 4666 
z
" transform="scale(0.015625)"/>
     </defs>
     <use xlink:href="#DejaVuSans-Bold-34"/>
    </g>
   </g>
   <g id="text_6">
    <!-- 5 -->
    <g transform="translate(37.959771 120.706843)scale(0.1 -0.1)">
     <defs>
      <path id="DejaVuSans-Bold-35" d="M 678 4666 
L 3669 4666 
L 3669 3781 
L 1638 3781 
L 1638 3059 
Q 1775 3097 1914 3117 
Q 2053 3138 2203 3138 
Q 3056 3138 3531 2711 
Q 4006 2284 4006 1522 
Q 4006 766 3489 337 
Q 2972 -91 2053 -91 
Q 1656 -91 1267 -14 
Q 878 63 494 219 
L 494 1166 
Q 875 947 1217 837 
Q 1559 728 1863 728 
Q 2300 728 2551 942 
Q 2803 1156 2803 1522 
Q 2803 1891 2551 2103 
Q 2300 2316 1863 2316 
Q 1603 2316 1309 2248 
Q 1016 2181 678 2041 
L 678 4666 
z
" transform="scale(0.015625)"/>
     </defs>
     <use xlink:href="#DejaVuSans-Bold-35"/>
    </g>
   </g>
   <g id="text_7">
    <!-- 6 -->
    <g transform="translate(79.542996 191.81482)scale(0.1 -0.1)">
     <defs>
      <path id="DejaVuSans-Bold-36" d="M 2316 2303 
Q 2000 2303 1842 2098 
Q 1684 1894 1684 1484 
Q 1684 1075 1842 870 
Q 2000 666 2316 666 
Q 2634 666 2792 870 
Q 2950 1075 2950 1484 
Q 2950 1894 2792 2098 
Q 2634 2303 2316 2303 
z
M 3803 4544 
L 3803 3681 
Q 3506 3822 3243 3889 
Q 2981 3956 2731 3956 
Q 2194 3956 1894 3657 
Q 1594 3359 1544 2772 
Q 1750 2925 1990 3001 
Q 2231 3078 2516 3078 
Q 3231 3078 3670 2659 
Q 4109 2241 4109 1563 
Q 4109 813 3618 361 
Q 3128 -91 2303 -91 
Q 1394 -91 895 523 
Q 397 1138 397 2266 
Q 397 3422 980 4083 
Q 1563 4744 2578 4744 
Q 2900 4744 3203 4694 
Q 3506 4644 3803 4544 
z
" transform="scale(0.015625)"/>
     </defs>
     <use xlink:href="#DejaVuSans-Bold-36"/>
    </g>
   </g>
   <g id="text_8">
    <!-- 7 -->
    <g transform="translate(153.822759 186.560163)scale(0.1 -0.1)">
     <defs>
      <path id="DejaVuSans-Bold-37" d="M 428 4666 
L 3944 4666 
L 3944 3988 
L 2125 0 
L 953 0 
L 2675 3781 
L 428 3781 
L 428 4666 
z
" transform="scale(0.015625)"/>
     </defs>
     <use xlink:href="#DejaVuSans-Bold-37"/>
    </g>
   </g>
   <g id="text_9">
    <!-- k =5.4 -->
    <g transform="translate(184.529063 16.318125)scale(0.12 -0.12)">
     <defs>
      <path id="DejaVuSans-6b" d="M 581 4863 
L 1159 4863 
L 1159 1991 
L 2875 3500 
L 3609 3500 
L 1753 1863 
L 3688 0 
L 2938 0 
L 1159 1709 
L 1159 0 
L 581 0 
L 581 4863 
z
" transform="scale(0.015625)"/>
      <path id="DejaVuSans-20" transform="scale(0.015625)"/>
      <path id="DejaVuSans-3d" d="M 678 2906 
L 4684 2906 
L 4684 2381 
L 678 2381 
L 678 2906 
z
M 678 1631 
L 4684 1631 
L 4684 1100 
L 678 1100 
L 678 1631 
z
" transform="scale(0.015625)"/>
      <path id="DejaVuSans-35" d="M 691 4666 
L 3169 4666 
L 3169 4134 
L 1269 4134 
L 1269 2991 
Q 1406 3038 1543 3061 
Q 1681 3084 1819 3084 
Q 2600 3084 3056 2656 
Q 3513 2228 3513 1497 
Q 3513 744 3044 326 
Q 2575 -91 1722 -91 
Q 1428 -91 1123 -41 
Q 819 9 494 109 
L 494 744 
Q 775 591 1075 516 
Q 1375 441 1709 441 
Q 2250 441 2565 725 
Q 2881 1009 2881 1497 
Q 2881 1984 2565 2268 
Q 2250 2553 1709 2553 
Q 1456 2553 1204 2497 
Q 953 2441 691 2322 
L 691 4666 
z
" transform="scale(0.015625)"/>
      <path id="DejaVuSans-2e" d="M 684 794 
L 1344 794 
L 1344 0 
L 684 0 
L 684 794 
z
" transform="scale(0.015625)"/>
      <path id="DejaVuSans-34" d="M 2419 4116 
L 825 1625 
L 2419 1625 
L 2419 4116 
z
M 2253 4666 
L 3047 4666 
L 3047 1625 
L 3713 1625 
L 3713 1100 
L 3047 1100 
L 3047 0 
L 2419 0 
L 2419 1100 
L 313 1100 
L 313 1709 
L 2253 4666 
z
" transform="scale(0.015625)"/>
     </defs>
     <use xlink:href="#DejaVuSans-6b"/>
     <use xlink:href="#DejaVuSans-20" x="57.910156"/>
     <use xlink:href="#DejaVuSans-3d" x="89.697266"/>
     <use xlink:href="#DejaVuSans-35" x="173.486328"/>
     <use xlink:href="#DejaVuSans-2e" x="237.109375"/>
     <use xlink:href="#DejaVuSans-34" x="268.896484"/>
    </g>
   </g>
  </g>
 </g>
 <defs>
  <clipPath id="p710fa0cc56">
   <rect x="7.2" y="22.318125" width="394.56" height="276.48"/>
  </clipPath>
 </defs>
</svg>
