<?xml version="1.0" encoding="utf-8" standalone="no"?>
<!DOCTYPE svg PUBLIC "-//W3C//DTD SVG 1.1//EN"
  "http://www.w3.org/Graphics/SVG/1.1/DTD/svg11.dtd">
<svg xmlns:xlink="http://www.w3.org/1999/xlink" width="864pt" height="288pt" viewBox="0 0 864 288" xmlns="http://www.w3.org/2000/svg" version="1.1">
 <metadata>
  <rdf:RDF xmlns:dc="http://purl.org/dc/elements/1.1/" xmlns:cc="http://creativecommons.org/ns#" xmlns:rdf="http://www.w3.org/1999/02/22-rdf-syntax-ns#">
   <cc:Work>
    <dc:type rdf:resource="http://purl.org/dc/dcmitype/StillImage"/>
    <dc:date>2024-01-31T16:31:33.218902</dc:date>
    <dc:format>image/svg+xml</dc:format>
    <dc:creator>
     <cc:Agent>
      <dc:title>Matplotlib v3.5.3, https://matplotlib.org/</dc:title>
     </cc:Agent>
    </dc:creator>
   </cc:Work>
  </rdf:RDF>
 </metadata>
 <defs>
  <style type="text/css">*{stroke-linejoin: round; stroke-linecap: butt}</style>
 </defs>
 <g id="figure_1">
  <g id="patch_1">
   <path d="M 0 288 
L 864 288 
L 864 0 
L 0 0 
L 0 288 
z
" style="fill: none"/>
  </g>
  <g id="axes_1">
   <g id="patch_2">
    <path d="M 108 256.32 
L 777.6 256.32 
L 777.6 34.56 
L 108 34.56 
L 108 256.32 
z
" style="fill: none"/>
   </g>
   <g id="PathCollection_1">
    <defs>
     <path id="mb5a83092ef" d="M 0 1.118034 
C 0.296506 1.118034 0.580908 1.000231 0.790569 0.790569 
C 1.000231 0.580908 1.118034 0.296506 1.118034 0 
C 1.118034 -0.296506 1.000231 -0.580908 0.790569 -0.790569 
C 0.580908 -1.000231 0.296506 -1.118034 0 -1.118034 
C -0.296506 -1.118034 -0.580908 -1.000231 -0.790569 -0.790569 
C -1.000231 -0.580908 -1.118034 -0.296506 -1.118034 0 
C -1.118034 0.296506 -1.000231 0.580908 -0.790569 0.790569 
C -0.580908 1.000231 -0.296506 1.118034 0 1.118034 
z
" style="stroke: #ff0000"/>
    </defs>
    <g clip-path="url(#p344500f875)">
     <use xlink:href="#mb5a83092ef" x="138.436364" y="106.350888" style="fill: #ff0000; stroke: #ff0000"/>
     <use xlink:href="#mb5a83092ef" x="141.280884" y="134.473209" style="fill: #ff0000; stroke: #ff0000"/>
     <use xlink:href="#mb5a83092ef" x="144.125404" y="160.393354" style="fill: #ff0000; stroke: #ff0000"/>
     <use xlink:href="#mb5a83092ef" x="146.969924" y="122.86167" style="fill: #ff0000; stroke: #ff0000"/>
     <use xlink:href="#mb5a83092ef" x="149.814444" y="205.557555" style="fill: #ff0000; stroke: #ff0000"/>
     <use xlink:href="#mb5a83092ef" x="152.658963" y="172.622827" style="fill: #ff0000; stroke: #ff0000"/>
     <use xlink:href="#mb5a83092ef" x="155.503483" y="93.694153" style="fill: #ff0000; stroke: #ff0000"/>
     <use xlink:href="#mb5a83092ef" x="158.348003" y="188.519824" style="fill: #ff0000; stroke: #ff0000"/>
     <use xlink:href="#mb5a83092ef" x="161.192523" y="238.810626" style="fill: #ff0000; stroke: #ff0000"/>
     <use xlink:href="#mb5a83092ef" x="164.037043" y="151.082408" style="fill: #ff0000; stroke: #ff0000"/>
     <use xlink:href="#mb5a83092ef" x="166.881563" y="77.265641" style="fill: #ff0000; stroke: #ff0000"/>
     <use xlink:href="#mb5a83092ef" x="169.726083" y="175.879547" style="fill: #ff0000; stroke: #ff0000"/>
     <use xlink:href="#mb5a83092ef" x="172.570603" y="156.757267" style="fill: #ff0000; stroke: #ff0000"/>
     <use xlink:href="#mb5a83092ef" x="175.415123" y="226.708594" style="fill: #ff0000; stroke: #ff0000"/>
     <use xlink:href="#mb5a83092ef" x="178.259643" y="103.116962" style="fill: #ff0000; stroke: #ff0000"/>
     <use xlink:href="#mb5a83092ef" x="181.104163" y="150.234266" style="fill: #ff0000; stroke: #ff0000"/>
     <use xlink:href="#mb5a83092ef" x="183.948683" y="87.319973" style="fill: #ff0000; stroke: #ff0000"/>
     <use xlink:href="#mb5a83092ef" x="186.793203" y="204.099377" style="fill: #ff0000; stroke: #ff0000"/>
     <use xlink:href="#mb5a83092ef" x="189.637723" y="44.64" style="fill: #ff0000; stroke: #ff0000"/>
     <use xlink:href="#mb5a83092ef" x="192.482243" y="132.07574" style="fill: #ff0000; stroke: #ff0000"/>
     <use xlink:href="#mb5a83092ef" x="195.326763" y="204.806475" style="fill: #ff0000; stroke: #ff0000"/>
     <use xlink:href="#mb5a83092ef" x="198.171283" y="224.654704" style="fill: #ff0000; stroke: #ff0000"/>
     <use xlink:href="#mb5a83092ef" x="201.015803" y="216.982658" style="fill: #ff0000; stroke: #ff0000"/>
     <use xlink:href="#mb5a83092ef" x="203.860323" y="134.160195" style="fill: #ff0000; stroke: #ff0000"/>
     <use xlink:href="#mb5a83092ef" x="206.704843" y="174.904502" style="fill: #ff0000; stroke: #ff0000"/>
     <use xlink:href="#mb5a83092ef" x="209.549363" y="203.824123" style="fill: #ff0000; stroke: #ff0000"/>
     <use xlink:href="#mb5a83092ef" x="212.393883" y="193.089395" style="fill: #ff0000; stroke: #ff0000"/>
     <use xlink:href="#mb5a83092ef" x="215.238403" y="118.055655" style="fill: #ff0000; stroke: #ff0000"/>
     <use xlink:href="#mb5a83092ef" x="218.082923" y="177.572385" style="fill: #ff0000; stroke: #ff0000"/>
     <use xlink:href="#mb5a83092ef" x="220.927443" y="118.011046" style="fill: #ff0000; stroke: #ff0000"/>
     <use xlink:href="#mb5a83092ef" x="223.771963" y="238.810626" style="fill: #ff0000; stroke: #ff0000"/>
     <use xlink:href="#mb5a83092ef" x="226.616483" y="160.650895" style="fill: #ff0000; stroke: #ff0000"/>
     <use xlink:href="#mb5a83092ef" x="229.461003" y="140.136462" style="fill: #ff0000; stroke: #ff0000"/>
     <use xlink:href="#mb5a83092ef" x="232.305523" y="104.767658" style="fill: #ff0000; stroke: #ff0000"/>
     <use xlink:href="#mb5a83092ef" x="235.150042" y="102.866661" style="fill: #ff0000; stroke: #ff0000"/>
     <use xlink:href="#mb5a83092ef" x="237.994562" y="131.390101" style="fill: #ff0000; stroke: #ff0000"/>
     <use xlink:href="#mb5a83092ef" x="240.839082" y="144.661992" style="fill: #ff0000; stroke: #ff0000"/>
     <use xlink:href="#mb5a83092ef" x="243.683602" y="146.024363" style="fill: #ff0000; stroke: #ff0000"/>
     <use xlink:href="#mb5a83092ef" x="246.528122" y="238.810626" style="fill: #ff0000; stroke: #ff0000"/>
     <use xlink:href="#mb5a83092ef" x="249.372642" y="192.350308" style="fill: #ff0000; stroke: #ff0000"/>
     <use xlink:href="#mb5a83092ef" x="252.217162" y="238.810626" style="fill: #ff0000; stroke: #ff0000"/>
     <use xlink:href="#mb5a83092ef" x="255.061682" y="212.081738" style="fill: #ff0000; stroke: #ff0000"/>
     <use xlink:href="#mb5a83092ef" x="257.906202" y="236.080511" style="fill: #ff0000; stroke: #ff0000"/>
     <use xlink:href="#mb5a83092ef" x="260.750722" y="238.810626" style="fill: #ff0000; stroke: #ff0000"/>
     <use xlink:href="#mb5a83092ef" x="263.595242" y="238.810626" style="fill: #ff0000; stroke: #ff0000"/>
     <use xlink:href="#mb5a83092ef" x="266.439762" y="233.685479" style="fill: #ff0000; stroke: #ff0000"/>
     <use xlink:href="#mb5a83092ef" x="269.284282" y="238.810626" style="fill: #ff0000; stroke: #ff0000"/>
     <use xlink:href="#mb5a83092ef" x="272.128802" y="238.810626" style="fill: #ff0000; stroke: #ff0000"/>
     <use xlink:href="#mb5a83092ef" x="274.973322" y="238.810626" style="fill: #ff0000; stroke: #ff0000"/>
     <use xlink:href="#mb5a83092ef" x="277.817842" y="238.810626" style="fill: #ff0000; stroke: #ff0000"/>
     <use xlink:href="#mb5a83092ef" x="280.662362" y="217.422716" style="fill: #ff0000; stroke: #ff0000"/>
     <use xlink:href="#mb5a83092ef" x="283.506882" y="238.810626" style="fill: #ff0000; stroke: #ff0000"/>
     <use xlink:href="#mb5a83092ef" x="286.351402" y="231.043899" style="fill: #ff0000; stroke: #ff0000"/>
     <use xlink:href="#mb5a83092ef" x="289.195922" y="228.200188" style="fill: #ff0000; stroke: #ff0000"/>
     <use xlink:href="#mb5a83092ef" x="292.040442" y="238.810626" style="fill: #ff0000; stroke: #ff0000"/>
     <use xlink:href="#mb5a83092ef" x="294.884962" y="235.241947" style="fill: #ff0000; stroke: #ff0000"/>
     <use xlink:href="#mb5a83092ef" x="297.729482" y="206.873635" style="fill: #ff0000; stroke: #ff0000"/>
     <use xlink:href="#mb5a83092ef" x="300.574002" y="238.810626" style="fill: #ff0000; stroke: #ff0000"/>
     <use xlink:href="#mb5a83092ef" x="303.418522" y="238.810626" style="fill: #ff0000; stroke: #ff0000"/>
     <use xlink:href="#mb5a83092ef" x="306.263042" y="51.546916" style="fill: #ff0000; stroke: #ff0000"/>
     <use xlink:href="#mb5a83092ef" x="309.107562" y="238.810626" style="fill: #ff0000; stroke: #ff0000"/>
     <use xlink:href="#mb5a83092ef" x="311.952082" y="234.744886" style="fill: #ff0000; stroke: #ff0000"/>
     <use xlink:href="#mb5a83092ef" x="314.796602" y="238.810626" style="fill: #ff0000; stroke: #ff0000"/>
     <use xlink:href="#mb5a83092ef" x="317.641121" y="238.810626" style="fill: #ff0000; stroke: #ff0000"/>
     <use xlink:href="#mb5a83092ef" x="320.485641" y="238.810626" style="fill: #ff0000; stroke: #ff0000"/>
     <use xlink:href="#mb5a83092ef" x="323.330161" y="238.810626" style="fill: #ff0000; stroke: #ff0000"/>
     <use xlink:href="#mb5a83092ef" x="326.174681" y="238.810626" style="fill: #ff0000; stroke: #ff0000"/>
     <use xlink:href="#mb5a83092ef" x="329.019201" y="238.810626" style="fill: #ff0000; stroke: #ff0000"/>
     <use xlink:href="#mb5a83092ef" x="331.863721" y="238.810626" style="fill: #ff0000; stroke: #ff0000"/>
     <use xlink:href="#mb5a83092ef" x="334.708241" y="238.810626" style="fill: #ff0000; stroke: #ff0000"/>
     <use xlink:href="#mb5a83092ef" x="337.552761" y="238.810626" style="fill: #ff0000; stroke: #ff0000"/>
     <use xlink:href="#mb5a83092ef" x="340.397281" y="238.163346" style="fill: #ff0000; stroke: #ff0000"/>
     <use xlink:href="#mb5a83092ef" x="343.241801" y="238.810626" style="fill: #ff0000; stroke: #ff0000"/>
     <use xlink:href="#mb5a83092ef" x="346.086321" y="238.810626" style="fill: #ff0000; stroke: #ff0000"/>
     <use xlink:href="#mb5a83092ef" x="348.930841" y="238.810626" style="fill: #ff0000; stroke: #ff0000"/>
     <use xlink:href="#mb5a83092ef" x="351.775361" y="238.810626" style="fill: #ff0000; stroke: #ff0000"/>
     <use xlink:href="#mb5a83092ef" x="354.619881" y="238.810626" style="fill: #ff0000; stroke: #ff0000"/>
     <use xlink:href="#mb5a83092ef" x="357.464401" y="222.234952" style="fill: #ff0000; stroke: #ff0000"/>
     <use xlink:href="#mb5a83092ef" x="360.308921" y="238.810626" style="fill: #ff0000; stroke: #ff0000"/>
     <use xlink:href="#mb5a83092ef" x="363.153441" y="235.336373" style="fill: #ff0000; stroke: #ff0000"/>
     <use xlink:href="#mb5a83092ef" x="365.997961" y="238.810626" style="fill: #ff0000; stroke: #ff0000"/>
     <use xlink:href="#mb5a83092ef" x="368.842481" y="238.810626" style="fill: #ff0000; stroke: #ff0000"/>
     <use xlink:href="#mb5a83092ef" x="371.687001" y="238.810626" style="fill: #ff0000; stroke: #ff0000"/>
     <use xlink:href="#mb5a83092ef" x="374.531521" y="238.810626" style="fill: #ff0000; stroke: #ff0000"/>
     <use xlink:href="#mb5a83092ef" x="377.376041" y="238.810626" style="fill: #ff0000; stroke: #ff0000"/>
     <use xlink:href="#mb5a83092ef" x="380.220561" y="238.810626" style="fill: #ff0000; stroke: #ff0000"/>
     <use xlink:href="#mb5a83092ef" x="383.065081" y="238.810626" style="fill: #ff0000; stroke: #ff0000"/>
     <use xlink:href="#mb5a83092ef" x="385.909601" y="238.378194" style="fill: #ff0000; stroke: #ff0000"/>
     <use xlink:href="#mb5a83092ef" x="388.754121" y="238.810626" style="fill: #ff0000; stroke: #ff0000"/>
     <use xlink:href="#mb5a83092ef" x="391.598641" y="238.810626" style="fill: #ff0000; stroke: #ff0000"/>
     <use xlink:href="#mb5a83092ef" x="394.443161" y="238.810626" style="fill: #ff0000; stroke: #ff0000"/>
     <use xlink:href="#mb5a83092ef" x="397.287681" y="238.810626" style="fill: #ff0000; stroke: #ff0000"/>
     <use xlink:href="#mb5a83092ef" x="400.132201" y="238.810626" style="fill: #ff0000; stroke: #ff0000"/>
     <use xlink:href="#mb5a83092ef" x="402.97672" y="238.810626" style="fill: #ff0000; stroke: #ff0000"/>
     <use xlink:href="#mb5a83092ef" x="405.82124" y="238.810626" style="fill: #ff0000; stroke: #ff0000"/>
     <use xlink:href="#mb5a83092ef" x="408.66576" y="238.810626" style="fill: #ff0000; stroke: #ff0000"/>
     <use xlink:href="#mb5a83092ef" x="411.51028" y="238.810626" style="fill: #ff0000; stroke: #ff0000"/>
     <use xlink:href="#mb5a83092ef" x="414.3548" y="238.810626" style="fill: #ff0000; stroke: #ff0000"/>
     <use xlink:href="#mb5a83092ef" x="417.19932" y="238.810626" style="fill: #ff0000; stroke: #ff0000"/>
     <use xlink:href="#mb5a83092ef" x="420.04384" y="238.810626" style="fill: #ff0000; stroke: #ff0000"/>
     <use xlink:href="#mb5a83092ef" x="422.88836" y="238.810626" style="fill: #ff0000; stroke: #ff0000"/>
     <use xlink:href="#mb5a83092ef" x="425.73288" y="238.810626" style="fill: #ff0000; stroke: #ff0000"/>
     <use xlink:href="#mb5a83092ef" x="428.5774" y="238.810626" style="fill: #ff0000; stroke: #ff0000"/>
     <use xlink:href="#mb5a83092ef" x="431.42192" y="238.810626" style="fill: #ff0000; stroke: #ff0000"/>
     <use xlink:href="#mb5a83092ef" x="434.26644" y="238.810626" style="fill: #ff0000; stroke: #ff0000"/>
     <use xlink:href="#mb5a83092ef" x="437.11096" y="237.979383" style="fill: #ff0000; stroke: #ff0000"/>
     <use xlink:href="#mb5a83092ef" x="439.95548" y="238.810626" style="fill: #ff0000; stroke: #ff0000"/>
     <use xlink:href="#mb5a83092ef" x="442.8" y="238.810626" style="fill: #ff0000; stroke: #ff0000"/>
     <use xlink:href="#mb5a83092ef" x="445.64452" y="238.810626" style="fill: #ff0000; stroke: #ff0000"/>
     <use xlink:href="#mb5a83092ef" x="448.48904" y="238.810626" style="fill: #ff0000; stroke: #ff0000"/>
     <use xlink:href="#mb5a83092ef" x="451.33356" y="238.810626" style="fill: #ff0000; stroke: #ff0000"/>
     <use xlink:href="#mb5a83092ef" x="454.17808" y="238.810626" style="fill: #ff0000; stroke: #ff0000"/>
     <use xlink:href="#mb5a83092ef" x="457.0226" y="238.810626" style="fill: #ff0000; stroke: #ff0000"/>
     <use xlink:href="#mb5a83092ef" x="459.86712" y="238.810626" style="fill: #ff0000; stroke: #ff0000"/>
     <use xlink:href="#mb5a83092ef" x="462.71164" y="238.810626" style="fill: #ff0000; stroke: #ff0000"/>
     <use xlink:href="#mb5a83092ef" x="465.55616" y="238.810626" style="fill: #ff0000; stroke: #ff0000"/>
     <use xlink:href="#mb5a83092ef" x="468.40068" y="238.810626" style="fill: #ff0000; stroke: #ff0000"/>
     <use xlink:href="#mb5a83092ef" x="471.2452" y="238.810626" style="fill: #ff0000; stroke: #ff0000"/>
     <use xlink:href="#mb5a83092ef" x="474.08972" y="237.969559" style="fill: #ff0000; stroke: #ff0000"/>
     <use xlink:href="#mb5a83092ef" x="476.93424" y="238.810626" style="fill: #ff0000; stroke: #ff0000"/>
     <use xlink:href="#mb5a83092ef" x="479.77876" y="238.810626" style="fill: #ff0000; stroke: #ff0000"/>
     <use xlink:href="#mb5a83092ef" x="482.62328" y="238.810626" style="fill: #ff0000; stroke: #ff0000"/>
     <use xlink:href="#mb5a83092ef" x="485.467799" y="238.810626" style="fill: #ff0000; stroke: #ff0000"/>
     <use xlink:href="#mb5a83092ef" x="488.312319" y="238.810626" style="fill: #ff0000; stroke: #ff0000"/>
     <use xlink:href="#mb5a83092ef" x="491.156839" y="238.810626" style="fill: #ff0000; stroke: #ff0000"/>
     <use xlink:href="#mb5a83092ef" x="494.001359" y="238.810626" style="fill: #ff0000; stroke: #ff0000"/>
     <use xlink:href="#mb5a83092ef" x="496.845879" y="238.810626" style="fill: #ff0000; stroke: #ff0000"/>
     <use xlink:href="#mb5a83092ef" x="499.690399" y="238.810626" style="fill: #ff0000; stroke: #ff0000"/>
     <use xlink:href="#mb5a83092ef" x="502.534919" y="238.810626" style="fill: #ff0000; stroke: #ff0000"/>
     <use xlink:href="#mb5a83092ef" x="505.379439" y="238.810626" style="fill: #ff0000; stroke: #ff0000"/>
     <use xlink:href="#mb5a83092ef" x="508.223959" y="238.810626" style="fill: #ff0000; stroke: #ff0000"/>
     <use xlink:href="#mb5a83092ef" x="511.068479" y="238.810626" style="fill: #ff0000; stroke: #ff0000"/>
     <use xlink:href="#mb5a83092ef" x="513.912999" y="238.810626" style="fill: #ff0000; stroke: #ff0000"/>
     <use xlink:href="#mb5a83092ef" x="516.757519" y="237.346545" style="fill: #ff0000; stroke: #ff0000"/>
     <use xlink:href="#mb5a83092ef" x="519.602039" y="238.810626" style="fill: #ff0000; stroke: #ff0000"/>
     <use xlink:href="#mb5a83092ef" x="522.446559" y="238.810626" style="fill: #ff0000; stroke: #ff0000"/>
     <use xlink:href="#mb5a83092ef" x="525.291079" y="238.810626" style="fill: #ff0000; stroke: #ff0000"/>
     <use xlink:href="#mb5a83092ef" x="528.135599" y="238.810626" style="fill: #ff0000; stroke: #ff0000"/>
     <use xlink:href="#mb5a83092ef" x="530.980119" y="238.810626" style="fill: #ff0000; stroke: #ff0000"/>
     <use xlink:href="#mb5a83092ef" x="533.824639" y="233.986586" style="fill: #ff0000; stroke: #ff0000"/>
     <use xlink:href="#mb5a83092ef" x="536.669159" y="238.810626" style="fill: #ff0000; stroke: #ff0000"/>
     <use xlink:href="#mb5a83092ef" x="539.513679" y="238.810626" style="fill: #ff0000; stroke: #ff0000"/>
     <use xlink:href="#mb5a83092ef" x="542.358199" y="238.810626" style="fill: #ff0000; stroke: #ff0000"/>
     <use xlink:href="#mb5a83092ef" x="545.202719" y="238.810626" style="fill: #ff0000; stroke: #ff0000"/>
     <use xlink:href="#mb5a83092ef" x="548.047239" y="238.810626" style="fill: #ff0000; stroke: #ff0000"/>
     <use xlink:href="#mb5a83092ef" x="550.891759" y="238.810626" style="fill: #ff0000; stroke: #ff0000"/>
     <use xlink:href="#mb5a83092ef" x="553.736279" y="238.810626" style="fill: #ff0000; stroke: #ff0000"/>
     <use xlink:href="#mb5a83092ef" x="556.580799" y="238.810626" style="fill: #ff0000; stroke: #ff0000"/>
     <use xlink:href="#mb5a83092ef" x="559.425319" y="238.810626" style="fill: #ff0000; stroke: #ff0000"/>
     <use xlink:href="#mb5a83092ef" x="562.269839" y="238.810626" style="fill: #ff0000; stroke: #ff0000"/>
     <use xlink:href="#mb5a83092ef" x="565.114359" y="238.810626" style="fill: #ff0000; stroke: #ff0000"/>
     <use xlink:href="#mb5a83092ef" x="567.958879" y="238.810626" style="fill: #ff0000; stroke: #ff0000"/>
     <use xlink:href="#mb5a83092ef" x="570.803398" y="238.810626" style="fill: #ff0000; stroke: #ff0000"/>
     <use xlink:href="#mb5a83092ef" x="573.647918" y="238.810626" style="fill: #ff0000; stroke: #ff0000"/>
     <use xlink:href="#mb5a83092ef" x="576.492438" y="238.810626" style="fill: #ff0000; stroke: #ff0000"/>
     <use xlink:href="#mb5a83092ef" x="579.336958" y="238.810626" style="fill: #ff0000; stroke: #ff0000"/>
     <use xlink:href="#mb5a83092ef" x="582.181478" y="238.810626" style="fill: #ff0000; stroke: #ff0000"/>
     <use xlink:href="#mb5a83092ef" x="585.025998" y="238.810626" style="fill: #ff0000; stroke: #ff0000"/>
     <use xlink:href="#mb5a83092ef" x="587.870518" y="238.810626" style="fill: #ff0000; stroke: #ff0000"/>
     <use xlink:href="#mb5a83092ef" x="590.715038" y="238.810626" style="fill: #ff0000; stroke: #ff0000"/>
     <use xlink:href="#mb5a83092ef" x="593.559558" y="238.810626" style="fill: #ff0000; stroke: #ff0000"/>
     <use xlink:href="#mb5a83092ef" x="596.404078" y="238.810626" style="fill: #ff0000; stroke: #ff0000"/>
     <use xlink:href="#mb5a83092ef" x="599.248598" y="238.810626" style="fill: #ff0000; stroke: #ff0000"/>
     <use xlink:href="#mb5a83092ef" x="602.093118" y="238.810626" style="fill: #ff0000; stroke: #ff0000"/>
     <use xlink:href="#mb5a83092ef" x="604.937638" y="238.810626" style="fill: #ff0000; stroke: #ff0000"/>
     <use xlink:href="#mb5a83092ef" x="607.782158" y="238.810626" style="fill: #ff0000; stroke: #ff0000"/>
     <use xlink:href="#mb5a83092ef" x="610.626678" y="238.810626" style="fill: #ff0000; stroke: #ff0000"/>
     <use xlink:href="#mb5a83092ef" x="613.471198" y="172.152213" style="fill: #ff0000; stroke: #ff0000"/>
     <use xlink:href="#mb5a83092ef" x="616.315718" y="238.810626" style="fill: #ff0000; stroke: #ff0000"/>
     <use xlink:href="#mb5a83092ef" x="619.160238" y="238.810626" style="fill: #ff0000; stroke: #ff0000"/>
     <use xlink:href="#mb5a83092ef" x="622.004758" y="238.810626" style="fill: #ff0000; stroke: #ff0000"/>
     <use xlink:href="#mb5a83092ef" x="624.849278" y="238.810626" style="fill: #ff0000; stroke: #ff0000"/>
     <use xlink:href="#mb5a83092ef" x="627.693798" y="238.810626" style="fill: #ff0000; stroke: #ff0000"/>
     <use xlink:href="#mb5a83092ef" x="630.538318" y="238.810626" style="fill: #ff0000; stroke: #ff0000"/>
     <use xlink:href="#mb5a83092ef" x="633.382838" y="238.810626" style="fill: #ff0000; stroke: #ff0000"/>
     <use xlink:href="#mb5a83092ef" x="636.227358" y="236.292007" style="fill: #ff0000; stroke: #ff0000"/>
     <use xlink:href="#mb5a83092ef" x="639.071878" y="238.810626" style="fill: #ff0000; stroke: #ff0000"/>
     <use xlink:href="#mb5a83092ef" x="641.916398" y="238.810626" style="fill: #ff0000; stroke: #ff0000"/>
     <use xlink:href="#mb5a83092ef" x="644.760918" y="171.508562" style="fill: #ff0000; stroke: #ff0000"/>
     <use xlink:href="#mb5a83092ef" x="647.605438" y="238.810626" style="fill: #ff0000; stroke: #ff0000"/>
     <use xlink:href="#mb5a83092ef" x="650.449958" y="238.810626" style="fill: #ff0000; stroke: #ff0000"/>
     <use xlink:href="#mb5a83092ef" x="653.294477" y="238.810626" style="fill: #ff0000; stroke: #ff0000"/>
     <use xlink:href="#mb5a83092ef" x="656.138997" y="238.810626" style="fill: #ff0000; stroke: #ff0000"/>
     <use xlink:href="#mb5a83092ef" x="658.983517" y="238.810626" style="fill: #ff0000; stroke: #ff0000"/>
     <use xlink:href="#mb5a83092ef" x="661.828037" y="238.810626" style="fill: #ff0000; stroke: #ff0000"/>
     <use xlink:href="#mb5a83092ef" x="664.672557" y="238.810626" style="fill: #ff0000; stroke: #ff0000"/>
     <use xlink:href="#mb5a83092ef" x="667.517077" y="234.617704" style="fill: #ff0000; stroke: #ff0000"/>
     <use xlink:href="#mb5a83092ef" x="670.361597" y="238.810626" style="fill: #ff0000; stroke: #ff0000"/>
     <use xlink:href="#mb5a83092ef" x="673.206117" y="238.810626" style="fill: #ff0000; stroke: #ff0000"/>
     <use xlink:href="#mb5a83092ef" x="676.050637" y="238.810626" style="fill: #ff0000; stroke: #ff0000"/>
     <use xlink:href="#mb5a83092ef" x="678.895157" y="238.810626" style="fill: #ff0000; stroke: #ff0000"/>
     <use xlink:href="#mb5a83092ef" x="681.739677" y="238.810626" style="fill: #ff0000; stroke: #ff0000"/>
     <use xlink:href="#mb5a83092ef" x="684.584197" y="238.810626" style="fill: #ff0000; stroke: #ff0000"/>
     <use xlink:href="#mb5a83092ef" x="687.428717" y="219.224175" style="fill: #ff0000; stroke: #ff0000"/>
     <use xlink:href="#mb5a83092ef" x="690.273237" y="238.810626" style="fill: #ff0000; stroke: #ff0000"/>
     <use xlink:href="#mb5a83092ef" x="693.117757" y="238.810626" style="fill: #ff0000; stroke: #ff0000"/>
     <use xlink:href="#mb5a83092ef" x="695.962277" y="238.810626" style="fill: #ff0000; stroke: #ff0000"/>
     <use xlink:href="#mb5a83092ef" x="698.806797" y="238.810626" style="fill: #ff0000; stroke: #ff0000"/>
     <use xlink:href="#mb5a83092ef" x="701.651317" y="238.810626" style="fill: #ff0000; stroke: #ff0000"/>
     <use xlink:href="#mb5a83092ef" x="704.495837" y="238.810626" style="fill: #ff0000; stroke: #ff0000"/>
     <use xlink:href="#mb5a83092ef" x="707.340357" y="238.810626" style="fill: #ff0000; stroke: #ff0000"/>
     <use xlink:href="#mb5a83092ef" x="710.184877" y="238.810626" style="fill: #ff0000; stroke: #ff0000"/>
     <use xlink:href="#mb5a83092ef" x="713.029397" y="238.56895" style="fill: #ff0000; stroke: #ff0000"/>
     <use xlink:href="#mb5a83092ef" x="715.873917" y="238.810626" style="fill: #ff0000; stroke: #ff0000"/>
     <use xlink:href="#mb5a83092ef" x="718.718437" y="238.810626" style="fill: #ff0000; stroke: #ff0000"/>
     <use xlink:href="#mb5a83092ef" x="721.562957" y="238.810626" style="fill: #ff0000; stroke: #ff0000"/>
     <use xlink:href="#mb5a83092ef" x="724.407477" y="238.810626" style="fill: #ff0000; stroke: #ff0000"/>
     <use xlink:href="#mb5a83092ef" x="727.251997" y="238.810626" style="fill: #ff0000; stroke: #ff0000"/>
     <use xlink:href="#mb5a83092ef" x="730.096517" y="238.810626" style="fill: #ff0000; stroke: #ff0000"/>
     <use xlink:href="#mb5a83092ef" x="732.941037" y="238.810626" style="fill: #ff0000; stroke: #ff0000"/>
     <use xlink:href="#mb5a83092ef" x="735.785556" y="238.810626" style="fill: #ff0000; stroke: #ff0000"/>
     <use xlink:href="#mb5a83092ef" x="738.630076" y="238.810626" style="fill: #ff0000; stroke: #ff0000"/>
     <use xlink:href="#mb5a83092ef" x="741.474596" y="238.810626" style="fill: #ff0000; stroke: #ff0000"/>
     <use xlink:href="#mb5a83092ef" x="744.319116" y="238.810626" style="fill: #ff0000; stroke: #ff0000"/>
     <use xlink:href="#mb5a83092ef" x="747.163636" y="238.810626" style="fill: #ff0000; stroke: #ff0000"/>
    </g>
   </g>
   <g id="matplotlib.axis_1">
    <g id="xtick_1">
     <g id="line2d_1">
      <defs>
       <path id="m3738bae1b9" d="M 0 0 
L 0 3.5 
" style="stroke: #000000; stroke-width: 0.8"/>
      </defs>
      <g>
       <use xlink:href="#m3738bae1b9" x="138.436364" y="256.32" style="stroke: #000000; stroke-width: 0.8"/>
      </g>
     </g>
     <g id="text_1">
      <!-- 0 -->
      <g transform="translate(135.255114 270.918437)scale(0.1 -0.1)">
       <defs>
        <path id="DejaVuSans-30" d="M 2034 4250 
Q 1547 4250 1301 3770 
Q 1056 3291 1056 2328 
Q 1056 1369 1301 889 
Q 1547 409 2034 409 
Q 2525 409 2770 889 
Q 3016 1369 3016 2328 
Q 3016 3291 2770 3770 
Q 2525 4250 2034 4250 
z
M 2034 4750 
Q 2819 4750 3233 4129 
Q 3647 3509 3647 2328 
Q 3647 1150 3233 529 
Q 2819 -91 2034 -91 
Q 1250 -91 836 529 
Q 422 1150 422 2328 
Q 422 3509 836 4129 
Q 1250 4750 2034 4750 
z
" transform="scale(0.015625)"/>
       </defs>
       <use xlink:href="#DejaVuSans-30"/>
      </g>
     </g>
    </g>
    <g id="xtick_2">
     <g id="line2d_2">
      <g>
       <use xlink:href="#m3738bae1b9" x="280.662362" y="256.32" style="stroke: #000000; stroke-width: 0.8"/>
      </g>
     </g>
     <g id="text_2">
      <!-- 50 -->
      <g transform="translate(274.299862 270.918437)scale(0.1 -0.1)">
       <defs>
        <path id="DejaVuSans-35" d="M 691 4666 
L 3169 4666 
L 3169 4134 
L 1269 4134 
L 1269 2991 
Q 1406 3038 1543 3061 
Q 1681 3084 1819 3084 
Q 2600 3084 3056 2656 
Q 3513 2228 3513 1497 
Q 3513 744 3044 326 
Q 2575 -91 1722 -91 
Q 1428 -91 1123 -41 
Q 819 9 494 109 
L 494 744 
Q 775 591 1075 516 
Q 1375 441 1709 441 
Q 2250 441 2565 725 
Q 2881 1009 2881 1497 
Q 2881 1984 2565 2268 
Q 2250 2553 1709 2553 
Q 1456 2553 1204 2497 
Q 953 2441 691 2322 
L 691 4666 
z
" transform="scale(0.015625)"/>
       </defs>
       <use xlink:href="#DejaVuSans-35"/>
       <use xlink:href="#DejaVuSans-30" x="63.623047"/>
      </g>
     </g>
    </g>
    <g id="xtick_3">
     <g id="line2d_3">
      <g>
       <use xlink:href="#m3738bae1b9" x="422.88836" y="256.32" style="stroke: #000000; stroke-width: 0.8"/>
      </g>
     </g>
     <g id="text_3">
      <!-- 100 -->
      <g transform="translate(413.34461 270.918437)scale(0.1 -0.1)">
       <defs>
        <path id="DejaVuSans-31" d="M 794 531 
L 1825 531 
L 1825 4091 
L 703 3866 
L 703 4441 
L 1819 4666 
L 2450 4666 
L 2450 531 
L 3481 531 
L 3481 0 
L 794 0 
L 794 531 
z
" transform="scale(0.015625)"/>
       </defs>
       <use xlink:href="#DejaVuSans-31"/>
       <use xlink:href="#DejaVuSans-30" x="63.623047"/>
       <use xlink:href="#DejaVuSans-30" x="127.246094"/>
      </g>
     </g>
    </g>
    <g id="xtick_4">
     <g id="line2d_4">
      <g>
       <use xlink:href="#m3738bae1b9" x="565.114359" y="256.32" style="stroke: #000000; stroke-width: 0.8"/>
      </g>
     </g>
     <g id="text_4">
      <!-- 150 -->
      <g transform="translate(555.570609 270.918437)scale(0.1 -0.1)">
       <use xlink:href="#DejaVuSans-31"/>
       <use xlink:href="#DejaVuSans-35" x="63.623047"/>
       <use xlink:href="#DejaVuSans-30" x="127.246094"/>
      </g>
     </g>
    </g>
    <g id="xtick_5">
     <g id="line2d_5">
      <g>
       <use xlink:href="#m3738bae1b9" x="707.340357" y="256.32" style="stroke: #000000; stroke-width: 0.8"/>
      </g>
     </g>
     <g id="text_5">
      <!-- 200 -->
      <g transform="translate(697.796607 270.918437)scale(0.1 -0.1)">
       <defs>
        <path id="DejaVuSans-32" d="M 1228 531 
L 3431 531 
L 3431 0 
L 469 0 
L 469 531 
Q 828 903 1448 1529 
Q 2069 2156 2228 2338 
Q 2531 2678 2651 2914 
Q 2772 3150 2772 3378 
Q 2772 3750 2511 3984 
Q 2250 4219 1831 4219 
Q 1534 4219 1204 4116 
Q 875 4013 500 3803 
L 500 4441 
Q 881 4594 1212 4672 
Q 1544 4750 1819 4750 
Q 2544 4750 2975 4387 
Q 3406 4025 3406 3419 
Q 3406 3131 3298 2873 
Q 3191 2616 2906 2266 
Q 2828 2175 2409 1742 
Q 1991 1309 1228 531 
z
" transform="scale(0.015625)"/>
       </defs>
       <use xlink:href="#DejaVuSans-32"/>
       <use xlink:href="#DejaVuSans-30" x="63.623047"/>
       <use xlink:href="#DejaVuSans-30" x="127.246094"/>
      </g>
     </g>
    </g>
   </g>
   <g id="matplotlib.axis_2">
    <g id="ytick_1">
     <g id="line2d_6">
      <defs>
       <path id="m501b5d2657" d="M 0 0 
L -3.5 0 
" style="stroke: #000000; stroke-width: 0.8"/>
      </defs>
      <g>
       <use xlink:href="#m501b5d2657" x="108" y="238.810626" style="stroke: #000000; stroke-width: 0.8"/>
      </g>
     </g>
     <g id="text_6">
      <!-- 0.0 -->
      <g transform="translate(85.096875 242.609844)scale(0.1 -0.1)">
       <defs>
        <path id="DejaVuSans-2e" d="M 684 794 
L 1344 794 
L 1344 0 
L 684 0 
L 684 794 
z
" transform="scale(0.015625)"/>
       </defs>
       <use xlink:href="#DejaVuSans-30"/>
       <use xlink:href="#DejaVuSans-2e" x="63.623047"/>
       <use xlink:href="#DejaVuSans-30" x="95.410156"/>
      </g>
     </g>
    </g>
    <g id="ytick_2">
     <g id="line2d_7">
      <g>
       <use xlink:href="#m501b5d2657" x="108" y="205.694821" style="stroke: #000000; stroke-width: 0.8"/>
      </g>
     </g>
     <g id="text_7">
      <!-- 0.5 -->
      <g transform="translate(85.096875 209.494039)scale(0.1 -0.1)">
       <use xlink:href="#DejaVuSans-30"/>
       <use xlink:href="#DejaVuSans-2e" x="63.623047"/>
       <use xlink:href="#DejaVuSans-35" x="95.410156"/>
      </g>
     </g>
    </g>
    <g id="ytick_3">
     <g id="line2d_8">
      <g>
       <use xlink:href="#m501b5d2657" x="108" y="172.579016" style="stroke: #000000; stroke-width: 0.8"/>
      </g>
     </g>
     <g id="text_8">
      <!-- 1.0 -->
      <g transform="translate(85.096875 176.378235)scale(0.1 -0.1)">
       <use xlink:href="#DejaVuSans-31"/>
       <use xlink:href="#DejaVuSans-2e" x="63.623047"/>
       <use xlink:href="#DejaVuSans-30" x="95.410156"/>
      </g>
     </g>
    </g>
    <g id="ytick_4">
     <g id="line2d_9">
      <g>
       <use xlink:href="#m501b5d2657" x="108" y="139.463211" style="stroke: #000000; stroke-width: 0.8"/>
      </g>
     </g>
     <g id="text_9">
      <!-- 1.5 -->
      <g transform="translate(85.096875 143.26243)scale(0.1 -0.1)">
       <use xlink:href="#DejaVuSans-31"/>
       <use xlink:href="#DejaVuSans-2e" x="63.623047"/>
       <use xlink:href="#DejaVuSans-35" x="95.410156"/>
      </g>
     </g>
    </g>
    <g id="ytick_5">
     <g id="line2d_10">
      <g>
       <use xlink:href="#m501b5d2657" x="108" y="106.347406" style="stroke: #000000; stroke-width: 0.8"/>
      </g>
     </g>
     <g id="text_10">
      <!-- 2.0 -->
      <g transform="translate(85.096875 110.146625)scale(0.1 -0.1)">
       <use xlink:href="#DejaVuSans-32"/>
       <use xlink:href="#DejaVuSans-2e" x="63.623047"/>
       <use xlink:href="#DejaVuSans-30" x="95.410156"/>
      </g>
     </g>
    </g>
    <g id="ytick_6">
     <g id="line2d_11">
      <g>
       <use xlink:href="#m501b5d2657" x="108" y="73.231601" style="stroke: #000000; stroke-width: 0.8"/>
      </g>
     </g>
     <g id="text_11">
      <!-- 2.5 -->
      <g transform="translate(85.096875 77.03082)scale(0.1 -0.1)">
       <use xlink:href="#DejaVuSans-32"/>
       <use xlink:href="#DejaVuSans-2e" x="63.623047"/>
       <use xlink:href="#DejaVuSans-35" x="95.410156"/>
      </g>
     </g>
    </g>
    <g id="ytick_7">
     <g id="line2d_12">
      <g>
       <use xlink:href="#m501b5d2657" x="108" y="40.115796" style="stroke: #000000; stroke-width: 0.8"/>
      </g>
     </g>
     <g id="text_12">
      <!-- 3.0 -->
      <g transform="translate(85.096875 43.915015)scale(0.1 -0.1)">
       <defs>
        <path id="DejaVuSans-33" d="M 2597 2516 
Q 3050 2419 3304 2112 
Q 3559 1806 3559 1356 
Q 3559 666 3084 287 
Q 2609 -91 1734 -91 
Q 1441 -91 1130 -33 
Q 819 25 488 141 
L 488 750 
Q 750 597 1062 519 
Q 1375 441 1716 441 
Q 2309 441 2620 675 
Q 2931 909 2931 1356 
Q 2931 1769 2642 2001 
Q 2353 2234 1838 2234 
L 1294 2234 
L 1294 2753 
L 1863 2753 
Q 2328 2753 2575 2939 
Q 2822 3125 2822 3475 
Q 2822 3834 2567 4026 
Q 2313 4219 1838 4219 
Q 1578 4219 1281 4162 
Q 984 4106 628 3988 
L 628 4550 
Q 988 4650 1302 4700 
Q 1616 4750 1894 4750 
Q 2613 4750 3031 4423 
Q 3450 4097 3450 3541 
Q 3450 3153 3228 2886 
Q 3006 2619 2597 2516 
z
" transform="scale(0.015625)"/>
       </defs>
       <use xlink:href="#DejaVuSans-33"/>
       <use xlink:href="#DejaVuSans-2e" x="63.623047"/>
       <use xlink:href="#DejaVuSans-30" x="95.410156"/>
      </g>
     </g>
    </g>
   </g>
   <g id="line2d_13">
    <path d="M 138.436364 130.962623 
L 149.814444 138.965051 
L 161.192523 146.729766 
L 172.570603 154.24266 
L 183.948683 161.490809 
L 195.326763 168.462479 
L 206.704843 175.147119 
L 218.082923 181.535367 
L 229.461003 187.619046 
L 240.839082 193.391165 
L 252.217162 198.845923 
L 263.595242 203.9787 
L 272.128802 207.614876 
L 280.662362 211.066975 
L 289.195922 214.334364 
L 297.729482 217.416783 
L 306.263042 220.314351 
L 314.796602 223.027558 
L 323.330161 225.557274 
L 331.863721 227.90474 
L 340.397281 230.071576 
L 348.930841 232.059776 
L 357.464401 233.87171 
L 365.997961 235.510121 
L 377.376041 237.430193 
L 388.754121 239.055806 
L 400.132201 240.396581 
L 411.51028 241.463325 
L 422.88836 242.268032 
L 434.26644 242.823883 
L 445.64452 243.145243 
L 457.0226 243.247665 
L 468.40068 243.147891 
L 482.62328 242.766255 
L 496.845879 242.134402 
L 511.068479 241.292847 
L 528.135599 240.067503 
L 550.891759 238.201501 
L 590.715038 234.893198 
L 607.782158 233.712861 
L 622.004758 232.950886 
L 633.382838 232.533695 
L 644.760918 232.325493 
L 656.138997 232.362598 
L 664.672557 232.573924 
L 673.206117 232.960566 
L 681.739677 233.539159 
L 690.273237 234.326712 
L 698.806797 235.340613 
L 707.340357 236.598622 
L 715.873917 238.118876 
L 724.407477 239.919887 
L 732.941037 242.020542 
L 741.474596 244.440105 
L 747.163636 246.24 
L 747.163636 246.24 
" clip-path="url(#p344500f875)" style="fill: none; stroke: #000000; stroke-width: 3; stroke-linecap: square"/>
   </g>
   <g id="patch_3">
    <path d="M 108 256.32 
L 108 34.56 
" style="fill: none; stroke: #000000; stroke-width: 0.8; stroke-linejoin: miter; stroke-linecap: square"/>
   </g>
   <g id="patch_4">
    <path d="M 777.6 256.32 
L 777.6 34.56 
" style="fill: none; stroke: #000000; stroke-width: 0.8; stroke-linejoin: miter; stroke-linecap: square"/>
   </g>
   <g id="patch_5">
    <path d="M 108 256.32 
L 777.6 256.32 
" style="fill: none; stroke: #000000; stroke-width: 0.8; stroke-linejoin: miter; stroke-linecap: square"/>
   </g>
   <g id="patch_6">
    <path d="M 108 34.56 
L 777.6 34.56 
" style="fill: none; stroke: #000000; stroke-width: 0.8; stroke-linejoin: miter; stroke-linecap: square"/>
   </g>
   <g id="text_13">
    <!-- CDK1 -->
    <g transform="translate(790.992 160.616562)scale(0.55 -0.55)">
     <defs>
      <path id="DejaVuSans-43" d="M 4122 4306 
L 4122 3641 
Q 3803 3938 3442 4084 
Q 3081 4231 2675 4231 
Q 1875 4231 1450 3742 
Q 1025 3253 1025 2328 
Q 1025 1406 1450 917 
Q 1875 428 2675 428 
Q 3081 428 3442 575 
Q 3803 722 4122 1019 
L 4122 359 
Q 3791 134 3420 21 
Q 3050 -91 2638 -91 
Q 1578 -91 968 557 
Q 359 1206 359 2328 
Q 359 3453 968 4101 
Q 1578 4750 2638 4750 
Q 3056 4750 3426 4639 
Q 3797 4528 4122 4306 
z
" transform="scale(0.015625)"/>
      <path id="DejaVuSans-44" d="M 1259 4147 
L 1259 519 
L 2022 519 
Q 2988 519 3436 956 
Q 3884 1394 3884 2338 
Q 3884 3275 3436 3711 
Q 2988 4147 2022 4147 
L 1259 4147 
z
M 628 4666 
L 1925 4666 
Q 3281 4666 3915 4102 
Q 4550 3538 4550 2338 
Q 4550 1131 3912 565 
Q 3275 0 1925 0 
L 628 0 
L 628 4666 
z
" transform="scale(0.015625)"/>
      <path id="DejaVuSans-4b" d="M 628 4666 
L 1259 4666 
L 1259 2694 
L 3353 4666 
L 4166 4666 
L 1850 2491 
L 4331 0 
L 3500 0 
L 1259 2247 
L 1259 0 
L 628 0 
L 628 4666 
z
" transform="scale(0.015625)"/>
     </defs>
     <use xlink:href="#DejaVuSans-43"/>
     <use xlink:href="#DejaVuSans-44" x="69.824219"/>
     <use xlink:href="#DejaVuSans-4b" x="146.826172"/>
     <use xlink:href="#DejaVuSans-31" x="212.402344"/>
    </g>
   </g>
  </g>
 </g>
 <defs>
  <clipPath id="p344500f875">
   <rect x="108" y="34.56" width="669.6" height="221.76"/>
  </clipPath>
 </defs>
</svg>
