<?xml version="1.0" encoding="utf-8" standalone="no"?>
<!DOCTYPE svg PUBLIC "-//W3C//DTD SVG 1.1//EN"
  "http://www.w3.org/Graphics/SVG/1.1/DTD/svg11.dtd">
<svg xmlns:xlink="http://www.w3.org/1999/xlink" width="864pt" height="288pt" viewBox="0 0 864 288" xmlns="http://www.w3.org/2000/svg" version="1.1">
 <metadata>
  <rdf:RDF xmlns:dc="http://purl.org/dc/elements/1.1/" xmlns:cc="http://creativecommons.org/ns#" xmlns:rdf="http://www.w3.org/1999/02/22-rdf-syntax-ns#">
   <cc:Work>
    <dc:type rdf:resource="http://purl.org/dc/dcmitype/StillImage"/>
    <dc:date>2024-01-31T16:31:33.956956</dc:date>
    <dc:format>image/svg+xml</dc:format>
    <dc:creator>
     <cc:Agent>
      <dc:title>Matplotlib v3.5.3, https://matplotlib.org/</dc:title>
     </cc:Agent>
    </dc:creator>
   </cc:Work>
  </rdf:RDF>
 </metadata>
 <defs>
  <style type="text/css">*{stroke-linejoin: round; stroke-linecap: butt}</style>
 </defs>
 <g id="figure_1">
  <g id="patch_1">
   <path d="M 0 288 
L 864 288 
L 864 0 
L 0 0 
L 0 288 
z
" style="fill: none"/>
  </g>
  <g id="axes_1">
   <g id="patch_2">
    <path d="M 108 256.32 
L 777.6 256.32 
L 777.6 34.56 
L 108 34.56 
L 108 256.32 
z
" style="fill: none"/>
   </g>
   <g id="PathCollection_1">
    <defs>
     <path id="m98111b22ab" d="M 0 1.118034 
C 0.296506 1.118034 0.580908 1.000231 0.790569 0.790569 
C 1.000231 0.580908 1.118034 0.296506 1.118034 0 
C 1.118034 -0.296506 1.000231 -0.580908 0.790569 -0.790569 
C 0.580908 -1.000231 0.296506 -1.118034 0 -1.118034 
C -0.296506 -1.118034 -0.580908 -1.000231 -0.790569 -0.790569 
C -1.000231 -0.580908 -1.118034 -0.296506 -1.118034 0 
C -1.118034 0.296506 -1.000231 0.580908 -0.790569 0.790569 
C -0.580908 1.000231 -0.296506 1.118034 0 1.118034 
z
" style="stroke: #ff0000"/>
    </defs>
    <g clip-path="url(#p1c40655232)">
     <use xlink:href="#m98111b22ab" x="138.436364" y="243.417778" style="fill: #ff0000; stroke: #ff0000"/>
     <use xlink:href="#m98111b22ab" x="141.280884" y="243.417778" style="fill: #ff0000; stroke: #ff0000"/>
     <use xlink:href="#m98111b22ab" x="144.125404" y="243.417778" style="fill: #ff0000; stroke: #ff0000"/>
     <use xlink:href="#m98111b22ab" x="146.969924" y="243.417778" style="fill: #ff0000; stroke: #ff0000"/>
     <use xlink:href="#m98111b22ab" x="149.814444" y="243.417778" style="fill: #ff0000; stroke: #ff0000"/>
     <use xlink:href="#m98111b22ab" x="152.658963" y="243.417778" style="fill: #ff0000; stroke: #ff0000"/>
     <use xlink:href="#m98111b22ab" x="155.503483" y="243.417778" style="fill: #ff0000; stroke: #ff0000"/>
     <use xlink:href="#m98111b22ab" x="158.348003" y="243.417778" style="fill: #ff0000; stroke: #ff0000"/>
     <use xlink:href="#m98111b22ab" x="161.192523" y="243.417778" style="fill: #ff0000; stroke: #ff0000"/>
     <use xlink:href="#m98111b22ab" x="164.037043" y="223.037594" style="fill: #ff0000; stroke: #ff0000"/>
     <use xlink:href="#m98111b22ab" x="166.881563" y="240.194944" style="fill: #ff0000; stroke: #ff0000"/>
     <use xlink:href="#m98111b22ab" x="169.726083" y="243.417778" style="fill: #ff0000; stroke: #ff0000"/>
     <use xlink:href="#m98111b22ab" x="172.570603" y="243.417778" style="fill: #ff0000; stroke: #ff0000"/>
     <use xlink:href="#m98111b22ab" x="175.415123" y="243.417778" style="fill: #ff0000; stroke: #ff0000"/>
     <use xlink:href="#m98111b22ab" x="178.259643" y="241.833542" style="fill: #ff0000; stroke: #ff0000"/>
     <use xlink:href="#m98111b22ab" x="181.104163" y="242.145349" style="fill: #ff0000; stroke: #ff0000"/>
     <use xlink:href="#m98111b22ab" x="183.948683" y="243.417778" style="fill: #ff0000; stroke: #ff0000"/>
     <use xlink:href="#m98111b22ab" x="186.793203" y="243.417778" style="fill: #ff0000; stroke: #ff0000"/>
     <use xlink:href="#m98111b22ab" x="189.637723" y="226.650423" style="fill: #ff0000; stroke: #ff0000"/>
     <use xlink:href="#m98111b22ab" x="192.482243" y="243.351648" style="fill: #ff0000; stroke: #ff0000"/>
     <use xlink:href="#m98111b22ab" x="195.326763" y="243.417778" style="fill: #ff0000; stroke: #ff0000"/>
     <use xlink:href="#m98111b22ab" x="198.171283" y="243.417778" style="fill: #ff0000; stroke: #ff0000"/>
     <use xlink:href="#m98111b22ab" x="201.015803" y="243.417778" style="fill: #ff0000; stroke: #ff0000"/>
     <use xlink:href="#m98111b22ab" x="203.860323" y="231.155584" style="fill: #ff0000; stroke: #ff0000"/>
     <use xlink:href="#m98111b22ab" x="206.704843" y="243.363667" style="fill: #ff0000; stroke: #ff0000"/>
     <use xlink:href="#m98111b22ab" x="209.549363" y="243.417778" style="fill: #ff0000; stroke: #ff0000"/>
     <use xlink:href="#m98111b22ab" x="212.393883" y="243.417778" style="fill: #ff0000; stroke: #ff0000"/>
     <use xlink:href="#m98111b22ab" x="215.238403" y="243.417778" style="fill: #ff0000; stroke: #ff0000"/>
     <use xlink:href="#m98111b22ab" x="218.082923" y="243.417778" style="fill: #ff0000; stroke: #ff0000"/>
     <use xlink:href="#m98111b22ab" x="220.927443" y="243.342844" style="fill: #ff0000; stroke: #ff0000"/>
     <use xlink:href="#m98111b22ab" x="223.771963" y="243.417778" style="fill: #ff0000; stroke: #ff0000"/>
     <use xlink:href="#m98111b22ab" x="226.616483" y="243.417778" style="fill: #ff0000; stroke: #ff0000"/>
     <use xlink:href="#m98111b22ab" x="229.461003" y="243.417778" style="fill: #ff0000; stroke: #ff0000"/>
     <use xlink:href="#m98111b22ab" x="232.305523" y="243.417778" style="fill: #ff0000; stroke: #ff0000"/>
     <use xlink:href="#m98111b22ab" x="235.150042" y="243.417778" style="fill: #ff0000; stroke: #ff0000"/>
     <use xlink:href="#m98111b22ab" x="237.994562" y="243.32061" style="fill: #ff0000; stroke: #ff0000"/>
     <use xlink:href="#m98111b22ab" x="240.839082" y="243.417778" style="fill: #ff0000; stroke: #ff0000"/>
     <use xlink:href="#m98111b22ab" x="243.683602" y="243.417778" style="fill: #ff0000; stroke: #ff0000"/>
     <use xlink:href="#m98111b22ab" x="246.528122" y="243.417778" style="fill: #ff0000; stroke: #ff0000"/>
     <use xlink:href="#m98111b22ab" x="249.372642" y="243.417778" style="fill: #ff0000; stroke: #ff0000"/>
     <use xlink:href="#m98111b22ab" x="252.217162" y="243.417778" style="fill: #ff0000; stroke: #ff0000"/>
     <use xlink:href="#m98111b22ab" x="255.061682" y="243.417778" style="fill: #ff0000; stroke: #ff0000"/>
     <use xlink:href="#m98111b22ab" x="257.906202" y="237.408101" style="fill: #ff0000; stroke: #ff0000"/>
     <use xlink:href="#m98111b22ab" x="260.750722" y="243.417778" style="fill: #ff0000; stroke: #ff0000"/>
     <use xlink:href="#m98111b22ab" x="263.595242" y="243.417778" style="fill: #ff0000; stroke: #ff0000"/>
     <use xlink:href="#m98111b22ab" x="266.439762" y="241.677901" style="fill: #ff0000; stroke: #ff0000"/>
     <use xlink:href="#m98111b22ab" x="269.284282" y="243.417778" style="fill: #ff0000; stroke: #ff0000"/>
     <use xlink:href="#m98111b22ab" x="272.128802" y="243.417778" style="fill: #ff0000; stroke: #ff0000"/>
     <use xlink:href="#m98111b22ab" x="274.973322" y="243.417778" style="fill: #ff0000; stroke: #ff0000"/>
     <use xlink:href="#m98111b22ab" x="277.817842" y="221.406456" style="fill: #ff0000; stroke: #ff0000"/>
     <use xlink:href="#m98111b22ab" x="280.662362" y="243.417778" style="fill: #ff0000; stroke: #ff0000"/>
     <use xlink:href="#m98111b22ab" x="283.506882" y="243.417778" style="fill: #ff0000; stroke: #ff0000"/>
     <use xlink:href="#m98111b22ab" x="286.351402" y="239.327858" style="fill: #ff0000; stroke: #ff0000"/>
     <use xlink:href="#m98111b22ab" x="289.195922" y="243.417778" style="fill: #ff0000; stroke: #ff0000"/>
     <use xlink:href="#m98111b22ab" x="292.040442" y="243.417778" style="fill: #ff0000; stroke: #ff0000"/>
     <use xlink:href="#m98111b22ab" x="294.884962" y="243.417778" style="fill: #ff0000; stroke: #ff0000"/>
     <use xlink:href="#m98111b22ab" x="297.729482" y="243.417778" style="fill: #ff0000; stroke: #ff0000"/>
     <use xlink:href="#m98111b22ab" x="300.574002" y="243.417778" style="fill: #ff0000; stroke: #ff0000"/>
     <use xlink:href="#m98111b22ab" x="303.418522" y="243.417778" style="fill: #ff0000; stroke: #ff0000"/>
     <use xlink:href="#m98111b22ab" x="306.263042" y="144.785457" style="fill: #ff0000; stroke: #ff0000"/>
     <use xlink:href="#m98111b22ab" x="309.107562" y="241.262889" style="fill: #ff0000; stroke: #ff0000"/>
     <use xlink:href="#m98111b22ab" x="311.952082" y="178.381538" style="fill: #ff0000; stroke: #ff0000"/>
     <use xlink:href="#m98111b22ab" x="314.796602" y="187.721155" style="fill: #ff0000; stroke: #ff0000"/>
     <use xlink:href="#m98111b22ab" x="317.641121" y="243.417778" style="fill: #ff0000; stroke: #ff0000"/>
     <use xlink:href="#m98111b22ab" x="320.485641" y="240.192206" style="fill: #ff0000; stroke: #ff0000"/>
     <use xlink:href="#m98111b22ab" x="323.330161" y="236.634533" style="fill: #ff0000; stroke: #ff0000"/>
     <use xlink:href="#m98111b22ab" x="326.174681" y="243.417778" style="fill: #ff0000; stroke: #ff0000"/>
     <use xlink:href="#m98111b22ab" x="329.019201" y="243.417778" style="fill: #ff0000; stroke: #ff0000"/>
     <use xlink:href="#m98111b22ab" x="331.863721" y="205.738837" style="fill: #ff0000; stroke: #ff0000"/>
     <use xlink:href="#m98111b22ab" x="334.708241" y="241.261465" style="fill: #ff0000; stroke: #ff0000"/>
     <use xlink:href="#m98111b22ab" x="337.552761" y="242.041671" style="fill: #ff0000; stroke: #ff0000"/>
     <use xlink:href="#m98111b22ab" x="340.397281" y="243.417778" style="fill: #ff0000; stroke: #ff0000"/>
     <use xlink:href="#m98111b22ab" x="343.241801" y="217.490202" style="fill: #ff0000; stroke: #ff0000"/>
     <use xlink:href="#m98111b22ab" x="346.086321" y="243.417778" style="fill: #ff0000; stroke: #ff0000"/>
     <use xlink:href="#m98111b22ab" x="348.930841" y="224.919529" style="fill: #ff0000; stroke: #ff0000"/>
     <use xlink:href="#m98111b22ab" x="351.775361" y="243.328726" style="fill: #ff0000; stroke: #ff0000"/>
     <use xlink:href="#m98111b22ab" x="354.619881" y="243.221657" style="fill: #ff0000; stroke: #ff0000"/>
     <use xlink:href="#m98111b22ab" x="357.464401" y="243.417778" style="fill: #ff0000; stroke: #ff0000"/>
     <use xlink:href="#m98111b22ab" x="360.308921" y="243.417778" style="fill: #ff0000; stroke: #ff0000"/>
     <use xlink:href="#m98111b22ab" x="363.153441" y="231.647757" style="fill: #ff0000; stroke: #ff0000"/>
     <use xlink:href="#m98111b22ab" x="365.997961" y="243.417778" style="fill: #ff0000; stroke: #ff0000"/>
     <use xlink:href="#m98111b22ab" x="368.842481" y="240.197906" style="fill: #ff0000; stroke: #ff0000"/>
     <use xlink:href="#m98111b22ab" x="371.687001" y="240.940454" style="fill: #ff0000; stroke: #ff0000"/>
     <use xlink:href="#m98111b22ab" x="374.531521" y="243.33981" style="fill: #ff0000; stroke: #ff0000"/>
     <use xlink:href="#m98111b22ab" x="377.376041" y="239.915701" style="fill: #ff0000; stroke: #ff0000"/>
     <use xlink:href="#m98111b22ab" x="380.220561" y="236.157954" style="fill: #ff0000; stroke: #ff0000"/>
     <use xlink:href="#m98111b22ab" x="383.065081" y="243.417778" style="fill: #ff0000; stroke: #ff0000"/>
     <use xlink:href="#m98111b22ab" x="385.909601" y="243.311995" style="fill: #ff0000; stroke: #ff0000"/>
     <use xlink:href="#m98111b22ab" x="388.754121" y="243.417778" style="fill: #ff0000; stroke: #ff0000"/>
     <use xlink:href="#m98111b22ab" x="391.598641" y="235.602863" style="fill: #ff0000; stroke: #ff0000"/>
     <use xlink:href="#m98111b22ab" x="394.443161" y="243.417778" style="fill: #ff0000; stroke: #ff0000"/>
     <use xlink:href="#m98111b22ab" x="397.287681" y="243.417778" style="fill: #ff0000; stroke: #ff0000"/>
     <use xlink:href="#m98111b22ab" x="400.132201" y="243.296107" style="fill: #ff0000; stroke: #ff0000"/>
     <use xlink:href="#m98111b22ab" x="402.97672" y="228.891902" style="fill: #ff0000; stroke: #ff0000"/>
     <use xlink:href="#m98111b22ab" x="405.82124" y="241.631397" style="fill: #ff0000; stroke: #ff0000"/>
     <use xlink:href="#m98111b22ab" x="408.66576" y="243.274464" style="fill: #ff0000; stroke: #ff0000"/>
     <use xlink:href="#m98111b22ab" x="411.51028" y="243.278105" style="fill: #ff0000; stroke: #ff0000"/>
     <use xlink:href="#m98111b22ab" x="414.3548" y="216.913065" style="fill: #ff0000; stroke: #ff0000"/>
     <use xlink:href="#m98111b22ab" x="417.19932" y="183.472274" style="fill: #ff0000; stroke: #ff0000"/>
     <use xlink:href="#m98111b22ab" x="420.04384" y="243.08782" style="fill: #ff0000; stroke: #ff0000"/>
     <use xlink:href="#m98111b22ab" x="422.88836" y="235.753494" style="fill: #ff0000; stroke: #ff0000"/>
     <use xlink:href="#m98111b22ab" x="425.73288" y="243.417778" style="fill: #ff0000; stroke: #ff0000"/>
     <use xlink:href="#m98111b22ab" x="428.5774" y="241.6621" style="fill: #ff0000; stroke: #ff0000"/>
     <use xlink:href="#m98111b22ab" x="431.42192" y="243.183289" style="fill: #ff0000; stroke: #ff0000"/>
     <use xlink:href="#m98111b22ab" x="434.26644" y="243.417778" style="fill: #ff0000; stroke: #ff0000"/>
     <use xlink:href="#m98111b22ab" x="437.11096" y="242.986714" style="fill: #ff0000; stroke: #ff0000"/>
     <use xlink:href="#m98111b22ab" x="439.95548" y="243.153304" style="fill: #ff0000; stroke: #ff0000"/>
     <use xlink:href="#m98111b22ab" x="442.8" y="241.878948" style="fill: #ff0000; stroke: #ff0000"/>
     <use xlink:href="#m98111b22ab" x="445.64452" y="240.486148" style="fill: #ff0000; stroke: #ff0000"/>
     <use xlink:href="#m98111b22ab" x="448.48904" y="243.341396" style="fill: #ff0000; stroke: #ff0000"/>
     <use xlink:href="#m98111b22ab" x="451.33356" y="243.417778" style="fill: #ff0000; stroke: #ff0000"/>
     <use xlink:href="#m98111b22ab" x="454.17808" y="243.219075" style="fill: #ff0000; stroke: #ff0000"/>
     <use xlink:href="#m98111b22ab" x="457.0226" y="243.32674" style="fill: #ff0000; stroke: #ff0000"/>
     <use xlink:href="#m98111b22ab" x="459.86712" y="233.232646" style="fill: #ff0000; stroke: #ff0000"/>
     <use xlink:href="#m98111b22ab" x="462.71164" y="243.417778" style="fill: #ff0000; stroke: #ff0000"/>
     <use xlink:href="#m98111b22ab" x="465.55616" y="243.27668" style="fill: #ff0000; stroke: #ff0000"/>
     <use xlink:href="#m98111b22ab" x="468.40068" y="243.313217" style="fill: #ff0000; stroke: #ff0000"/>
     <use xlink:href="#m98111b22ab" x="471.2452" y="243.417778" style="fill: #ff0000; stroke: #ff0000"/>
     <use xlink:href="#m98111b22ab" x="474.08972" y="243.417778" style="fill: #ff0000; stroke: #ff0000"/>
     <use xlink:href="#m98111b22ab" x="476.93424" y="243.417778" style="fill: #ff0000; stroke: #ff0000"/>
     <use xlink:href="#m98111b22ab" x="479.77876" y="242.754892" style="fill: #ff0000; stroke: #ff0000"/>
     <use xlink:href="#m98111b22ab" x="482.62328" y="243.225832" style="fill: #ff0000; stroke: #ff0000"/>
     <use xlink:href="#m98111b22ab" x="485.467799" y="234.144655" style="fill: #ff0000; stroke: #ff0000"/>
     <use xlink:href="#m98111b22ab" x="488.312319" y="243.264305" style="fill: #ff0000; stroke: #ff0000"/>
     <use xlink:href="#m98111b22ab" x="491.156839" y="241.635563" style="fill: #ff0000; stroke: #ff0000"/>
     <use xlink:href="#m98111b22ab" x="494.001359" y="243.417778" style="fill: #ff0000; stroke: #ff0000"/>
     <use xlink:href="#m98111b22ab" x="496.845879" y="243.417778" style="fill: #ff0000; stroke: #ff0000"/>
     <use xlink:href="#m98111b22ab" x="499.690399" y="243.253415" style="fill: #ff0000; stroke: #ff0000"/>
     <use xlink:href="#m98111b22ab" x="502.534919" y="243.270076" style="fill: #ff0000; stroke: #ff0000"/>
     <use xlink:href="#m98111b22ab" x="505.379439" y="243.417778" style="fill: #ff0000; stroke: #ff0000"/>
     <use xlink:href="#m98111b22ab" x="508.223959" y="241.612986" style="fill: #ff0000; stroke: #ff0000"/>
     <use xlink:href="#m98111b22ab" x="511.068479" y="243.417778" style="fill: #ff0000; stroke: #ff0000"/>
     <use xlink:href="#m98111b22ab" x="513.912999" y="212.025612" style="fill: #ff0000; stroke: #ff0000"/>
     <use xlink:href="#m98111b22ab" x="516.757519" y="242.891295" style="fill: #ff0000; stroke: #ff0000"/>
     <use xlink:href="#m98111b22ab" x="519.602039" y="243.417778" style="fill: #ff0000; stroke: #ff0000"/>
     <use xlink:href="#m98111b22ab" x="522.446559" y="205.401423" style="fill: #ff0000; stroke: #ff0000"/>
     <use xlink:href="#m98111b22ab" x="525.291079" y="243.417778" style="fill: #ff0000; stroke: #ff0000"/>
     <use xlink:href="#m98111b22ab" x="528.135599" y="230.237958" style="fill: #ff0000; stroke: #ff0000"/>
     <use xlink:href="#m98111b22ab" x="530.980119" y="243.417778" style="fill: #ff0000; stroke: #ff0000"/>
     <use xlink:href="#m98111b22ab" x="533.824639" y="238.545562" style="fill: #ff0000; stroke: #ff0000"/>
     <use xlink:href="#m98111b22ab" x="536.669159" y="98.051302" style="fill: #ff0000; stroke: #ff0000"/>
     <use xlink:href="#m98111b22ab" x="539.513679" y="228.54577" style="fill: #ff0000; stroke: #ff0000"/>
     <use xlink:href="#m98111b22ab" x="542.358199" y="243.417778" style="fill: #ff0000; stroke: #ff0000"/>
     <use xlink:href="#m98111b22ab" x="545.202719" y="243.417778" style="fill: #ff0000; stroke: #ff0000"/>
     <use xlink:href="#m98111b22ab" x="548.047239" y="243.417778" style="fill: #ff0000; stroke: #ff0000"/>
     <use xlink:href="#m98111b22ab" x="550.891759" y="243.276103" style="fill: #ff0000; stroke: #ff0000"/>
     <use xlink:href="#m98111b22ab" x="553.736279" y="242.434335" style="fill: #ff0000; stroke: #ff0000"/>
     <use xlink:href="#m98111b22ab" x="556.580799" y="243.315325" style="fill: #ff0000; stroke: #ff0000"/>
     <use xlink:href="#m98111b22ab" x="559.425319" y="243.321195" style="fill: #ff0000; stroke: #ff0000"/>
     <use xlink:href="#m98111b22ab" x="562.269839" y="239.856657" style="fill: #ff0000; stroke: #ff0000"/>
     <use xlink:href="#m98111b22ab" x="565.114359" y="242.501227" style="fill: #ff0000; stroke: #ff0000"/>
     <use xlink:href="#m98111b22ab" x="567.958879" y="235.665341" style="fill: #ff0000; stroke: #ff0000"/>
     <use xlink:href="#m98111b22ab" x="570.803398" y="229.972468" style="fill: #ff0000; stroke: #ff0000"/>
     <use xlink:href="#m98111b22ab" x="573.647918" y="243.417778" style="fill: #ff0000; stroke: #ff0000"/>
     <use xlink:href="#m98111b22ab" x="576.492438" y="234.422629" style="fill: #ff0000; stroke: #ff0000"/>
     <use xlink:href="#m98111b22ab" x="579.336958" y="242.003048" style="fill: #ff0000; stroke: #ff0000"/>
     <use xlink:href="#m98111b22ab" x="582.181478" y="243.417778" style="fill: #ff0000; stroke: #ff0000"/>
     <use xlink:href="#m98111b22ab" x="585.025998" y="217.947754" style="fill: #ff0000; stroke: #ff0000"/>
     <use xlink:href="#m98111b22ab" x="587.870518" y="217.74726" style="fill: #ff0000; stroke: #ff0000"/>
     <use xlink:href="#m98111b22ab" x="590.715038" y="176.429094" style="fill: #ff0000; stroke: #ff0000"/>
     <use xlink:href="#m98111b22ab" x="593.559558" y="185.658015" style="fill: #ff0000; stroke: #ff0000"/>
     <use xlink:href="#m98111b22ab" x="596.404078" y="223.339387" style="fill: #ff0000; stroke: #ff0000"/>
     <use xlink:href="#m98111b22ab" x="599.248598" y="243.322928" style="fill: #ff0000; stroke: #ff0000"/>
     <use xlink:href="#m98111b22ab" x="602.093118" y="203.27919" style="fill: #ff0000; stroke: #ff0000"/>
     <use xlink:href="#m98111b22ab" x="604.937638" y="243.417778" style="fill: #ff0000; stroke: #ff0000"/>
     <use xlink:href="#m98111b22ab" x="607.782158" y="243.417778" style="fill: #ff0000; stroke: #ff0000"/>
     <use xlink:href="#m98111b22ab" x="610.626678" y="243.417778" style="fill: #ff0000; stroke: #ff0000"/>
     <use xlink:href="#m98111b22ab" x="613.471198" y="181.901652" style="fill: #ff0000; stroke: #ff0000"/>
     <use xlink:href="#m98111b22ab" x="616.315718" y="233.507372" style="fill: #ff0000; stroke: #ff0000"/>
     <use xlink:href="#m98111b22ab" x="619.160238" y="243.417778" style="fill: #ff0000; stroke: #ff0000"/>
     <use xlink:href="#m98111b22ab" x="622.004758" y="146.707506" style="fill: #ff0000; stroke: #ff0000"/>
     <use xlink:href="#m98111b22ab" x="624.849278" y="232.122652" style="fill: #ff0000; stroke: #ff0000"/>
     <use xlink:href="#m98111b22ab" x="627.693798" y="207.851764" style="fill: #ff0000; stroke: #ff0000"/>
     <use xlink:href="#m98111b22ab" x="630.538318" y="191.768967" style="fill: #ff0000; stroke: #ff0000"/>
     <use xlink:href="#m98111b22ab" x="633.382838" y="242.769818" style="fill: #ff0000; stroke: #ff0000"/>
     <use xlink:href="#m98111b22ab" x="636.227358" y="243.417778" style="fill: #ff0000; stroke: #ff0000"/>
     <use xlink:href="#m98111b22ab" x="639.071878" y="163.322595" style="fill: #ff0000; stroke: #ff0000"/>
     <use xlink:href="#m98111b22ab" x="641.916398" y="167.925295" style="fill: #ff0000; stroke: #ff0000"/>
     <use xlink:href="#m98111b22ab" x="644.760918" y="234.452489" style="fill: #ff0000; stroke: #ff0000"/>
     <use xlink:href="#m98111b22ab" x="647.605438" y="120.293885" style="fill: #ff0000; stroke: #ff0000"/>
     <use xlink:href="#m98111b22ab" x="650.449958" y="243.417778" style="fill: #ff0000; stroke: #ff0000"/>
     <use xlink:href="#m98111b22ab" x="653.294477" y="148.603554" style="fill: #ff0000; stroke: #ff0000"/>
     <use xlink:href="#m98111b22ab" x="656.138997" y="194.785301" style="fill: #ff0000; stroke: #ff0000"/>
     <use xlink:href="#m98111b22ab" x="658.983517" y="243.376234" style="fill: #ff0000; stroke: #ff0000"/>
     <use xlink:href="#m98111b22ab" x="661.828037" y="176.270682" style="fill: #ff0000; stroke: #ff0000"/>
     <use xlink:href="#m98111b22ab" x="664.672557" y="162.396598" style="fill: #ff0000; stroke: #ff0000"/>
     <use xlink:href="#m98111b22ab" x="667.517077" y="125.183473" style="fill: #ff0000; stroke: #ff0000"/>
     <use xlink:href="#m98111b22ab" x="670.361597" y="152.448943" style="fill: #ff0000; stroke: #ff0000"/>
     <use xlink:href="#m98111b22ab" x="673.206117" y="243.417778" style="fill: #ff0000; stroke: #ff0000"/>
     <use xlink:href="#m98111b22ab" x="676.050637" y="44.64" style="fill: #ff0000; stroke: #ff0000"/>
     <use xlink:href="#m98111b22ab" x="678.895157" y="212.991007" style="fill: #ff0000; stroke: #ff0000"/>
     <use xlink:href="#m98111b22ab" x="681.739677" y="243.417778" style="fill: #ff0000; stroke: #ff0000"/>
     <use xlink:href="#m98111b22ab" x="684.584197" y="147.628779" style="fill: #ff0000; stroke: #ff0000"/>
     <use xlink:href="#m98111b22ab" x="687.428717" y="230.750753" style="fill: #ff0000; stroke: #ff0000"/>
     <use xlink:href="#m98111b22ab" x="690.273237" y="116.901335" style="fill: #ff0000; stroke: #ff0000"/>
     <use xlink:href="#m98111b22ab" x="693.117757" y="240.23661" style="fill: #ff0000; stroke: #ff0000"/>
     <use xlink:href="#m98111b22ab" x="695.962277" y="243.417778" style="fill: #ff0000; stroke: #ff0000"/>
     <use xlink:href="#m98111b22ab" x="698.806797" y="139.329169" style="fill: #ff0000; stroke: #ff0000"/>
     <use xlink:href="#m98111b22ab" x="701.651317" y="243.417778" style="fill: #ff0000; stroke: #ff0000"/>
     <use xlink:href="#m98111b22ab" x="704.495837" y="94.366656" style="fill: #ff0000; stroke: #ff0000"/>
     <use xlink:href="#m98111b22ab" x="707.340357" y="171.417212" style="fill: #ff0000; stroke: #ff0000"/>
     <use xlink:href="#m98111b22ab" x="710.184877" y="218.400767" style="fill: #ff0000; stroke: #ff0000"/>
     <use xlink:href="#m98111b22ab" x="713.029397" y="160.21776" style="fill: #ff0000; stroke: #ff0000"/>
     <use xlink:href="#m98111b22ab" x="715.873917" y="88.006991" style="fill: #ff0000; stroke: #ff0000"/>
     <use xlink:href="#m98111b22ab" x="718.718437" y="151.524053" style="fill: #ff0000; stroke: #ff0000"/>
     <use xlink:href="#m98111b22ab" x="721.562957" y="82.811758" style="fill: #ff0000; stroke: #ff0000"/>
     <use xlink:href="#m98111b22ab" x="724.407477" y="155.615948" style="fill: #ff0000; stroke: #ff0000"/>
     <use xlink:href="#m98111b22ab" x="727.251997" y="212.370698" style="fill: #ff0000; stroke: #ff0000"/>
     <use xlink:href="#m98111b22ab" x="730.096517" y="111.13218" style="fill: #ff0000; stroke: #ff0000"/>
     <use xlink:href="#m98111b22ab" x="732.941037" y="151.096919" style="fill: #ff0000; stroke: #ff0000"/>
     <use xlink:href="#m98111b22ab" x="735.785556" y="126.456269" style="fill: #ff0000; stroke: #ff0000"/>
     <use xlink:href="#m98111b22ab" x="738.630076" y="198.366819" style="fill: #ff0000; stroke: #ff0000"/>
     <use xlink:href="#m98111b22ab" x="741.474596" y="62.422275" style="fill: #ff0000; stroke: #ff0000"/>
     <use xlink:href="#m98111b22ab" x="744.319116" y="113.364715" style="fill: #ff0000; stroke: #ff0000"/>
     <use xlink:href="#m98111b22ab" x="747.163636" y="156.770675" style="fill: #ff0000; stroke: #ff0000"/>
    </g>
   </g>
   <g id="matplotlib.axis_1">
    <g id="xtick_1">
     <g id="line2d_1">
      <defs>
       <path id="mae4b2ebcfb" d="M 0 0 
L 0 3.5 
" style="stroke: #000000; stroke-width: 0.8"/>
      </defs>
      <g>
       <use xlink:href="#mae4b2ebcfb" x="138.436364" y="256.32" style="stroke: #000000; stroke-width: 0.8"/>
      </g>
     </g>
     <g id="text_1">
      <!-- 0 -->
      <g transform="translate(135.255114 270.918437)scale(0.1 -0.1)">
       <defs>
        <path id="DejaVuSans-30" d="M 2034 4250 
Q 1547 4250 1301 3770 
Q 1056 3291 1056 2328 
Q 1056 1369 1301 889 
Q 1547 409 2034 409 
Q 2525 409 2770 889 
Q 3016 1369 3016 2328 
Q 3016 3291 2770 3770 
Q 2525 4250 2034 4250 
z
M 2034 4750 
Q 2819 4750 3233 4129 
Q 3647 3509 3647 2328 
Q 3647 1150 3233 529 
Q 2819 -91 2034 -91 
Q 1250 -91 836 529 
Q 422 1150 422 2328 
Q 422 3509 836 4129 
Q 1250 4750 2034 4750 
z
" transform="scale(0.015625)"/>
       </defs>
       <use xlink:href="#DejaVuSans-30"/>
      </g>
     </g>
    </g>
    <g id="xtick_2">
     <g id="line2d_2">
      <g>
       <use xlink:href="#mae4b2ebcfb" x="280.662362" y="256.32" style="stroke: #000000; stroke-width: 0.8"/>
      </g>
     </g>
     <g id="text_2">
      <!-- 50 -->
      <g transform="translate(274.299862 270.918437)scale(0.1 -0.1)">
       <defs>
        <path id="DejaVuSans-35" d="M 691 4666 
L 3169 4666 
L 3169 4134 
L 1269 4134 
L 1269 2991 
Q 1406 3038 1543 3061 
Q 1681 3084 1819 3084 
Q 2600 3084 3056 2656 
Q 3513 2228 3513 1497 
Q 3513 744 3044 326 
Q 2575 -91 1722 -91 
Q 1428 -91 1123 -41 
Q 819 9 494 109 
L 494 744 
Q 775 591 1075 516 
Q 1375 441 1709 441 
Q 2250 441 2565 725 
Q 2881 1009 2881 1497 
Q 2881 1984 2565 2268 
Q 2250 2553 1709 2553 
Q 1456 2553 1204 2497 
Q 953 2441 691 2322 
L 691 4666 
z
" transform="scale(0.015625)"/>
       </defs>
       <use xlink:href="#DejaVuSans-35"/>
       <use xlink:href="#DejaVuSans-30" x="63.623047"/>
      </g>
     </g>
    </g>
    <g id="xtick_3">
     <g id="line2d_3">
      <g>
       <use xlink:href="#mae4b2ebcfb" x="422.88836" y="256.32" style="stroke: #000000; stroke-width: 0.8"/>
      </g>
     </g>
     <g id="text_3">
      <!-- 100 -->
      <g transform="translate(413.34461 270.918437)scale(0.1 -0.1)">
       <defs>
        <path id="DejaVuSans-31" d="M 794 531 
L 1825 531 
L 1825 4091 
L 703 3866 
L 703 4441 
L 1819 4666 
L 2450 4666 
L 2450 531 
L 3481 531 
L 3481 0 
L 794 0 
L 794 531 
z
" transform="scale(0.015625)"/>
       </defs>
       <use xlink:href="#DejaVuSans-31"/>
       <use xlink:href="#DejaVuSans-30" x="63.623047"/>
       <use xlink:href="#DejaVuSans-30" x="127.246094"/>
      </g>
     </g>
    </g>
    <g id="xtick_4">
     <g id="line2d_4">
      <g>
       <use xlink:href="#mae4b2ebcfb" x="565.114359" y="256.32" style="stroke: #000000; stroke-width: 0.8"/>
      </g>
     </g>
     <g id="text_4">
      <!-- 150 -->
      <g transform="translate(555.570609 270.918437)scale(0.1 -0.1)">
       <use xlink:href="#DejaVuSans-31"/>
       <use xlink:href="#DejaVuSans-35" x="63.623047"/>
       <use xlink:href="#DejaVuSans-30" x="127.246094"/>
      </g>
     </g>
    </g>
    <g id="xtick_5">
     <g id="line2d_5">
      <g>
       <use xlink:href="#mae4b2ebcfb" x="707.340357" y="256.32" style="stroke: #000000; stroke-width: 0.8"/>
      </g>
     </g>
     <g id="text_5">
      <!-- 200 -->
      <g transform="translate(697.796607 270.918437)scale(0.1 -0.1)">
       <defs>
        <path id="DejaVuSans-32" d="M 1228 531 
L 3431 531 
L 3431 0 
L 469 0 
L 469 531 
Q 828 903 1448 1529 
Q 2069 2156 2228 2338 
Q 2531 2678 2651 2914 
Q 2772 3150 2772 3378 
Q 2772 3750 2511 3984 
Q 2250 4219 1831 4219 
Q 1534 4219 1204 4116 
Q 875 4013 500 3803 
L 500 4441 
Q 881 4594 1212 4672 
Q 1544 4750 1819 4750 
Q 2544 4750 2975 4387 
Q 3406 4025 3406 3419 
Q 3406 3131 3298 2873 
Q 3191 2616 2906 2266 
Q 2828 2175 2409 1742 
Q 1991 1309 1228 531 
z
" transform="scale(0.015625)"/>
       </defs>
       <use xlink:href="#DejaVuSans-32"/>
       <use xlink:href="#DejaVuSans-30" x="63.623047"/>
       <use xlink:href="#DejaVuSans-30" x="127.246094"/>
      </g>
     </g>
    </g>
   </g>
   <g id="matplotlib.axis_2">
    <g id="ytick_1">
     <g id="line2d_6">
      <defs>
       <path id="m2c37807581" d="M 0 0 
L -3.5 0 
" style="stroke: #000000; stroke-width: 0.8"/>
      </defs>
      <g>
       <use xlink:href="#m2c37807581" x="108" y="243.417778" style="stroke: #000000; stroke-width: 0.8"/>
      </g>
     </g>
     <g id="text_6">
      <!-- 0 -->
      <g transform="translate(94.6375 247.216997)scale(0.1 -0.1)">
       <use xlink:href="#DejaVuSans-30"/>
      </g>
     </g>
    </g>
    <g id="ytick_2">
     <g id="line2d_7">
      <g>
       <use xlink:href="#m2c37807581" x="108" y="196.531315" style="stroke: #000000; stroke-width: 0.8"/>
      </g>
     </g>
     <g id="text_7">
      <!-- 1 -->
      <g transform="translate(94.6375 200.330534)scale(0.1 -0.1)">
       <use xlink:href="#DejaVuSans-31"/>
      </g>
     </g>
    </g>
    <g id="ytick_3">
     <g id="line2d_8">
      <g>
       <use xlink:href="#m2c37807581" x="108" y="149.644852" style="stroke: #000000; stroke-width: 0.8"/>
      </g>
     </g>
     <g id="text_8">
      <!-- 2 -->
      <g transform="translate(94.6375 153.444071)scale(0.1 -0.1)">
       <use xlink:href="#DejaVuSans-32"/>
      </g>
     </g>
    </g>
    <g id="ytick_4">
     <g id="line2d_9">
      <g>
       <use xlink:href="#m2c37807581" x="108" y="102.758389" style="stroke: #000000; stroke-width: 0.8"/>
      </g>
     </g>
     <g id="text_9">
      <!-- 3 -->
      <g transform="translate(94.6375 106.557608)scale(0.1 -0.1)">
       <defs>
        <path id="DejaVuSans-33" d="M 2597 2516 
Q 3050 2419 3304 2112 
Q 3559 1806 3559 1356 
Q 3559 666 3084 287 
Q 2609 -91 1734 -91 
Q 1441 -91 1130 -33 
Q 819 25 488 141 
L 488 750 
Q 750 597 1062 519 
Q 1375 441 1716 441 
Q 2309 441 2620 675 
Q 2931 909 2931 1356 
Q 2931 1769 2642 2001 
Q 2353 2234 1838 2234 
L 1294 2234 
L 1294 2753 
L 1863 2753 
Q 2328 2753 2575 2939 
Q 2822 3125 2822 3475 
Q 2822 3834 2567 4026 
Q 2313 4219 1838 4219 
Q 1578 4219 1281 4162 
Q 984 4106 628 3988 
L 628 4550 
Q 988 4650 1302 4700 
Q 1616 4750 1894 4750 
Q 2613 4750 3031 4423 
Q 3450 4097 3450 3541 
Q 3450 3153 3228 2886 
Q 3006 2619 2597 2516 
z
" transform="scale(0.015625)"/>
       </defs>
       <use xlink:href="#DejaVuSans-33"/>
      </g>
     </g>
    </g>
    <g id="ytick_5">
     <g id="line2d_10">
      <g>
       <use xlink:href="#m2c37807581" x="108" y="55.871926" style="stroke: #000000; stroke-width: 0.8"/>
      </g>
     </g>
     <g id="text_10">
      <!-- 4 -->
      <g transform="translate(94.6375 59.671145)scale(0.1 -0.1)">
       <defs>
        <path id="DejaVuSans-34" d="M 2419 4116 
L 825 1625 
L 2419 1625 
L 2419 4116 
z
M 2253 4666 
L 3047 4666 
L 3047 1625 
L 3713 1625 
L 3713 1100 
L 3047 1100 
L 3047 0 
L 2419 0 
L 2419 1100 
L 313 1100 
L 313 1709 
L 2253 4666 
z
" transform="scale(0.015625)"/>
       </defs>
       <use xlink:href="#DejaVuSans-34"/>
      </g>
     </g>
    </g>
   </g>
   <g id="line2d_11">
    <path d="M 138.436364 246.24 
L 152.658963 244.426995 
L 166.881563 242.80919 
L 181.104163 241.387211 
L 195.326763 240.159817 
L 209.549363 239.123903 
L 226.616483 238.126422 
L 243.683602 237.385265 
L 260.750722 236.884418 
L 277.817842 236.603995 
L 297.729482 236.523516 
L 317.641121 236.66618 
L 343.241801 237.093692 
L 428.5774 238.785262 
L 445.64452 238.799841 
L 459.86712 238.629004 
L 474.08972 238.251564 
L 488.312319 237.627822 
L 499.690399 236.923623 
L 511.068479 236.013086 
L 522.446559 234.873304 
L 533.824639 233.480606 
L 545.202719 231.810558 
L 553.736279 230.360881 
L 562.269839 228.730121 
L 570.803398 226.907124 
L 579.336958 224.880492 
L 587.870518 222.638586 
L 596.404078 220.169525 
L 604.937638 217.461185 
L 613.471198 214.501202 
L 622.004758 211.276969 
L 630.538318 207.775636 
L 639.071878 203.984113 
L 647.605438 199.889067 
L 656.138997 195.476923 
L 664.672557 190.733864 
L 673.206117 185.645832 
L 681.739677 180.198527 
L 690.273237 174.377404 
L 698.806797 168.167681 
L 707.340357 161.554331 
L 715.873917 154.522084 
L 721.562957 149.593551 
L 727.251997 144.467297 
L 732.941037 139.138621 
L 738.630076 133.602771 
L 744.319116 127.854948 
L 747.163636 124.900034 
L 747.163636 124.900034 
" clip-path="url(#p1c40655232)" style="fill: none; stroke: #000000; stroke-width: 3; stroke-linecap: square"/>
   </g>
   <g id="patch_3">
    <path d="M 108 256.32 
L 108 34.56 
" style="fill: none; stroke: #000000; stroke-width: 0.8; stroke-linejoin: miter; stroke-linecap: square"/>
   </g>
   <g id="patch_4">
    <path d="M 777.6 256.32 
L 777.6 34.56 
" style="fill: none; stroke: #000000; stroke-width: 0.8; stroke-linejoin: miter; stroke-linecap: square"/>
   </g>
   <g id="patch_5">
    <path d="M 108 256.32 
L 777.6 256.32 
" style="fill: none; stroke: #000000; stroke-width: 0.8; stroke-linejoin: miter; stroke-linecap: square"/>
   </g>
   <g id="patch_6">
    <path d="M 108 34.56 
L 777.6 34.56 
" style="fill: none; stroke: #000000; stroke-width: 0.8; stroke-linejoin: miter; stroke-linecap: square"/>
   </g>
   <g id="text_11">
    <!-- MYH3 -->
    <g transform="translate(790.992 160.616562)scale(0.55 -0.55)">
     <defs>
      <path id="DejaVuSans-4d" d="M 628 4666 
L 1569 4666 
L 2759 1491 
L 3956 4666 
L 4897 4666 
L 4897 0 
L 4281 0 
L 4281 4097 
L 3078 897 
L 2444 897 
L 1241 4097 
L 1241 0 
L 628 0 
L 628 4666 
z
" transform="scale(0.015625)"/>
      <path id="DejaVuSans-59" d="M -13 4666 
L 666 4666 
L 1959 2747 
L 3244 4666 
L 3922 4666 
L 2272 2222 
L 2272 0 
L 1638 0 
L 1638 2222 
L -13 4666 
z
" transform="scale(0.015625)"/>
      <path id="DejaVuSans-48" d="M 628 4666 
L 1259 4666 
L 1259 2753 
L 3553 2753 
L 3553 4666 
L 4184 4666 
L 4184 0 
L 3553 0 
L 3553 2222 
L 1259 2222 
L 1259 0 
L 628 0 
L 628 4666 
z
" transform="scale(0.015625)"/>
     </defs>
     <use xlink:href="#DejaVuSans-4d"/>
     <use xlink:href="#DejaVuSans-59" x="86.279297"/>
     <use xlink:href="#DejaVuSans-48" x="147.363281"/>
     <use xlink:href="#DejaVuSans-33" x="222.558594"/>
    </g>
   </g>
  </g>
 </g>
 <defs>
  <clipPath id="p1c40655232">
   <rect x="108" y="34.56" width="669.6" height="221.76"/>
  </clipPath>
 </defs>
</svg>
